STARTFONT 2.1
FONT -Daewoo-Mincho-Medium-R-Normal--16-120-100-100-C-160-KSC5601.1987-0
SIZE 16 100 100
FONTBOUNDINGBOX 16 16 0 -2
STARTPROPERTIES 19
FONTNAME_REGISTRY ""
FOUNDRY "Daewoo"
FAMILY_NAME "Mincho"
WEIGHT_NAME "Medium"
SLANT "R"
SETWIDTH_NAME "Normal"
ADD_STYLE_NAME ""
PIXEL_SIZE 16
POINT_SIZE 120
RESOLUTION_X 100
RESOLUTION_Y 100
SPACING "C"
AVERAGE_WIDTH 160
CHARSET_REGISTRY "KSC5601.1987"
CHARSET_ENCODING "0"
DEFAULT_CHAR 8481
FONT_DESCENT 2
FONT_ASCENT 14
COPYRIGHT "Copyright (c) 1987, 1988 Daewoo Electronics Co.,Ltd."
ENDPROPERTIES
CHARS 8224
STARTCHAR J2121
ENCODING 8481
SWIDTH 960 0
DWIDTH 16 0
BBX 16 16 0 -2
BITMAP
0000
0000
0000
0000
0000
0000
0000
0000
0000
0000
0000
0000
0000
0000
0000
0000
ENDCHAR
STARTCHAR J2122
ENCODING 8482
SWIDTH 960 0
DWIDTH 16 0
BBX 16 16 0 -2
BITMAP
0000
0008
0004
0006
0006
0000
0000
0000
0000
0000
0000
0000
0000
0000
0000
0000
ENDCHAR
STARTCHAR J2123
ENCODING 8483
SWIDTH 960 0
DWIDTH 16 0
BBX 16 16 0 -2
BITMAP
0000
000c
0012
000c
0000
0000
0000
0000
0000
0000
0000
0000
0000
0000
0000
0000
ENDCHAR
STARTCHAR J2124
ENCODING 8484
SWIDTH 960 0
DWIDTH 16 0
BBX 16 16 0 -2
BITMAP
0000
0000
0000
0000
0000
0000
0080
01c0
0080
0000
0000
0000
0000
0000
0000
0000
ENDCHAR
STARTCHAR J2125
ENCODING 8485
SWIDTH 960 0
DWIDTH 16 0
BBX 16 16 0 -2
BITMAP
0000
0000
0000
0000
0000
0000
0820
1c70
0820
0000
0000
0000
0000
0000
0000
0000
ENDCHAR
STARTCHAR J2126
ENCODING 8486
SWIDTH 960 0
DWIDTH 16 0
BBX 16 16 0 -2
BITMAP
0000
0000
0000
0000
0000
0000
2108
739c
2108
0000
0000
0000
0000
0000
0000
0000
ENDCHAR
STARTCHAR J2127
ENCODING 8487
SWIDTH 960 0
DWIDTH 16 0
BBX 16 16 0 -2
BITMAP
0000
0820
1c70
0820
0000
0000
0000
0000
0000
0000
0000
0000
0000
0000
0000
0000
ENDCHAR
STARTCHAR J2128
ENCODING 8488
SWIDTH 960 0
DWIDTH 16 0
BBX 16 16 0 -2
BITMAP
0000
0000
0000
0000
0318
0318
0630
0420
0840
0840
1080
0000
0000
0000
0000
0000
ENDCHAR
STARTCHAR J2129
ENCODING 8489
SWIDTH 960 0
DWIDTH 16 0
BBX 16 16 0 -2
BITMAP
0000
0000
0000
0000
0000
0000
0000
07e0
0000
0000
0000
0000
0000
0000
0000
0000
ENDCHAR
STARTCHAR J212a
ENCODING 8490
SWIDTH 960 0
DWIDTH 16 0
BBX 16 16 0 -2
BITMAP
0000
0000
0000
0000
0000
0000
0000
ffff
0000
0000
0000
0000
0000
0000
0000
0000
ENDCHAR
STARTCHAR J212b
ENCODING 8491
SWIDTH 960 0
DWIDTH 16 0
BBX 16 16 0 -2
BITMAP
0240
0240
0240
0240
0240
0240
0240
0240
0240
0240
0240
0240
0240
0240
0240
0240
ENDCHAR
STARTCHAR J212c
ENCODING 8492
SWIDTH 960 0
DWIDTH 16 0
BBX 16 16 0 -2
BITMAP
8000
4000
2000
1000
0800
0400
0200
0100
0080
0040
0020
0010
0008
0004
0002
0001
ENDCHAR
STARTCHAR J212d
ENCODING 8493
SWIDTH 960 0
DWIDTH 16 0
BBX 16 16 0 -2
BITMAP
0000
0000
0000
0000
0000
0000
0e00
318c
0070
0000
0000
0000
0000
0000
0000
0000
ENDCHAR
STARTCHAR J212e
ENCODING 8494
SWIDTH 960 0
DWIDTH 16 0
BBX 16 16 0 -2
BITMAP
0000
0002
0004
0006
0006
0000
0000
0000
0000
0000
0000
0000
0000
0000
0000
0000
ENDCHAR
STARTCHAR J212f
ENCODING 8495
SWIDTH 960 0
DWIDTH 16 0
BBX 16 16 0 -2
BITMAP
0000
6000
6000
2000
4000
0000
0000
0000
0000
0000
0000
0000
0000
0000
0000
0000
ENDCHAR
STARTCHAR J2130
ENCODING 8496
SWIDTH 960 0
DWIDTH 16 0
BBX 16 16 0 -2
BITMAP
0000
0022
0044
0066
0066
0000
0000
0000
0000
0000
0000
0000
0000
0000
0000
0000
ENDCHAR
STARTCHAR J2131
ENCODING 8497
SWIDTH 960 0
DWIDTH 16 0
BBX 16 16 0 -2
BITMAP
0000
6600
6600
2200
4400
0000
0000
0000
0000
0000
0000
0000
0000
0000
0000
0000
ENDCHAR
STARTCHAR J2132
ENCODING 8498
SWIDTH 960 0
DWIDTH 16 0
BBX 16 16 0 -2
BITMAP
0006
0018
0010
0010
0010
0010
0010
0010
0010
0010
0010
0010
0010
0018
0006
0000
ENDCHAR
STARTCHAR J2133
ENCODING 8499
SWIDTH 960 0
DWIDTH 16 0
BBX 16 16 0 -2
BITMAP
6000
1800
0800
0800
0800
0800
0800
0800
0800
0800
0800
0800
0800
1800
6000
0000
ENDCHAR
STARTCHAR J2134
ENCODING 8500
SWIDTH 960 0
DWIDTH 16 0
BBX 16 16 0 -2
BITMAP
0001
0002
0004
0008
0010
0020
0040
0080
0040
0020
0010
0008
0004
0002
0001
0000
ENDCHAR
STARTCHAR J2135
ENCODING 8501
SWIDTH 960 0
DWIDTH 16 0
BBX 16 16 0 -2
BITMAP
4000
2000
1000
0800
0400
0200
0100
0080
0100
0200
0400
0800
1000
2000
4000
0000
ENDCHAR
STARTCHAR J2136
ENCODING 8502
SWIDTH 960 0
DWIDTH 16 0
BBX 16 16 0 -2
BITMAP
0009
0012
0024
0048
0090
0120
0240
0480
0240
0120
0090
0048
0024
0012
0009
0000
ENDCHAR
STARTCHAR J2137
ENCODING 8503
SWIDTH 960 0
DWIDTH 16 0
BBX 16 16 0 -2
BITMAP
4800
2400
1200
0900
0480
0240
0120
0090
0120
0240
0480
0900
1200
2400
4800
0000
ENDCHAR
STARTCHAR J2138
ENCODING 8504
SWIDTH 960 0
DWIDTH 16 0
BBX 16 16 0 -2
BITMAP
0000
003e
0020
0020
0020
0020
0020
0020
0020
0020
0020
0000
0000
0000
0000
0000
ENDCHAR
STARTCHAR J2139
ENCODING 8505
SWIDTH 960 0
DWIDTH 16 0
BBX 16 16 0 -2
BITMAP
0000
0000
0000
0000
0000
0400
0400
0400
0400
0400
0400
0400
0400
0400
7c00
0000
ENDCHAR
STARTCHAR J213a
ENCODING 8506
SWIDTH 960 0
DWIDTH 16 0
BBX 16 16 0 -2
BITMAP
0000
00fe
0082
009e
0090
0090
0090
0090
0090
0090
00f0
0000
0000
0000
0000
0000
ENDCHAR
STARTCHAR J213b
ENCODING 8507
SWIDTH 960 0
DWIDTH 16 0
BBX 16 16 0 -2
BITMAP
0000
0000
0000
0000
0000
0f00
0900
0900
0900
0900
0900
0900
7900
4100
7f00
0000
ENDCHAR
STARTCHAR J213c
ENCODING 8508
SWIDTH 960 0
DWIDTH 16 0
BBX 16 16 0 -2
BITMAP
007e
0078
0070
0070
0060
0060
0060
0060
0060
0060
0060
0070
0070
0078
007e
0000
ENDCHAR
STARTCHAR J213d
ENCODING 8509
SWIDTH 960 0
DWIDTH 16 0
BBX 16 16 0 -2
BITMAP
7e00
1e00
0e00
0e00
0600
0600
0600
0600
0600
0600
0600
0e00
0e00
1e00
7e00
0000
ENDCHAR
STARTCHAR J213e
ENCODING 8510
SWIDTH 960 0
DWIDTH 16 0
BBX 16 16 0 -2
BITMAP
0000
0000
0080
0080
0080
0080
1ffc
0080
0080
0080
0080
0000
1ffc
0000
0000
0000
ENDCHAR
STARTCHAR J213f
ENCODING 8511
SWIDTH 960 0
DWIDTH 16 0
BBX 16 16 0 -2
BITMAP
0000
0000
0000
0808
0410
0220
0140
0080
0140
0220
0410
0808
0000
0000
0000
0000
ENDCHAR
STARTCHAR J2140
ENCODING 8512
SWIDTH 960 0
DWIDTH 16 0
BBX 16 16 0 -2
BITMAP
0000
0000
0100
0380
0100
0000
0000
7ffc
0000
0000
0100
0380
0100
0000
0000
0000
ENDCHAR
STARTCHAR J2141
ENCODING 8513
SWIDTH 960 0
DWIDTH 16 0
BBX 16 16 0 -2
BITMAP
0000
0000
1000
0800
0400
3ffc
0100
0080
3ffc
0020
0010
0008
0000
0000
0000
0000
ENDCHAR
STARTCHAR J2142
ENCODING 8514
SWIDTH 960 0
DWIDTH 16 0
BBX 16 16 0 -2
BITMAP
0000
0000
0000
0018
00e0
0700
1800
6000
1800
0700
00e0
0018
0000
7ffc
0000
0000
ENDCHAR
STARTCHAR J2143
ENCODING 8515
SWIDTH 960 0
DWIDTH 16 0
BBX 16 16 0 -2
BITMAP
0000
0000
0000
3000
0e00
01c0
0030
000c
0030
01c0
0e00
3000
0000
7ffc
0000
0000
ENDCHAR
STARTCHAR J2144
ENCODING 8516
SWIDTH 960 0
DWIDTH 16 0
BBX 16 16 0 -2
BITMAP
0000
0000
0000
1c70
2288
4104
4104
4104
4104
4104
2288
1c70
0000
0000
0000
0000
ENDCHAR
STARTCHAR J2145
ENCODING 8517
SWIDTH 960 0
DWIDTH 16 0
BBX 16 16 0 -2
BITMAP
0000
0000
0000
0100
0380
0100
0000
0000
0000
1010
3838
1010
0000
0000
0000
0000
ENDCHAR
STARTCHAR J2146
ENCODING 8518
SWIDTH 960 0
DWIDTH 16 0
BBX 16 16 0 -2
BITMAP
0000
3000
4800
3000
0000
0000
0000
0000
0000
0000
0000
0000
0000
0000
0000
0000
ENDCHAR
STARTCHAR J2147
ENCODING 8519
SWIDTH 960 0
DWIDTH 16 0
BBX 16 16 0 -2
BITMAP
0000
1800
3000
2000
4000
0000
0000
0000
0000
0000
0000
0000
0000
0000
0000
0000
ENDCHAR
STARTCHAR J2148
ENCODING 8520
SWIDTH 960 0
DWIDTH 16 0
BBX 16 16 0 -2
BITMAP
0000
3300
3300
2200
4400
0000
0000
0000
0000
0000
0000
0000
0000
0000
0000
0000
ENDCHAR
STARTCHAR J2149
ENCODING 8521
SWIDTH 960 0
DWIDTH 16 0
BBX 16 16 0 -2
BITMAP
0000
6000
9000
63f4
061c
0c06
1802
1800
1800
1800
1800
0c02
060c
03f0
0000
0000
ENDCHAR
STARTCHAR J214a
ENCODING 8522
SWIDTH 960 0
DWIDTH 16 0
BBX 16 16 0 -2
BITMAP
0300
0480
0300
0200
0300
0580
0580
08c0
08c0
1060
1fe0
1030
2030
707c
0000
0000
ENDCHAR
STARTCHAR J214b
ENCODING 8523
SWIDTH 960 0
DWIDTH 16 0
BBX 16 16 0 -2
BITMAP
0040
0040
0fd0
18b0
3088
6100
6100
6200
6200
6200
340c
1830
0fc0
1000
0000
0000
ENDCHAR
STARTCHAR J214c
ENCODING 8524
SWIDTH 960 0
DWIDTH 16 0
BBX 16 16 0 -2
BITMAP
0000
00f0
010c
010c
0300
0300
0300
0fe0
0300
0300
1a00
2604
2708
1cf0
0000
0000
ENDCHAR
STARTCHAR J214d
ENCODING 8525
SWIDTH 960 0
DWIDTH 16 0
BBX 16 16 0 -2
BITMAP
0000
781e
1008
0810
0420
0240
1ff8
0180
1ff8
0180
0180
0180
0180
07e0
0000
0000
ENDCHAR
STARTCHAR J214e
ENCODING 8526
SWIDTH 960 0
DWIDTH 16 0
BBX 16 16 0 -2
BITMAP
0000
0180
03c0
05a0
0990
1188
0180
0180
07e0
0810
1008
1008
0810
07e0
0000
0000
ENDCHAR
STARTCHAR J214f
ENCODING 8527
SWIDTH 960 0
DWIDTH 16 0
BBX 16 16 0 -2
BITMAP
0000
07e0
0810
1008
1008
0810
07e0
0180
0180
7ffe
0180
0180
0180
0180
0000
0000
ENDCHAR
STARTCHAR J2150
ENCODING 8528
SWIDTH 960 0
DWIDTH 16 0
BBX 16 16 0 -2
BITMAP
0000
0008
0010
0020
0040
0080
0100
0200
0400
0800
1000
2000
7ffe
0000
0000
0000
ENDCHAR
STARTCHAR J2151
ENCODING 8529
SWIDTH 960 0
DWIDTH 16 0
BBX 16 16 0 -2
BITMAP
0000
0100
0100
0100
0100
0100
0100
0100
0100
0100
0100
0100
7ffc
0000
0000
0000
ENDCHAR
STARTCHAR J2152
ENCODING 8530
SWIDTH 960 0
DWIDTH 16 0
BBX 16 16 0 -2
BITMAP
0000
0000
0000
0000
07e0
1818
2004
4002
0000
0000
0000
0000
0000
0000
0000
0000
ENDCHAR
STARTCHAR J2153
ENCODING 8531
SWIDTH 960 0
DWIDTH 16 0
BBX 16 16 0 -2
BITMAP
0000
03c0
0420
0810
0010
0010
0390
0460
0820
1020
1040
1040
1080
0f00
0000
0000
ENDCHAR
STARTCHAR J2154
ENCODING 8532
SWIDTH 960 0
DWIDTH 16 0
BBX 16 16 0 -2
BITMAP
0000
7ffc
2008
1010
1010
0820
0820
0440
0440
0280
0280
0100
0100
0000
0000
0000
ENDCHAR
STARTCHAR J2155
ENCODING 8533
SWIDTH 960 0
DWIDTH 16 0
BBX 16 16 0 -2
BITMAP
0000
0000
0000
0000
3ffc
0000
0000
3ffc
0000
0000
3ffc
0000
0000
0000
0000
0000
ENDCHAR
STARTCHAR J2156
ENCODING 8534
SWIDTH 960 0
DWIDTH 16 0
BBX 16 16 0 -2
BITMAP
0000
0800
1c00
0800
0000
3ffc
0000
0000
0000
3ffc
0000
0010
0038
0010
0000
0000
ENDCHAR
STARTCHAR J2157
ENCODING 8535
SWIDTH 960 0
DWIDTH 16 0
BBX 16 16 0 -2
BITMAP
0000
07c0
0860
0860
0800
0600
05c0
0820
0820
0420
03c0
0020
0c20
0c20
07c0
0000
ENDCHAR
STARTCHAR J2158
ENCODING 8536
SWIDTH 960 0
DWIDTH 16 0
BBX 16 16 0 -2
BITMAP
0000
0100
2388
1110
0820
0440
2284
718e
2284
0440
0820
1110
2388
0100
0000
0000
ENDCHAR
STARTCHAR J2159
ENCODING 8537
SWIDTH 960 0
DWIDTH 16 0
BBX 16 16 0 -2
BITMAP
0000
0000
0100
0100
0280
0440
787c
2008
1830
0820
1120
1690
1830
2010
0000
0000
ENDCHAR
STARTCHAR J215a
ENCODING 8538
SWIDTH 960 0
DWIDTH 16 0
BBX 16 16 0 -2
BITMAP
0000
0000
0100
0180
0380
03c0
7ffe
1ff8
07e0
07e0
0e70
0c30
1008
0000
0000
0000
ENDCHAR
STARTCHAR J215b
ENCODING 8539
SWIDTH 960 0
DWIDTH 16 0
BBX 16 16 0 -2
BITMAP
0000
03c0
0c30
1008
2004
4002
4002
4002
4002
2004
1008
0c30
03c0
0000
0000
0000
ENDCHAR
STARTCHAR J215c
ENCODING 8540
SWIDTH 960 0
DWIDTH 16 0
BBX 16 16 0 -2
BITMAP
0000
03c0
0ff0
1ff8
3ffc
7ffe
7ffe
7ffe
7ffe
3ffc
1ff8
0ff0
03c0
0000
0000
0000
ENDCHAR
STARTCHAR J215d
ENCODING 8541
SWIDTH 960 0
DWIDTH 16 0
BBX 16 16 0 -2
BITMAP
0000
03c0
0c30
1008
2004
43c2
4422
4422
43c2
2004
1008
0c30
03c0
0000
0000
0000
ENDCHAR
STARTCHAR J215e
ENCODING 8542
SWIDTH 960 0
DWIDTH 16 0
BBX 16 16 0 -2
BITMAP
0000
0100
0280
0440
0820
1010
2008
4004
2008
1010
0820
0440
0280
0100
0000
0000
ENDCHAR
STARTCHAR J215f
ENCODING 8543
SWIDTH 960 0
DWIDTH 16 0
BBX 16 16 0 -2
BITMAP
0000
0100
0380
07c0
0fe0
1ff0
3ff8
7ffc
3ff8
1ff0
0fe0
07c0
0380
0100
0000
0000
ENDCHAR
STARTCHAR J2160
ENCODING 8544
SWIDTH 960 0
DWIDTH 16 0
BBX 16 16 0 -2
BITMAP
0000
0000
3ff8
2008
2008
2008
2008
2008
2008
2008
2008
2008
3ff8
0000
0000
0000
ENDCHAR
STARTCHAR J2161
ENCODING 8545
SWIDTH 960 0
DWIDTH 16 0
BBX 16 16 0 -2
BITMAP
0000
0000
3ff8
3ff8
3ff8
3ff8
3ff8
3ff8
3ff8
3ff8
3ff8
3ff8
3ff8
0000
0000
0000
ENDCHAR
STARTCHAR J2162
ENCODING 8546
SWIDTH 960 0
DWIDTH 16 0
BBX 16 16 0 -2
BITMAP
0000
0000
0100
0100
0280
0280
0440
0440
0820
1010
1010
2008
7ffc
0000
0000
0000
ENDCHAR
STARTCHAR J2163
ENCODING 8547
SWIDTH 960 0
DWIDTH 16 0
BBX 16 16 0 -2
BITMAP
0000
0000
0100
0100
0380
0380
07c0
07c0
0fe0
1ff0
1ff0
3ff8
7ffc
0000
0000
0000
ENDCHAR
STARTCHAR J2164
ENCODING 8548
SWIDTH 960 0
DWIDTH 16 0
BBX 16 16 0 -2
BITMAP
0000
0000
7ffc
2008
1010
1010
0820
0820
0440
0440
0280
0280
0100
0000
0000
0000
ENDCHAR
STARTCHAR J2165
ENCODING 8549
SWIDTH 960 0
DWIDTH 16 0
BBX 16 16 0 -2
BITMAP
0000
0000
7ffc
3ff8
1ff0
1ff0
0fe0
0fe0
07c0
07c0
0380
0380
0100
0000
0000
0000
ENDCHAR
STARTCHAR J2166
ENCODING 8550
SWIDTH 960 0
DWIDTH 16 0
BBX 16 16 0 -2
BITMAP
0000
0000
0000
0000
0010
0008
000c
fffe
000c
0008
0010
0000
0000
0000
0000
0000
ENDCHAR
STARTCHAR J2167
ENCODING 8551
SWIDTH 960 0
DWIDTH 16 0
BBX 16 16 0 -2
BITMAP
0000
0000
0000
0000
1000
2000
6000
fffe
6000
2000
1000
0000
0000
0000
0000
0000
ENDCHAR
STARTCHAR J2168
ENCODING 8552
SWIDTH 960 0
DWIDTH 16 0
BBX 16 16 0 -2
BITMAP
0100
0380
07c0
0920
1110
0100
0100
0100
0100
0100
0100
0100
0100
0100
0000
0000
ENDCHAR
STARTCHAR J2169
ENCODING 8553
SWIDTH 960 0
DWIDTH 16 0
BBX 16 16 0 -2
BITMAP
0100
0100
0100
0100
0100
0100
0100
0100
0100
1110
0920
07c0
0380
0100
0000
0000
ENDCHAR
STARTCHAR J216a
ENCODING 8554
SWIDTH 960 0
DWIDTH 16 0
BBX 16 16 0 -2
BITMAP
0000
0000
0000
0000
1008
2004
6006
ffff
6006
2004
1008
0000
0000
0000
0000
0000
ENDCHAR
STARTCHAR J216b
ENCODING 8555
SWIDTH 960 0
DWIDTH 16 0
BBX 16 16 0 -2
BITMAP
0000
0000
0000
0000
0000
7ffc
0000
0000
0000
7ffc
0000
0000
0000
0000
0000
0000
ENDCHAR
STARTCHAR J216c
ENCODING 8556
SWIDTH 960 0
DWIDTH 16 0
BBX 16 16 0 -2
BITMAP
0000
0012
0024
0048
0090
0120
0240
0240
0120
0090
0048
0024
0012
0008
0000
0000
ENDCHAR
STARTCHAR J216d
ENCODING 8557
SWIDTH 960 0
DWIDTH 16 0
BBX 16 16 0 -2
BITMAP
0000
4800
2400
1200
0900
0480
0240
0240
0480
0900
1200
2400
4800
1000
0000
0000
ENDCHAR
STARTCHAR J216e
ENCODING 8558
SWIDTH 960 0
DWIDTH 16 0
BBX 16 16 0 -2
BITMAP
0000
00fe
0080
0100
0100
0100
0200
2200
6200
a400
1400
1400
0800
0800
0000
0000
ENDCHAR
STARTCHAR J216f
ENCODING 8559
SWIDTH 960 0
DWIDTH 16 0
BBX 16 16 0 -2
BITMAP
0000
0000
0000
1c70
2088
4104
4104
4104
4104
4104
2208
1c70
0000
0000
0000
0000
ENDCHAR
STARTCHAR J2170
ENCODING 8560
SWIDTH 960 0
DWIDTH 16 0
BBX 16 16 0 -2
BITMAP
0000
0000
0000
1c70
2288
4104
4100
4100
4100
4104
2288
1c70
0000
0000
0000
0000
ENDCHAR
STARTCHAR J2171
ENCODING 8561
SWIDTH 960 0
DWIDTH 16 0
BBX 16 16 0 -2
BITMAP
0000
0000
0000
2008
701c
2008
0000
0000
0000
0000
0100
0380
0100
0000
0000
0000
ENDCHAR
STARTCHAR J2172
ENCODING 8562
SWIDTH 960 0
DWIDTH 16 0
BBX 16 16 0 -2
BITMAP
0000
0180
02c0
0200
0300
0300
0300
0180
0180
0180
0080
0080
0680
0300
0000
0000
ENDCHAR
STARTCHAR J2173
ENCODING 8563
SWIDTH 960 0
DWIDTH 16 0
BBX 16 16 0 -2
BITMAP
0000
0630
0b58
0840
0c60
0c60
0c60
0630
0630
0630
0210
0210
1ad0
0c60
0000
0000
ENDCHAR
STARTCHAR J2174
ENCODING 8564
SWIDTH 960 0
DWIDTH 16 0
BBX 16 16 0 -2
BITMAP
0000
0000
0000
0ffc
1000
2000
2000
3ffc
2000
2000
1000
0ffc
0000
0000
0000
0000
ENDCHAR
STARTCHAR J2175
ENCODING 8565
SWIDTH 960 0
DWIDTH 16 0
BBX 16 16 0 -2
BITMAP
0000
0000
0000
3ff0
0008
0004
0004
3ffc
0004
0004
0008
3ff0
0000
0000
0000
0000
ENDCHAR
STARTCHAR J2176
ENCODING 8566
SWIDTH 960 0
DWIDTH 16 0
BBX 16 16 0 -2
BITMAP
0000
0000
0ffc
1000
2000
2000
2000
2000
1000
0ffc
0000
0000
3ffc
0000
0000
0000
ENDCHAR
STARTCHAR J2177
ENCODING 8567
SWIDTH 960 0
DWIDTH 16 0
BBX 16 16 0 -2
BITMAP
0000
0000
3ff0
0008
0004
0004
0004
0004
0008
3ff0
0000
0000
3ffc
0000
0000
0000
ENDCHAR
STARTCHAR J2178
ENCODING 8568
SWIDTH 960 0
DWIDTH 16 0
BBX 16 16 0 -2
BITMAP
0000
0000
0000
0ffc
1000
2000
2000
2000
2000
2000
1000
0ffc
0000
0000
0000
0000
ENDCHAR
STARTCHAR J2179
ENCODING 8569
SWIDTH 960 0
DWIDTH 16 0
BBX 16 16 0 -2
BITMAP
0000
0000
0000
3ff0
0008
0004
0004
0004
0004
0004
0008
3ff0
0000
0000
0000
0000
ENDCHAR
STARTCHAR J217a
ENCODING 8570
SWIDTH 960 0
DWIDTH 16 0
BBX 16 16 0 -2
BITMAP
0000
1010
1010
1010
1010
1010
1010
1010
1010
1010
1010
1010
0820
07c0
0000
0000
ENDCHAR
STARTCHAR J217b
ENCODING 8571
SWIDTH 960 0
DWIDTH 16 0
BBX 16 16 0 -2
BITMAP
0000
07c0
0820
1010
1010
1010
1010
1010
1010
1010
1010
1010
1010
1010
0000
0000
ENDCHAR
STARTCHAR J217c
ENCODING 8572
SWIDTH 960 0
DWIDTH 16 0
BBX 16 16 0 -2
BITMAP
0000
0000
0100
0280
0280
0440
0440
0820
0820
1010
1010
2008
2008
4004
0000
0000
ENDCHAR
STARTCHAR J217d
ENCODING 8573
SWIDTH 960 0
DWIDTH 16 0
BBX 16 16 0 -2
BITMAP
0000
0000
4004
2008
2008
1010
1010
0820
0820
0440
0440
0280
0280
0100
0000
0000
ENDCHAR
STARTCHAR J217e
ENCODING 8574
SWIDTH 960 0
DWIDTH 16 0
BBX 16 16 0 -2
BITMAP
0000
0000
0000
0000
0000
3ffc
0004
0004
0004
0004
0000
0000
0000
0000
0000
0000
ENDCHAR
STARTCHAR J2221
ENCODING 8737
SWIDTH 960 0
DWIDTH 16 0
BBX 16 16 0 -2
BITMAP
0000
0000
0000
0020
0010
7ff8
0004
0002
0004
7ff8
0010
0020
0000
0000
0000
0000
ENDCHAR
STARTCHAR J2222
ENCODING 8738
SWIDTH 960 0
DWIDTH 16 0
BBX 16 16 0 -2
BITMAP
0000
0000
0000
0810
1008
3ffc
4002
8001
4002
3ffc
1008
0810
0000
0000
0000
0000
ENDCHAR
STARTCHAR J2223
ENCODING 8739
SWIDTH 960 0
DWIDTH 16 0
BBX 16 16 0 -2
BITMAP
0000
0000
4004
2008
2008
1ff0
1010
0820
0820
0440
0440
0280
0280
0100
0000
0000
ENDCHAR
STARTCHAR J2224
ENCODING 8740
SWIDTH 960 0
DWIDTH 16 0
BBX 16 16 0 -2
BITMAP
0000
0000
1ff0
0010
0010
0010
0010
1ff0
0010
0010
0010
0010
0010
1ff0
0000
0000
ENDCHAR
STARTCHAR J2225
ENCODING 8741
SWIDTH 960 0
DWIDTH 16 0
BBX 16 16 0 -2
BITMAP
0000
0180
0180
0100
0200
0000
0000
0000
0000
0000
0000
0000
0000
0000
0000
0000
ENDCHAR
STARTCHAR J2226
ENCODING 8742
SWIDTH 960 0
DWIDTH 16 0
BBX 16 16 0 -2
BITMAP
0000
0730
18c0
0000
0000
0000
0000
0000
0000
0000
0000
0000
0000
0000
0000
0000
ENDCHAR
STARTCHAR J2227
ENCODING 8743
SWIDTH 960 0
DWIDTH 16 0
BBX 16 16 0 -2
BITMAP
0000
0440
0280
0100
0000
0000
0000
0000
0000
0000
0000
0000
0000
0000
0000
0000
ENDCHAR
STARTCHAR J2228
ENCODING 8744
SWIDTH 960 0
DWIDTH 16 0
BBX 16 16 0 -2
BITMAP
0000
0820
0440
0380
0000
0000
0000
0000
0000
0000
0000
0000
0000
0000
0000
0000
ENDCHAR
STARTCHAR J2229
ENCODING 8745
SWIDTH 960 0
DWIDTH 16 0
BBX 16 16 0 -2
BITMAP
0000
0360
0360
0240
0480
0000
0000
0000
0000
0000
0000
0000
0000
0000
0000
0000
ENDCHAR
STARTCHAR J222a
ENCODING 8746
SWIDTH 960 0
DWIDTH 16 0
BBX 16 16 0 -2
BITMAP
0000
0180
0240
0180
0000
0000
0000
0000
0000
0000
0000
0000
0000
0000
0000
0000
ENDCHAR
STARTCHAR J222b
ENCODING 8747
SWIDTH 960 0
DWIDTH 16 0
BBX 16 16 0 -2
BITMAP
0000
0180
03c0
0180
0000
0000
0000
0000
0000
0000
0000
0000
0000
0000
0000
0000
ENDCHAR
STARTCHAR J222c
ENCODING 8748
SWIDTH 960 0
DWIDTH 16 0
BBX 16 16 0 -2
BITMAP
0000
0000
0000
0000
0000
0000
0000
0000
0000
0000
0200
0100
0080
0100
0200
0000
ENDCHAR
STARTCHAR J222d
ENCODING 8749
SWIDTH 960 0
DWIDTH 16 0
BBX 16 16 0 -2
BITMAP
0000
0000
0000
0000
0000
0000
0000
0000
0000
0000
0080
0100
0200
0100
0080
0000
ENDCHAR
STARTCHAR J222e
ENCODING 8750
SWIDTH 960 0
DWIDTH 16 0
BBX 16 16 0 -2
BITMAP
0000
0180
03c0
0180
0000
0180
0180
0180
0180
03c0
03c0
03c0
03c0
0180
0000
0000
ENDCHAR
STARTCHAR J222f
ENCODING 8751
SWIDTH 960 0
DWIDTH 16 0
BBX 16 16 0 -2
BITMAP
0000
0080
01c0
0080
0000
0080
0080
0100
0200
0600
0c00
0c30
0c30
07e0
0000
0000
ENDCHAR
STARTCHAR J2230
ENCODING 8752
SWIDTH 960 0
DWIDTH 16 0
BBX 16 16 0 -2
BITMAP
0000
0000
0000
0380
0100
0000
0000
0000
0000
0000
0100
0380
0000
0000
0000
0000
ENDCHAR
STARTCHAR J2231
ENCODING 8753
SWIDTH 960 0
DWIDTH 16 0
BBX 16 16 0 -2
BITMAP
0000
00c0
0160
0100
0100
03c0
0520
0520
03c0
0080
0040
0040
0340
0180
0000
0000
ENDCHAR
STARTCHAR J2232
ENCODING 8754
SWIDTH 960 0
DWIDTH 16 0
BBX 16 16 0 -2
BITMAP
0000
0000
3ff0
1008
0804
0400
0200
0100
0200
0400
0804
1008
3ff0
0000
0000
0000
ENDCHAR
STARTCHAR J2233
ENCODING 8755
SWIDTH 960 0
DWIDTH 16 0
BBX 16 16 0 -2
BITMAP
0000
0000
7ffc
0820
0820
0820
0820
0820
0820
0820
0820
0820
0820
0000
0000
0000
ENDCHAR
STARTCHAR J2234
ENCODING 8756
SWIDTH 960 0
DWIDTH 16 0
BBX 16 16 0 -2
BITMAP
0000
0000
2004
17e8
0810
1008
1008
1008
1008
1008
0810
17e8
2004
0000
0000
0000
ENDCHAR
STARTCHAR J2235
ENCODING 8757
SWIDTH 960 0
DWIDTH 16 0
BBX 16 16 0 -2
BITMAP
0000
6000
9ffc
6302
0300
0310
0310
03f8
0308
0300
0300
0300
0300
0fc0
0000
0000
ENDCHAR
STARTCHAR J2236
ENCODING 8758
SWIDTH 960 0
DWIDTH 16 0
BBX 16 16 0 -2
BITMAP
0020
1840
2480
4480
4900
3200
0200
0400
0800
130e
1492
28a2
4924
8618
0000
0000
ENDCHAR
STARTCHAR J2237
ENCODING 8759
SWIDTH 960 0
DWIDTH 16 0
BBX 16 16 0 -2
BITMAP
0000
0004
001c
0064
0184
0604
1804
6004
1804
0604
0184
0064
001c
0004
0000
0000
ENDCHAR
STARTCHAR J2238
ENCODING 8760
SWIDTH 960 0
DWIDTH 16 0
BBX 16 16 0 -2
BITMAP
0000
0004
001c
007c
01fc
07fc
1ffc
7ffc
1ffc
07fc
01fc
007c
001c
0004
0000
0000
ENDCHAR
STARTCHAR J2239
ENCODING 8761
SWIDTH 960 0
DWIDTH 16 0
BBX 16 16 0 -2
BITMAP
0000
4000
7000
4c00
4300
40c0
4030
400c
4030
40c0
4300
4c00
7000
4000
0000
0000
ENDCHAR
STARTCHAR J223a
ENCODING 8762
SWIDTH 960 0
DWIDTH 16 0
BBX 16 16 0 -2
BITMAP
0000
4000
7000
7c00
7f00
7fc0
7ff0
7ffc
7ff0
7fc0
7f00
7c00
7000
4000
0000
0000
ENDCHAR
STARTCHAR J223b
ENCODING 8763
SWIDTH 960 0
DWIDTH 16 0
BBX 16 16 0 -2
BITMAP
0100
0280
0440
0820
1010
2008
4004
4004
8102
8382
8542
793c
0100
0100
0000
0000
ENDCHAR
STARTCHAR J223c
ENCODING 8764
SWIDTH 960 0
DWIDTH 16 0
BBX 16 16 0 -2
BITMAP
0100
0380
07c0
0fe0
1ff0
3ff8
7ffc
7ffc
fffe
fffe
fd7e
793c
0100
0100
0000
0000
ENDCHAR
STARTCHAR J223d
ENCODING 8765
SWIDTH 960 0
DWIDTH 16 0
BBX 16 16 0 -2
BITMAP
0000
3c78
4284
8102
8002
8002
8002
4004
2008
1010
0820
0440
0280
0100
0000
0000
ENDCHAR
STARTCHAR J223e
ENCODING 8766
SWIDTH 960 0
DWIDTH 16 0
BBX 16 16 0 -2
BITMAP
0000
3c78
7efc
fffe
fffe
fffe
fffe
7ffc
3ff8
1ff0
0fe0
07c0
0380
0100
0000
0000
ENDCHAR
STARTCHAR J223f
ENCODING 8767
SWIDTH 960 0
DWIDTH 16 0
BBX 16 16 0 -2
BITMAP
0000
07c0
0820
0820
0820
0440
729c
8c62
8282
8542
8922
711c
0100
0100
0100
0000
ENDCHAR
STARTCHAR J2240
ENCODING 8768
SWIDTH 960 0
DWIDTH 16 0
BBX 16 16 0 -2
BITMAP
0000
07c0
0fe0
0fe0
0fe0
07c0
739c
fdbe
fffe
fd7e
f93e
711c
0100
0100
0100
0000
ENDCHAR
STARTCHAR J2241
ENCODING 8769
SWIDTH 960 0
DWIDTH 16 0
BBX 16 16 0 -2
BITMAP
0000
03c0
0c30
1008
2004
4182
43c2
43c2
4182
2004
1008
0c30
03c0
0000
0000
0000
ENDCHAR
STARTCHAR J2242
ENCODING 8770
SWIDTH 960 0
DWIDTH 16 0
BBX 16 16 0 -2
BITMAP
0000
0100
0280
0440
0920
1390
27c8
4fe4
27c8
1390
0920
0440
0280
0100
0000
0000
ENDCHAR
STARTCHAR J2243
ENCODING 8771
SWIDTH 960 0
DWIDTH 16 0
BBX 16 16 0 -2
BITMAP
0000
0000
3ff8
2008
2008
27c8
27c8
27c8
27c8
27c8
2008
2008
3ff8
0000
0000
0000
ENDCHAR
STARTCHAR J2244
ENCODING 8772
SWIDTH 960 0
DWIDTH 16 0
BBX 16 16 0 -2
BITMAP
0000
03c0
0f30
1f08
3f04
7f02
7f02
7f02
7f02
3f04
1f08
0f30
03c0
0000
0000
0000
ENDCHAR
STARTCHAR J2245
ENCODING 8773
SWIDTH 960 0
DWIDTH 16 0
BBX 16 16 0 -2
BITMAP
0000
03c0
0cf0
10f8
20fc
40fe
40fe
40fe
40fe
20fc
10f8
0cf0
03c0
0000
0000
0000
ENDCHAR
STARTCHAR J2246
ENCODING 8774
SWIDTH 960 0
DWIDTH 16 0
BBX 16 16 0 -2
BITMAP
0000
0000
3ff8
35a8
2008
2aa8
2008
32a8
2008
2aa8
3048
2528
3ff8
0000
0000
0000
ENDCHAR
STARTCHAR J2247
ENCODING 8775
SWIDTH 960 0
DWIDTH 16 0
BBX 16 16 0 -2
BITMAP
0000
0000
3ff8
2008
3ff8
2008
3ff8
2008
3ff8
2008
3ff8
2008
3ff8
0000
0000
0000
ENDCHAR
STARTCHAR J2248
ENCODING 8776
SWIDTH 960 0
DWIDTH 16 0
BBX 16 16 0 -2
BITMAP
0000
0000
3ff8
2aa8
2aa8
2aa8
2aa8
2aa8
2aa8
2aa8
2aa8
2aa8
3ff8
0000
0000
0000
ENDCHAR
STARTCHAR J2249
ENCODING 8777
SWIDTH 960 0
DWIDTH 16 0
BBX 16 16 0 -2
BITMAP
0000
0000
3ff8
2218
2428
2848
3088
2108
2218
2428
2848
3088
3ff8
0000
0000
0000
ENDCHAR
STARTCHAR J224a
ENCODING 8778
SWIDTH 960 0
DWIDTH 16 0
BBX 16 16 0 -2
BITMAP
0000
0000
3ff8
3088
2848
2428
2218
2108
3088
2848
2428
2218
3ff8
0000
0000
0000
ENDCHAR
STARTCHAR J224b
ENCODING 8779
SWIDTH 960 0
DWIDTH 16 0
BBX 16 16 0 -2
BITMAP
0000
0000
3ff8
2aa8
3ff8
2aa8
3ff8
2aa8
3ff8
2aa8
3ff8
2aa8
3ff8
0000
0000
0000
ENDCHAR
STARTCHAR J224c
ENCODING 8780
SWIDTH 960 0
DWIDTH 16 0
BBX 16 16 0 -2
BITMAP
0000
0000
3ff8
3298
2c68
2c68
3298
2108
3298
2c68
2c68
3298
3ff8
0000
0000
0000
ENDCHAR
STARTCHAR J224d
ENCODING 8781
SWIDTH 960 0
DWIDTH 16 0
BBX 16 16 0 -2
BITMAP
0000
0000
0920
1120
1240
1240
1240
0920
2928
4924
4924
5244
3ff8
0000
0000
0000
ENDCHAR
STARTCHAR J224e
ENCODING 8782
SWIDTH 960 0
DWIDTH 16 0
BBX 16 16 0 -2
BITMAP
0000
0000
7ffe
8ff1
9249
67e6
0420
1bd8
2184
43c2
4182
7ffe
0000
0000
0000
0000
ENDCHAR
STARTCHAR J224f
ENCODING 8783
SWIDTH 960 0
DWIDTH 16 0
BBX 16 16 0 -2
BITMAP
0000
0000
3ffc
ffff
f24f
6246
07e0
1ff8
3e7c
7c3e
7e7e
7ffe
7ffe
0000
0000
0000
ENDCHAR
STARTCHAR J2250
ENCODING 8784
SWIDTH 960 0
DWIDTH 16 0
BBX 16 16 0 -2
BITMAP
0000
000e
000a
7ffa
800a
7e0a
100a
0f0a
080a
070a
020a
01fa
000a
000e
0000
0000
ENDCHAR
STARTCHAR J2251
ENCODING 8785
SWIDTH 960 0
DWIDTH 16 0
BBX 16 16 0 -2
BITMAP
0000
e000
a000
bffc
a002
a3fc
a020
a3c0
a040
a380
a080
bf00
a000
e000
0000
0000
ENDCHAR
STARTCHAR J2252
ENCODING 8786
SWIDTH 960 0
DWIDTH 16 0
BBX 16 16 0 -2
BITMAP
0000
3fe4
4024
4024
4024
4024
4024
3fe4
0024
0024
0024
0024
0024
0024
0000
0000
ENDCHAR
STARTCHAR J2253
ENCODING 8787
SWIDTH 960 0
DWIDTH 16 0
BBX 16 16 0 -2
BITMAP
0000
0100
0100
0100
0100
7ffc
0100
0100
0100
0100
0100
0100
0100
0100
0000
0000
ENDCHAR
STARTCHAR J2254
ENCODING 8788
SWIDTH 960 0
DWIDTH 16 0
BBX 16 16 0 -2
BITMAP
0000
0100
0100
7ffc
0100
0100
7ffc
0100
0100
0100
0100
0100
0100
0100
0000
0000
ENDCHAR
STARTCHAR J2255
ENCODING 8789
SWIDTH 960 0
DWIDTH 16 0
BBX 16 16 0 -2
BITMAP
0100
0380
07c0
0920
1110
0100
0100
0100
0100
0100
1110
0920
07c0
0380
0100
0000
ENDCHAR
STARTCHAR J2256
ENCODING 8790
SWIDTH 960 0
DWIDTH 16 0
BBX 16 16 0 -2
BITMAP
0000
007e
000e
000e
0012
0022
0040
0080
0100
0200
0400
0800
1000
2000
0000
0000
ENDCHAR
STARTCHAR J2257
ENCODING 8791
SWIDTH 960 0
DWIDTH 16 0
BBX 16 16 0 -2
BITMAP
0000
0004
0008
0010
0020
0040
0080
0100
4200
4400
4800
7000
7000
7e00
0000
0000
ENDCHAR
STARTCHAR J2258
ENCODING 8792
SWIDTH 960 0
DWIDTH 16 0
BBX 16 16 0 -2
BITMAP
0000
7e00
7000
7000
4800
4400
4200
0100
0080
0040
0020
0010
0008
0004
0000
0000
ENDCHAR
STARTCHAR J2259
ENCODING 8793
SWIDTH 960 0
DWIDTH 16 0
BBX 16 16 0 -2
BITMAP
0000
4000
2000
1000
0800
0400
0200
0100
0084
0044
0024
001c
001c
00fc
0000
0000
ENDCHAR
STARTCHAR J225a
ENCODING 8794
SWIDTH 960 0
DWIDTH 16 0
BBX 16 16 0 -2
BITMAP
0000
0400
0400
0400
0400
0400
0400
05c0
0620
0420
0420
0440
0480
0700
0000
0000
ENDCHAR
STARTCHAR J225b
ENCODING 8795
SWIDTH 960 0
DWIDTH 16 0
BBX 16 16 0 -2
BITMAP
0000
0040
0040
0040
0040
0040
0040
0040
0040
0040
00c0
03c0
07c0
0780
0000
0000
ENDCHAR
STARTCHAR J225c
ENCODING 8796
SWIDTH 960 0
DWIDTH 16 0
BBX 16 16 0 -2
BITMAP
0000
0180
0140
0120
0110
0108
0108
0108
0110
0160
0300
0f00
1f00
1e00
0000
0000
ENDCHAR
STARTCHAR J225d
ENCODING 8797
SWIDTH 960 0
DWIDTH 16 0
BBX 16 16 0 -2
BITMAP
0000
07fe
0402
0402
07fe
0402
0402
0402
0402
0402
0c06
3c1e
7c3e
783c
0000
0000
ENDCHAR
STARTCHAR J225e
ENCODING 8798
SWIDTH 960 0
DWIDTH 16 0
BBX 16 16 0 -2
BITMAP
0000
0ff8
1004
2f7a
4621
4640
7687
0701
0681
4641
4621
2f7a
1004
0ff8
0000
0000
ENDCHAR
STARTCHAR J225f
ENCODING 8799
SWIDTH 960 0
DWIDTH 16 0
BBX 16 16 0 -2
BITMAP
0000
3018
4004
9ff2
8102
8282
8c62
b01a
8002
fffa
8102
8102
8102
4104
3118
0000
ENDCHAR
STARTCHAR J2260
ENCODING 8800
SWIDTH 960 0
DWIDTH 16 0
BBX 16 16 0 -2
BITMAP
0000
6380
2100
3100
3100
3900
293c
2d42
2542
2742
2342
2342
2142
713d
0000
0000
ENDCHAR
STARTCHAR J2261
ENCODING 8801
SWIDTH 960 0
DWIDTH 16 0
BBX 16 16 0 -2
BITMAP
0000
1d00
2300
4080
4000
4000
403c
4042
4042
4042
4042
40c2
2142
1e3d
0000
0000
ENDCHAR
STARTCHAR J2262
ENCODING 8802
SWIDTH 960 0
DWIDTH 16 0
BBX 16 16 0 -2
BITMAP
0000
ff83
9282
92c6
10c6
10c6
10ee
10aa
10aa
10ba
1092
1082
1082
39c7
0000
0000
ENDCHAR
STARTCHAR J2263
ENCODING 8803
SWIDTH 960 0
DWIDTH 16 0
BBX 16 16 0 -2
BITMAP
0000
0000
0000
0000
0000
0000
38ec
c9b4
08a4
78a4
88a4
88a4
88a4
7ab5
0000
0000
ENDCHAR
STARTCHAR J2264
ENCODING 8804
SWIDTH 960 0
DWIDTH 16 0
BBX 16 16 0 -2
BITMAP
0000
0000
0000
0000
0000
0000
58ec
e5b4
44a4
44a4
44a4
78a4
40a4
e5ad
0000
0000
ENDCHAR
STARTCHAR J2265
ENCODING 8805
SWIDTH 960 0
DWIDTH 16 0
BBX 16 16 0 -2
BITMAP
0000
fe02
9206
1002
1002
1002
11e2
1212
1212
13f2
1202
1202
1212
39e7
0000
0000
ENDCHAR
STARTCHAR J2321
ENCODING 8993
SWIDTH 960 0
DWIDTH 16 0
BBX 16 16 0 -2
BITMAP
0000
0100
0380
0380
0380
0380
0100
0100
0100
0000
0000
0100
0380
0100
0000
0000
ENDCHAR
STARTCHAR J2322
ENCODING 8994
SWIDTH 960 0
DWIDTH 16 0
BBX 16 16 0 -2
BITMAP
0000
0360
0360
0240
0240
0480
0000
0000
0000
0000
0000
0000
0000
0000
0000
0000
ENDCHAR
STARTCHAR J2323
ENCODING 8995
SWIDTH 960 0
DWIDTH 16 0
BBX 16 16 0 -2
BITMAP
0000
0440
0440
0478
07c0
3c40
0440
0440
0478
07c0
3c40
0440
0440
0440
0000
0000
ENDCHAR
STARTCHAR J2324
ENCODING 8996
SWIDTH 960 0
DWIDTH 16 0
BBX 16 16 0 -2
BITMAP
0240
0fd0
1270
1248
1240
0a40
0740
02c0
0260
0250
1250
1250
1a50
17e0
0240
0000
ENDCHAR
STARTCHAR J2325
ENCODING 8997
SWIDTH 960 0
DWIDTH 16 0
BBX 16 16 0 -2
BITMAP
0008
3810
4420
4420
4440
4480
3880
0100
011c
0222
0422
0822
0822
101c
2000
0000
ENDCHAR
STARTCHAR J2326
ENCODING 8998
SWIDTH 960 0
DWIDTH 16 0
BBX 16 16 0 -2
BITMAP
0000
0380
0440
0440
0440
0480
0300
0e1c
1108
2108
4090
4050
40e0
3f1e
0000
0000
ENDCHAR
STARTCHAR J2327
ENCODING 8999
SWIDTH 960 0
DWIDTH 16 0
BBX 16 16 0 -2
BITMAP
0000
0180
0180
0100
0100
0200
0000
0000
0000
0000
0000
0000
0000
0000
0000
0000
ENDCHAR
STARTCHAR J2328
ENCODING 9000
SWIDTH 960 0
DWIDTH 16 0
BBX 16 16 0 -2
BITMAP
0006
0008
0010
0010
0010
0010
0010
0010
0010
0010
0010
0010
0010
0010
0008
0006
ENDCHAR
STARTCHAR J2329
ENCODING 9001
SWIDTH 960 0
DWIDTH 16 0
BBX 16 16 0 -2
BITMAP
6000
1000
0800
0800
0800
0800
0800
0800
0800
0800
0800
0800
0800
0800
1000
6000
ENDCHAR
STARTCHAR J232a
ENCODING 9002
SWIDTH 960 0
DWIDTH 16 0
BBX 16 16 0 -2
BITMAP
0000
0100
0380
0106
610e
7930
0740
0180
0340
0d38
710e
6106
0380
0100
0000
0000
ENDCHAR
STARTCHAR J232b
ENCODING 9003
SWIDTH 960 0
DWIDTH 16 0
BBX 16 16 0 -2
BITMAP
0000
0100
0100
0100
0100
0100
0100
7ffc
0100
0100
0100
0100
0100
0100
0000
0000
ENDCHAR
STARTCHAR J232c
ENCODING 9004
SWIDTH 960 0
DWIDTH 16 0
BBX 16 16 0 -2
BITMAP
0000
0000
0000
0000
0000
0000
0000
0000
0000
0000
0000
6000
6000
2000
2000
4000
ENDCHAR
STARTCHAR J232d
ENCODING 9005
SWIDTH 960 0
DWIDTH 16 0
BBX 16 16 0 -2
BITMAP
0000
0000
0000
0000
0000
0000
0000
7ffc
0000
0000
0000
0000
0000
0000
0000
0000
ENDCHAR
STARTCHAR J232e
ENCODING 9006
SWIDTH 960 0
DWIDTH 16 0
BBX 16 16 0 -2
BITMAP
0000
0000
0000
0000
0000
0000
0000
0000
0000
0000
0000
2000
7000
2000
0000
0000
ENDCHAR
STARTCHAR J232f
ENCODING 9007
SWIDTH 960 0
DWIDTH 16 0
BBX 16 16 0 -2
BITMAP
0001
0002
0004
0008
0010
0020
0040
0080
0100
0200
0400
0800
1000
2000
4000
8000
ENDCHAR
STARTCHAR J2330
ENCODING 9008
SWIDTH 960 0
DWIDTH 16 0
BBX 16 16 0 -2
BITMAP
0000
03c0
0420
0810
0810
1818
1008
1008
1008
1008
1818
0810
0810
0420
03c0
0000
ENDCHAR
STARTCHAR J2331
ENCODING 9009
SWIDTH 960 0
DWIDTH 16 0
BBX 16 16 0 -2
BITMAP
0000
0100
0300
0500
0900
0100
0100
0100
0100
0100
0100
0100
0100
0100
07c0
0000
ENDCHAR
STARTCHAR J2332
ENCODING 9010
SWIDTH 960 0
DWIDTH 16 0
BBX 16 16 0 -2
BITMAP
0000
07e0
0c10
1808
1008
0008
0018
0030
0060
00c0
0180
0300
0600
0c00
1ff8
0000
ENDCHAR
STARTCHAR J2333
ENCODING 9011
SWIDTH 960 0
DWIDTH 16 0
BBX 16 16 0 -2
BITMAP
0000
03e0
0e10
1808
0008
0008
0010
07e0
0010
0008
0008
0008
0018
0070
1fc0
0000
ENDCHAR
STARTCHAR J2334
ENCODING 9012
SWIDTH 960 0
DWIDTH 16 0
BBX 16 16 0 -2
BITMAP
0000
0060
00e0
01a0
0320
0620
0c20
1820
3020
2020
3ffc
0020
0020
0020
00f8
0000
ENDCHAR
STARTCHAR J2335
ENCODING 9013
SWIDTH 960 0
DWIDTH 16 0
BBX 16 16 0 -2
BITMAP
0000
1ff8
1000
1000
1000
1000
17e0
1810
1008
0008
0008
0018
0030
00e0
1f80
0000
ENDCHAR
STARTCHAR J2336
ENCODING 9014
SWIDTH 960 0
DWIDTH 16 0
BBX 16 16 0 -2
BITMAP
0000
00f0
0380
0600
0c00
0800
1bc0
1430
1818
1008
1008
1808
0818
0c30
03c0
0000
ENDCHAR
STARTCHAR J2337
ENCODING 9015
SWIDTH 960 0
DWIDTH 16 0
BBX 16 16 0 -2
BITMAP
0000
1ffc
1008
1018
1010
0030
0020
0060
0040
00c0
0080
0080
0180
0100
0100
0000
ENDCHAR
STARTCHAR J2338
ENCODING 9016
SWIDTH 960 0
DWIDTH 16 0
BBX 16 16 0 -2
BITMAP
0000
03c0
0c30
1818
1008
1008
0810
07e0
0810
1008
1008
1008
1818
0c30
03c0
0000
ENDCHAR
STARTCHAR J2339
ENCODING 9017
SWIDTH 960 0
DWIDTH 16 0
BBX 16 16 0 -2
BITMAP
0000
03c0
0c30
1810
1018
1008
1008
1818
0c28
03d8
0010
0030
0060
01c0
0f00
0000
ENDCHAR
STARTCHAR J233a
ENCODING 9018
SWIDTH 960 0
DWIDTH 16 0
BBX 16 16 0 -2
BITMAP
0000
0000
0000
0100
0380
0100
0000
0000
0000
0000
0100
0380
0100
0000
0000
0000
ENDCHAR
STARTCHAR J233b
ENCODING 9019
SWIDTH 960 0
DWIDTH 16 0
BBX 16 16 0 -2
BITMAP
0000
0000
0000
0080
01c0
0080
0000
0000
0000
0000
0180
0180
0080
0080
0100
0000
ENDCHAR
STARTCHAR J233c
ENCODING 9020
SWIDTH 960 0
DWIDTH 16 0
BBX 16 16 0 -2
BITMAP
0000
0006
0018
0060
0180
0600
1800
6000
1800
0600
0180
0060
0018
0006
0000
0000
ENDCHAR
STARTCHAR J233d
ENCODING 9021
SWIDTH 960 0
DWIDTH 16 0
BBX 16 16 0 -2
BITMAP
0000
0000
0000
0000
0000
3ffc
0000
0000
0000
3ffc
0000
0000
0000
0000
0000
0000
ENDCHAR
STARTCHAR J233e
ENCODING 9022
SWIDTH 960 0
DWIDTH 16 0
BBX 16 16 0 -2
BITMAP
0000
6000
1800
0600
0180
0060
0018
0006
0018
0060
0180
0600
1800
6000
0000
0000
ENDCHAR
STARTCHAR J233f
ENCODING 9023
SWIDTH 960 0
DWIDTH 16 0
BBX 16 16 0 -2
BITMAP
0000
07c0
0860
1c30
0830
0030
0060
0040
0080
0100
0100
0100
0380
0100
0000
0000
ENDCHAR
STARTCHAR J2340
ENCODING 9024
SWIDTH 960 0
DWIDTH 16 0
BBX 16 16 0 -2
BITMAP
0000
07c0
1830
2008
43c4
4444
4844
4844
4844
48c8
4772
2004
1818
07e0
0000
0000
ENDCHAR
STARTCHAR J2341
ENCODING 9025
SWIDTH 960 0
DWIDTH 16 0
BBX 16 16 0 -2
BITMAP
0000
0100
0280
0280
0440
0440
0820
0820
0820
1ff0
1010
2008
2008
f83e
0000
0000
ENDCHAR
STARTCHAR J2342
ENCODING 9026
SWIDTH 960 0
DWIDTH 16 0
BBX 16 16 0 -2
BITMAP
0000
7fc0
1020
1010
1010
1010
1020
1fc0
1030
1008
1008
1008
1010
7fe0
0000
0000
ENDCHAR
STARTCHAR J2343
ENCODING 9027
SWIDTH 960 0
DWIDTH 16 0
BBX 16 16 0 -2
BITMAP
0000
03c8
0c38
1008
1000
2000
2000
2000
2000
2000
1004
1008
0c30
03c0
0000
0000
ENDCHAR
STARTCHAR J2344
ENCODING 9028
SWIDTH 960 0
DWIDTH 16 0
BBX 16 16 0 -2
BITMAP
0000
7fc0
1030
1008
1008
1004
1004
1004
1004
1004
1004
1008
1030
7fc0
0000
0000
ENDCHAR
STARTCHAR J2345
ENCODING 9029
SWIDTH 960 0
DWIDTH 16 0
BBX 16 16 0 -2
BITMAP
0000
7ff8
1008
1008
1008
1040
1040
1fc0
1040
1040
1008
1008
1008
7ff8
0000
0000
ENDCHAR
STARTCHAR J2346
ENCODING 9030
SWIDTH 960 0
DWIDTH 16 0
BBX 16 16 0 -2
BITMAP
0000
3ff8
0808
0808
0808
0840
0840
0fc0
0840
0840
0800
0800
0800
3f00
0000
0000
ENDCHAR
STARTCHAR J2347
ENCODING 9031
SWIDTH 960 0
DWIDTH 16 0
BBX 16 16 0 -2
BITMAP
0000
03c8
0c38
1008
2000
2000
4000
407e
4008
2008
2008
1008
0c38
03c8
0000
0000
ENDCHAR
STARTCHAR J2348
ENCODING 9032
SWIDTH 960 0
DWIDTH 16 0
BBX 16 16 0 -2
BITMAP
0000
7c7c
1010
1010
1010
1010
1010
1ff0
1010
1010
1010
1010
1010
7c7c
0000
0000
ENDCHAR
STARTCHAR J2349
ENCODING 9033
SWIDTH 960 0
DWIDTH 16 0
BBX 16 16 0 -2
BITMAP
0000
0fe0
0100
0100
0100
0100
0100
0100
0100
0100
0100
0100
0100
0fe0
0000
0000
ENDCHAR
STARTCHAR J234a
ENCODING 9034
SWIDTH 960 0
DWIDTH 16 0
BBX 16 16 0 -2
BITMAP
0000
03fc
0020
0020
0020
0020
0020
0020
0020
1820
1020
1020
0840
0780
0000
0000
ENDCHAR
STARTCHAR J234b
ENCODING 9035
SWIDTH 960 0
DWIDTH 16 0
BBX 16 16 0 -2
BITMAP
0000
7cf8
1020
1040
1180
1200
1500
1880
1080
1040
1040
1020
1010
7e7c
0000
0000
ENDCHAR
STARTCHAR J234c
ENCODING 9036
SWIDTH 960 0
DWIDTH 16 0
BBX 16 16 0 -2
BITMAP
0000
7e00
1000
1000
1000
1000
1000
1000
1000
1008
1008
1008
1008
7ff8
0000
0000
ENDCHAR
STARTCHAR J234d
ENCODING 9037
SWIDTH 960 0
DWIDTH 16 0
BBX 16 16 0 -2
BITMAP
0000
e00e
5014
5014
4824
4824
4444
4444
4284
4284
4104
4104
4004
f01e
0000
0000
ENDCHAR
STARTCHAR J234e
ENCODING 9038
SWIDTH 960 0
DWIDTH 16 0
BBX 16 16 0 -2
BITMAP
0000
787c
1410
1410
1210
1210
1110
1110
1090
1090
1050
1050
1030
7c10
0000
0000
ENDCHAR
STARTCHAR J234f
ENCODING 9039
SWIDTH 960 0
DWIDTH 16 0
BBX 16 16 0 -2
BITMAP
0000
07c0
1830
2008
2008
4004
4004
4004
4004
4004
2008
2008
1830
07c0
0000
0000
ENDCHAR
STARTCHAR J2350
ENCODING 9040
SWIDTH 960 0
DWIDTH 16 0
BBX 16 16 0 -2
BITMAP
0000
3fc0
0830
0808
0808
0808
0808
0830
0fc0
0800
0800
0800
0800
3f00
0000
0000
ENDCHAR
STARTCHAR J2351
ENCODING 9041
SWIDTH 960 0
DWIDTH 16 0
BBX 16 16 0 -2
BITMAP
0000
07c0
1830
2008
2008
4004
4004
4004
4004
4304
2488
2488
1c70
07a2
001c
0000
ENDCHAR
STARTCHAR J2352
ENCODING 9042
SWIDTH 960 0
DWIDTH 16 0
BBX 16 16 0 -2
BITMAP
0000
7fc0
1020
1010
1010
1010
1020
1fc0
1080
1040
1020
1010
1008
7e06
0000
0000
ENDCHAR
STARTCHAR J2353
ENCODING 9043
SWIDTH 960 0
DWIDTH 16 0
BBX 16 16 0 -2
BITMAP
0000
0f90
1070
2010
2000
1000
0e00
01c0
0030
2008
2008
3008
2c10
23e0
0000
0000
ENDCHAR
STARTCHAR J2354
ENCODING 9044
SWIDTH 960 0
DWIDTH 16 0
BBX 16 16 0 -2
BITMAP
0000
7ffc
4104
4104
4104
0100
0100
0100
0100
0100
0100
0100
0100
0fe0
0000
0000
ENDCHAR
STARTCHAR J2355
ENCODING 9045
SWIDTH 960 0
DWIDTH 16 0
BBX 16 16 0 -2
BITMAP
0000
fc7e
2008
2008
2008
2008
2008
2008
2008
2008
2008
2008
1830
07c0
0000
0000
ENDCHAR
STARTCHAR J2356
ENCODING 9046
SWIDTH 960 0
DWIDTH 16 0
BBX 16 16 0 -2
BITMAP
0000
fc7e
2008
1010
1010
1010
0820
0820
0440
0440
0440
0280
0280
0100
0100
0000
ENDCHAR
STARTCHAR J2357
ENCODING 9047
SWIDTH 960 0
DWIDTH 16 0
BBX 16 16 0 -2
BITMAP
0000
f7de
4104
4104
4104
2288
2288
2288
2288
1450
1450
1450
1450
0820
0000
0000
ENDCHAR
STARTCHAR J2358
ENCODING 9048
SWIDTH 960 0
DWIDTH 16 0
BBX 16 16 0 -2
BITMAP
0000
3e78
0820
0440
0440
0280
0100
0280
0280
0440
0820
0820
1010
7c7c
0000
0000
ENDCHAR
STARTCHAR J2359
ENCODING 9049
SWIDTH 960 0
DWIDTH 16 0
BBX 16 16 0 -2
BITMAP
0000
7c7c
1010
1010
0820
0440
0440
0280
0100
0100
0100
0100
0100
0fe0
0000
0000
ENDCHAR
STARTCHAR J235a
ENCODING 9050
SWIDTH 960 0
DWIDTH 16 0
BBX 16 16 0 -2
BITMAP
0000
1ff0
1020
1040
0040
0080
0080
0100
0200
0200
0408
0808
1008
3ff8
0000
0000
ENDCHAR
STARTCHAR J235b
ENCODING 9051
SWIDTH 960 0
DWIDTH 16 0
BBX 16 16 0 -2
BITMAP
001e
0010
0010
0010
0010
0010
0010
0010
0010
0010
0010
0010
0010
0010
0010
001e
ENDCHAR
STARTCHAR J235c
ENCODING 9052
SWIDTH 960 0
DWIDTH 16 0
BBX 16 16 0 -2
BITMAP
0000
f3c7
6182
6184
3184
ffff
30c8
ffff
19c8
1ad0
1ad0
0e70
0c60
0c60
0000
0000
ENDCHAR
STARTCHAR J235d
ENCODING 9053
SWIDTH 960 0
DWIDTH 16 0
BBX 16 16 0 -2
BITMAP
7800
0800
0800
0800
0800
0800
0800
0800
0800
0800
0800
0800
0800
0800
0800
7800
ENDCHAR
STARTCHAR J235e
ENCODING 9054
SWIDTH 960 0
DWIDTH 16 0
BBX 16 16 0 -2
BITMAP
0000
0180
0240
0420
0000
0000
0000
0000
0000
0000
0000
0000
0000
0000
0000
0000
ENDCHAR
STARTCHAR J235f
ENCODING 9055
SWIDTH 960 0
DWIDTH 16 0
BBX 16 16 0 -2
BITMAP
0000
0000
0000
0000
0000
0000
0000
0000
0000
0000
0000
0000
0000
0000
0000
ffff
ENDCHAR
STARTCHAR J2360
ENCODING 9056
SWIDTH 960 0
DWIDTH 16 0
BBX 16 16 0 -2
BITMAP
0000
0200
0100
00c0
0060
0000
0000
0000
0000
0000
0000
0000
0000
0000
0000
0000
ENDCHAR
STARTCHAR J2361
ENCODING 9057
SWIDTH 960 0
DWIDTH 16 0
BBX 16 16 0 -2
BITMAP
0000
0000
0000
0000
0000
07c0
0820
0020
03e0
0c20
1020
1020
1060
0f98
0000
0000
ENDCHAR
STARTCHAR J2362
ENCODING 9058
SWIDTH 960 0
DWIDTH 16 0
BBX 16 16 0 -2
BITMAP
0000
3800
0800
0800
0800
0bc0
0c20
0810
0810
0810
0810
0810
0c20
0bc0
0000
0000
ENDCHAR
STARTCHAR J2363
ENCODING 9059
SWIDTH 960 0
DWIDTH 16 0
BBX 16 16 0 -2
BITMAP
0000
0000
0000
0000
0000
07d0
0830
1010
1000
1000
1000
1010
0820
07c0
0000
0000
ENDCHAR
STARTCHAR J2364
ENCODING 9060
SWIDTH 960 0
DWIDTH 16 0
BBX 16 16 0 -2
BITMAP
0000
01e0
0020
0020
0020
07a0
0860
1020
1020
1020
1020
1020
0860
07b8
0000
0000
ENDCHAR
STARTCHAR J2365
ENCODING 9061
SWIDTH 960 0
DWIDTH 16 0
BBX 16 16 0 -2
BITMAP
0000
0000
0000
0000
0000
07c0
0820
1010
1ff0
1000
1000
1010
0820
07c0
0000
0000
ENDCHAR
STARTCHAR J2366
ENCODING 9062
SWIDTH 960 0
DWIDTH 16 0
BBX 16 16 0 -2
BITMAP
0000
01e0
0210
0200
0200
1fe0
0200
0200
0200
0200
0200
0200
0200
1fe0
0000
0000
ENDCHAR
STARTCHAR J2367
ENCODING 9063
SWIDTH 960 0
DWIDTH 16 0
BBX 16 16 0 -2
BITMAP
0000
0000
0000
0000
0000
0f60
1090
1080
1080
0f00
1000
0f00
10e0
2010
2010
1fe0
ENDCHAR
STARTCHAR J2368
ENCODING 9064
SWIDTH 960 0
DWIDTH 16 0
BBX 16 16 0 -2
BITMAP
0000
3800
0800
0800
0800
0800
0bc0
0c20
0820
0820
0820
0820
0820
3ef8
0000
0000
ENDCHAR
STARTCHAR J2369
ENCODING 9065
SWIDTH 960 0
DWIDTH 16 0
BBX 16 16 0 -2
BITMAP
0300
0300
0000
0000
0000
1f00
0100
0100
0100
0100
0100
0100
0100
3ff0
0000
0000
ENDCHAR
STARTCHAR J236a
ENCODING 9066
SWIDTH 960 0
DWIDTH 16 0
BBX 16 16 0 -2
BITMAP
0060
0060
0000
0000
0000
07e0
0020
0020
0020
0020
0020
0020
1820
1020
0840
0780
ENDCHAR
STARTCHAR J236b
ENCODING 9067
SWIDTH 960 0
DWIDTH 16 0
BBX 16 16 0 -2
BITMAP
0000
3800
0800
0800
0800
08f0
0840
0880
0b00
0c80
0840
0840
0820
3ef8
0000
0000
ENDCHAR
STARTCHAR J236c
ENCODING 9068
SWIDTH 960 0
DWIDTH 16 0
BBX 16 16 0 -2
BITMAP
0000
0f00
0100
0100
0100
0100
0100
0100
0100
0100
0100
0100
0100
1ff0
0000
0000
ENDCHAR
STARTCHAR J236d
ENCODING 9069
SWIDTH 960 0
DWIDTH 16 0
BBX 16 16 0 -2
BITMAP
0000
0000
0000
0000
0000
eef0
3108
2108
2108
2108
2108
2108
2108
f7de
0000
0000
ENDCHAR
STARTCHAR J236e
ENCODING 9070
SWIDTH 960 0
DWIDTH 16 0
BBX 16 16 0 -2
BITMAP
0000
0000
0000
0000
0000
3bc0
0c20
0820
0820
0820
0820
0820
0820
3ef8
0000
0000
ENDCHAR
STARTCHAR J236f
ENCODING 9071
SWIDTH 960 0
DWIDTH 16 0
BBX 16 16 0 -2
BITMAP
0000
0000
0000
0000
0000
07c0
0820
1010
1010
1010
1010
1010
0820
07c0
0000
0000
ENDCHAR
STARTCHAR J2370
ENCODING 9072
SWIDTH 960 0
DWIDTH 16 0
BBX 16 16 0 -2
BITMAP
0000
0000
0000
0000
0000
3bc0
0c20
0810
0810
0810
0810
0c20
0bc0
0800
0800
3f00
ENDCHAR
STARTCHAR J2371
ENCODING 9073
SWIDTH 960 0
DWIDTH 16 0
BBX 16 16 0 -2
BITMAP
0000
0000
0000
0000
0000
07b8
0860
1020
1020
1020
1020
0860
07a0
0020
0020
01f8
ENDCHAR
STARTCHAR J2372
ENCODING 9074
SWIDTH 960 0
DWIDTH 16 0
BBX 16 16 0 -2
BITMAP
0000
0000
0000
0000
0000
1de0
0610
0410
0400
0400
0400
0400
0400
1f80
0000
0000
ENDCHAR
STARTCHAR J2373
ENCODING 9075
SWIDTH 960 0
DWIDTH 16 0
BBX 16 16 0 -2
BITMAP
0000
0000
0000
0000
0000
07a0
0860
0820
0800
07c0
0020
1010
1810
17e0
0000
0000
ENDCHAR
STARTCHAR J2374
ENCODING 9076
SWIDTH 960 0
DWIDTH 16 0
BBX 16 16 0 -2
BITMAP
0000
0000
0200
0200
0200
0fe0
0200
0200
0200
0200
0200
0210
0210
01e0
0000
0000
ENDCHAR
STARTCHAR J2375
ENCODING 9077
SWIDTH 960 0
DWIDTH 16 0
BBX 16 16 0 -2
BITMAP
0000
0000
0000
0000
0000
30e0
1020
1020
1020
1020
1020
1020
0860
07b8
0000
0000
ENDCHAR
STARTCHAR J2376
ENCODING 9078
SWIDTH 960 0
DWIDTH 16 0
BBX 16 16 0 -2
BITMAP
0000
0000
0000
0000
0000
7c7c
1010
0820
0820
0440
0440
0280
0280
0100
0100
0000
ENDCHAR
STARTCHAR J2377
ENCODING 9079
SWIDTH 960 0
DWIDTH 16 0
BBX 16 16 0 -2
BITMAP
0000
0000
0000
0000
0000
f39e
4104
4104
2288
2288
2448
1450
0820
0820
0000
0000
ENDCHAR
STARTCHAR J2378
ENCODING 9080
SWIDTH 960 0
DWIDTH 16 0
BBX 16 16 0 -2
BITMAP
0000
0000
0000
0000
0000
3c78
0820
0440
0280
0100
0280
0440
0820
3cf8
0000
0000
ENDCHAR
STARTCHAR J2379
ENCODING 9081
SWIDTH 960 0
DWIDTH 16 0
BBX 16 16 0 -2
BITMAP
0000
0000
0000
0000
0000
3ef8
0820
0420
0440
0240
0280
0180
0100
3100
2200
1c00
ENDCHAR
STARTCHAR J237a
ENCODING 9082
SWIDTH 960 0
DWIDTH 16 0
BBX 16 16 0 -2
BITMAP
0000
0000
0000
0000
0000
0ff0
0820
0040
0080
0100
0200
0410
0810
1ff0
0000
0000
ENDCHAR
STARTCHAR J237b
ENCODING 9083
SWIDTH 960 0
DWIDTH 16 0
BBX 16 16 0 -2
BITMAP
0006
0008
0008
0008
0008
0008
0008
0010
0008
0008
0008
0008
0008
0008
0008
0006
ENDCHAR
STARTCHAR J237c
ENCODING 9084
SWIDTH 960 0
DWIDTH 16 0
BBX 16 16 0 -2
BITMAP
0100
0100
0100
0100
0100
0100
0100
0100
0100
0100
0100
0100
0100
0100
0100
0100
ENDCHAR
STARTCHAR J237d
ENCODING 9085
SWIDTH 960 0
DWIDTH 16 0
BBX 16 16 0 -2
BITMAP
6000
1000
1000
1000
1000
1000
1000
0800
1000
1000
1000
1000
1000
1000
1000
6000
ENDCHAR
STARTCHAR J237e
ENCODING 9086
SWIDTH 960 0
DWIDTH 16 0
BBX 16 16 0 -2
BITMAP
ffff
0000
0000
0000
0000
0000
0000
0000
0000
0000
0000
0000
0000
0000
0000
0000
ENDCHAR
STARTCHAR J2421
ENCODING 9249
SWIDTH 960 0
DWIDTH 16 0
BBX 16 16 0 -2
BITMAP
0000
0000
0000
2008
1ffc
0808
0008
0008
0008
0008
0008
0008
0008
0000
0000
0000
ENDCHAR
STARTCHAR J2422
ENCODING 9250
SWIDTH 960 0
DWIDTH 16 0
BBX 16 16 0 -2
BITMAP
0000
0000
0000
4108
3ffc
1108
0108
0108
0108
0108
0108
0108
0000
0000
0000
0000
ENDCHAR
STARTCHAR J2423
ENCODING 9251
SWIDTH 960 0
DWIDTH 16 0
BBX 16 16 0 -2
BITMAP
0000
0000
0000
8260
7f10
2210
0210
0230
0228
0248
0244
0282
0301
0000
0000
0000
ENDCHAR
STARTCHAR J2424
ENCODING 9252
SWIDTH 960 0
DWIDTH 16 0
BBX 16 16 0 -2
BITMAP
0000
0000
0000
0000
0000
3000
0800
0800
0800
0800
0808
07fc
0000
0000
0000
0000
ENDCHAR
STARTCHAR J2425
ENCODING 9253
SWIDTH 960 0
DWIDTH 16 0
BBX 16 16 0 -2
BITMAP
0000
0000
0000
0000
0204
c1fe
20a0
2020
2050
2388
1d04
0202
0000
0000
0000
0000
ENDCHAR
STARTCHAR J2426
ENCODING 9254
SWIDTH 960 0
DWIDTH 16 0
BBX 16 16 0 -2
BITMAP
0000
0000
0000
0040
0038
c402
23ff
2100
2078
2084
2384
1c84
0078
0000
0000
0000
ENDCHAR
STARTCHAR J2427
ENCODING 9255
SWIDTH 960 0
DWIDTH 16 0
BBX 16 16 0 -2
BITMAP
0000
0000
0000
0000
7010
1ff8
1000
1000
1000
1000
1008
0ffc
0000
0000
0000
0000
ENDCHAR
STARTCHAR J2428
ENCODING 9256
SWIDTH 960 0
DWIDTH 16 0
BBX 16 16 0 -2
BITMAP
0000
0000
0000
0000
6288
3ffc
2080
2080
2080
2080
2384
1c7e
0000
0000
0000
0000
ENDCHAR
STARTCHAR J2429
ENCODING 9257
SWIDTH 960 0
DWIDTH 16 0
BBX 16 16 0 -2
BITMAP
0000
0000
0000
2010
1ff8
0810
0010
3010
1ff8
1000
1000
1010
0ff8
0000
0000
0000
ENDCHAR
STARTCHAR J242a
ENCODING 9258
SWIDTH 960 0
DWIDTH 16 0
BBX 16 16 0 -2
BITMAP
0000
0000
0000
8204
7ffe
2284
0204
ff04
4004
4004
4304
3c04
0000
0000
0000
0000
ENDCHAR
STARTCHAR J242b
ENCODING 9259
SWIDTH 960 0
DWIDTH 16 0
BBX 16 16 0 -2
BITMAP
0000
0000
0000
4144
3ffe
1144
0144
7fc4
2044
2044
23c4
1c7e
0040
0000
0000
0000
ENDCHAR
STARTCHAR J242c
ENCODING 9260
SWIDTH 960 0
DWIDTH 16 0
BBX 16 16 0 -2
BITMAP
0000
0000
0000
4208
3f04
0284
0284
7efc
2084
2084
2384
1cfc
0000
0000
0000
0000
ENDCHAR
STARTCHAR J242d
ENCODING 9261
SWIDTH 960 0
DWIDTH 16 0
BBX 16 16 0 -2
BITMAP
0000
0000
0000
8460
7e10
2410
0410
fe30
4028
4048
4684
3902
0000
0000
0000
0000
ENDCHAR
STARTCHAR J242e
ENCODING 9262
SWIDTH 960 0
DWIDTH 16 0
BBX 16 16 0 -2
BITMAP
0000
0000
0000
42c4
3f7e
0240
0244
7f7e
2040
2040
2344
1c3e
0000
0000
0000
0000
ENDCHAR
STARTCHAR J242f
ENCODING 9263
SWIDTH 960 0
DWIDTH 16 0
BBX 16 16 0 -2
BITMAP
0000
0000
0000
8508
7efc
0400
0400
fe84
4048
4048
464a
3bff
0000
0000
0000
0000
ENDCHAR
STARTCHAR J2430
ENCODING 9264
SWIDTH 960 0
DWIDTH 16 0
BBX 16 16 0 -2
BITMAP
0000
0000
0000
8440
7e38
0502
04ff
fe00
4038
4044
4644
3838
0000
0000
0000
0000
ENDCHAR
STARTCHAR J2431
ENCODING 9265
SWIDTH 960 0
DWIDTH 16 0
BBX 16 16 0 -2
BITMAP
0000
0000
0000
3810
0ff8
0810
0810
0810
0810
0810
0810
0ff8
0800
0000
0000
0000
ENDCHAR
STARTCHAR J2432
ENCODING 9266
SWIDTH 960 0
DWIDTH 16 0
BBX 16 16 0 -2
BITMAP
0000
0000
0020
0010
1010
0810
0810
0ff0
0810
0810
0810
0ff0
0810
0000
0000
0000
ENDCHAR
STARTCHAR J2433
ENCODING 9267
SWIDTH 960 0
DWIDTH 16 0
BBX 16 16 0 -2
BITMAP
0000
0000
0008
0284
2144
1144
1144
1f7c
1144
1144
1144
1f7c
1144
0000
0000
0000
ENDCHAR
STARTCHAR J2434
ENCODING 9268
SWIDTH 960 0
DWIDTH 16 0
BBX 16 16 0 -2
BITMAP
0000
0000
0000
0460
4210
2210
2210
3e10
2228
2228
2244
3e44
2282
0000
0000
0000
ENDCHAR
STARTCHAR J2435
ENCODING 9269
SWIDTH 960 0
DWIDTH 16 0
BBX 16 16 0 -2
BITMAP
0000
0000
0200
0180
0080
0080
0080
0140
0140
0220
0410
0808
3004
0000
0000
0000
ENDCHAR
STARTCHAR J2436
ENCODING 9270
SWIDTH 960 0
DWIDTH 16 0
BBX 16 16 0 -2
BITMAP
0000
0000
0000
0840
0420
0420
0420
0a20
0a50
1148
2084
c302
0000
0000
0000
0000
ENDCHAR
STARTCHAR J2437
ENCODING 9271
SWIDTH 960 0
DWIDTH 16 0
BBX 16 16 0 -2
BITMAP
0000
0000
0000
0200
0100
07c0
0820
1010
1010
1010
1010
0820
07c0
0000
0000
0000
ENDCHAR
STARTCHAR J2438
ENCODING 9272
SWIDTH 960 0
DWIDTH 16 0
BBX 16 16 0 -2
BITMAP
0000
0000
0000
2010
1ff8
0900
0100
0100
0280
0440
0820
1010
6008
0000
0000
0000
ENDCHAR
STARTCHAR J2439
ENCODING 9273
SWIDTH 960 0
DWIDTH 16 0
BBX 16 16 0 -2
BITMAP
0000
0000
0000
0000
8104
7ffe
2420
0420
0a50
0950
1088
2104
c602
0000
0000
0000
ENDCHAR
STARTCHAR J243a
ENCODING 9274
SWIDTH 960 0
DWIDTH 16 0
BBX 16 16 0 -2
BITMAP
0000
0000
0400
03e0
0000
2008
1ffc
0880
0140
0220
0410
0808
3004
0000
0000
0000
ENDCHAR
STARTCHAR J243b
ENCODING 9275
SWIDTH 960 0
DWIDTH 16 0
BBX 16 16 0 -2
BITMAP
0000
0000
0000
1008
0ffc
0408
0008
00f8
3f08
1008
0008
0008
0008
0000
0000
0000
ENDCHAR
STARTCHAR J243c
ENCODING 9276
SWIDTH 960 0
DWIDTH 16 0
BBX 16 16 0 -2
BITMAP
0000
0000
0000
3820
0ff0
0800
0820
0ff0
0800
0800
0810
07f8
0000
0000
0000
0000
ENDCHAR
STARTCHAR J243d
ENCODING 9277
SWIDTH 960 0
DWIDTH 16 0
BBX 16 16 0 -2
BITMAP
0000
0000
0000
2010
1ff8
0800
0000
0810
0420
0220
4248
3ffc
1000
0000
0000
0000
ENDCHAR
STARTCHAR J243e
ENCODING 9278
SWIDTH 960 0
DWIDTH 16 0
BBX 16 16 0 -2
BITMAP
0000
0000
0000
0400
03c0
4008
3ffc
1000
03c0
0420
0810
0810
0420
03c0
0000
0000
ENDCHAR
STARTCHAR J243f
ENCODING 9279
SWIDTH 960 0
DWIDTH 16 0
BBX 16 16 0 -2
BITMAP
0040
0030
0010
0010
0010
0012
001f
0010
0010
0010
0010
0010
0010
0010
0010
0000
ENDCHAR
STARTCHAR J2440
ENCODING 9280
SWIDTH 960 0
DWIDTH 16 0
BBX 16 16 0 -2
BITMAP
0020
0118
00c8
0048
0048
0048
0078
0048
0048
0048
0048
0048
0048
0048
0008
0000
ENDCHAR
STARTCHAR J2441
ENCODING 9281
SWIDTH 960 0
DWIDTH 16 0
BBX 16 16 0 -2
BITMAP
0040
0030
0010
0010
0012
001f
0010
0012
001f
0010
0010
0010
0010
0010
0010
0000
ENDCHAR
STARTCHAR J2442
ENCODING 9282
SWIDTH 960 0
DWIDTH 16 0
BBX 16 16 0 -2
BITMAP
0020
0118
00c8
0048
0048
0078
0048
0048
0078
0048
0048
0048
0048
0048
0008
0000
ENDCHAR
STARTCHAR J2443
ENCODING 9283
SWIDTH 960 0
DWIDTH 16 0
BBX 16 16 0 -2
BITMAP
0040
0030
0010
0010
0010
0010
0010
03f0
0110
0010
0010
0010
0010
0010
0010
0000
ENDCHAR
STARTCHAR J2444
ENCODING 9284
SWIDTH 960 0
DWIDTH 16 0
BBX 16 16 0 -2
BITMAP
0010
008c
0064
0024
0024
0024
03e4
0124
0024
0024
0024
0024
0024
0024
0004
0000
ENDCHAR
STARTCHAR J2445
ENCODING 9285
SWIDTH 960 0
DWIDTH 16 0
BBX 16 16 0 -2
BITMAP
0040
0030
0010
0010
0010
03f0
0110
0010
03f0
0110
0010
0010
0010
0010
0010
0000
ENDCHAR
STARTCHAR J2446
ENCODING 9286
SWIDTH 960 0
DWIDTH 16 0
BBX 16 16 0 -2
BITMAP
0010
008c
0064
0024
0024
03e4
0124
0024
03e4
0124
0024
0024
0024
0024
0004
0000
ENDCHAR
STARTCHAR J2447
ENCODING 9287
SWIDTH 960 0
DWIDTH 16 0
BBX 16 16 0 -2
BITMAP
0000
0000
0000
0000
0000
0000
0100
0080
0080
0080
4082
3fff
1000
0000
0000
0000
ENDCHAR
STARTCHAR J2448
ENCODING 9288
SWIDTH 960 0
DWIDTH 16 0
BBX 16 16 0 -2
BITMAP
0040
0030
0010
0010
0010
0010
0810
0412
041f
05f0
7e10
2010
0010
0010
0010
0000
ENDCHAR
STARTCHAR J2449
ENCODING 9289
SWIDTH 960 0
DWIDTH 16 0
BBX 16 16 0 -2
BITMAP
0010
008c
0064
0024
0024
0824
0424
043c
0424
07e4
7c24
2024
0024
0024
0004
0000
ENDCHAR
STARTCHAR J244a
ENCODING 9290
SWIDTH 960 0
DWIDTH 16 0
BBX 16 16 0 -2
BITMAP
0020
0018
0008
0008
0008
0408
0208
0208
0208
03f8
7e08
2008
0008
0008
0008
0000
ENDCHAR
STARTCHAR J244b
ENCODING 9291
SWIDTH 960 0
DWIDTH 16 0
BBX 16 16 0 -2
BITMAP
0000
0000
0000
0000
0000
0000
0040
0420
0220
0220
4222
3fff
1000
0000
0000
0000
ENDCHAR
STARTCHAR J244c
ENCODING 9292
SWIDTH 960 0
DWIDTH 16 0
BBX 16 16 0 -2
BITMAP
0000
0000
0000
0000
0000
0000
4002
3fff
1080
0080
0080
0080
0080
0080
0080
0000
ENDCHAR
STARTCHAR J244d
ENCODING 9293
SWIDTH 960 0
DWIDTH 16 0
BBX 16 16 0 -2
BITMAP
0020
0018
0008
0008
0008
0008
01e8
7e08
2808
09f8
0888
0808
0808
0808
0008
0000
ENDCHAR
STARTCHAR J244e
ENCODING 9294
SWIDTH 960 0
DWIDTH 16 0
BBX 16 16 0 -2
BITMAP
0020
0098
0048
0048
0048
0048
0048
03c8
7c48
2848
0bc8
0848
0848
0848
0008
0000
ENDCHAR
STARTCHAR J244f
ENCODING 9295
SWIDTH 960 0
DWIDTH 16 0
BBX 16 16 0 -2
BITMAP
0020
0018
0008
0008
0008
0008
0008
01e8
7e08
2408
0408
0408
0408
0408
0008
0000
ENDCHAR
STARTCHAR J2450
ENCODING 9296
SWIDTH 960 0
DWIDTH 16 0
BBX 16 16 0 -2
BITMAP
0000
0000
0000
0000
0000
0000
4002
3fff
1220
0220
0220
0220
0220
0220
0220
0000
ENDCHAR
STARTCHAR J2451
ENCODING 9297
SWIDTH 960 0
DWIDTH 16 0
BBX 16 16 0 -2
BITMAP
0000
0000
0000
0000
0000
0000
0000
0000
0000
4002
3fff
1000
0000
0000
0000
0000
ENDCHAR
STARTCHAR J2452
ENCODING 9298
SWIDTH 960 0
DWIDTH 16 0
BBX 16 16 0 -2
BITMAP
0020
0018
0008
0008
0008
0008
0008
0008
01f8
7e08
2008
0008
0008
0008
0008
0000
ENDCHAR
STARTCHAR J2453
ENCODING 9299
SWIDTH 960 0
DWIDTH 16 0
BBX 16 16 0 -2
BITMAP
0040
0030
0010
0010
0010
0010
0010
0010
0010
0010
0010
0010
0010
0010
0010
0000
ENDCHAR
STARTCHAR J2454
ENCODING 9300
SWIDTH 960 0
DWIDTH 16 0
BBX 16 16 0 -2
BITMAP
0000
0000
0000
0000
0000
0000
0000
0000
0000
0000
0000
0000
0000
0000
0000
0000
ENDCHAR
STARTCHAR J2455
ENCODING 9301
SWIDTH 960 0
DWIDTH 16 0
BBX 16 16 0 -2
BITMAP
0000
0000
0000
c180
2040
2040
2040
2040
2040
2344
1c3e
0000
0000
0000
0000
0000
ENDCHAR
STARTCHAR J2456
ENCODING 9302
SWIDTH 960 0
DWIDTH 16 0
BBX 16 16 0 -2
BITMAP
0000
0000
0000
c0c4
207e
2040
2040
2040
2040
2342
1c3f
0000
0000
0000
0000
0000
ENDCHAR
STARTCHAR J2457
ENCODING 9303
SWIDTH 960 0
DWIDTH 16 0
BBX 16 16 0 -2
BITMAP
0000
0000
0000
c020
2010
2010
2010
2010
2028
2348
1c84
0102
0000
0000
0000
0000
ENDCHAR
STARTCHAR J2458
ENCODING 9304
SWIDTH 960 0
DWIDTH 16 0
BBX 16 16 0 -2
BITMAP
0000
0000
0000
c010
2010
2028
2028
2044
2044
2382
1cff
0000
0000
0000
0000
0000
ENDCHAR
STARTCHAR J2459
ENCODING 9305
SWIDTH 960 0
DWIDTH 16 0
BBX 16 16 0 -2
BITMAP
0000
0000
0000
8850
7fe8
0848
0848
fc54
4054
4062
3c41
0000
0000
0000
0000
0000
ENDCHAR
STARTCHAR J245a
ENCODING 9306
SWIDTH 960 0
DWIDTH 16 0
BBX 16 16 0 -2
BITMAP
0000
0000
0000
42c8
3f7c
0240
0240
7f40
2040
2040
2344
1c3e
0000
0000
0000
0000
ENDCHAR
STARTCHAR J245b
ENCODING 9307
SWIDTH 960 0
DWIDTH 16 0
BBX 16 16 0 -2
BITMAP
0000
0000
0000
8890
7c48
0a48
0a48
ffd4
4254
4e62
33c1
0000
0000
0000
0000
0000
ENDCHAR
STARTCHAR J245c
ENCODING 9308
SWIDTH 960 0
DWIDTH 16 0
BBX 16 16 0 -2
BITMAP
0000
0000
8420
7e20
0420
0450
fc50
4088
4088
4704
3bfe
0000
0000
0000
0000
0000
ENDCHAR
STARTCHAR J245d
ENCODING 9309
SWIDTH 960 0
DWIDTH 16 0
BBX 16 16 0 -2
BITMAP
0000
0000
0000
8400
7e00
0504
04fe
fe40
4038
4044
4644
3838
0000
0000
0000
0000
ENDCHAR
STARTCHAR J245e
ENCODING 9310
SWIDTH 960 0
DWIDTH 16 0
BBX 16 16 0 -2
BITMAP
0000
0000
0000
0008
6284
3f44
2244
227c
2244
2244
2244
3f7c
2044
0000
0000
0000
ENDCHAR
STARTCHAR J245f
ENCODING 9311
SWIDTH 960 0
DWIDTH 16 0
BBX 16 16 0 -2
BITMAP
0000
0000
0000
6220
3f10
2210
2210
2210
2228
2228
3e44
2282
0000
0000
0000
0000
ENDCHAR
STARTCHAR J2460
ENCODING 9312
SWIDTH 960 0
DWIDTH 16 0
BBX 16 16 0 -2
BITMAP
0000
0000
0000
6210
3f10
2228
2228
2244
2244
2244
2282
3fff
2000
0000
0000
0000
ENDCHAR
STARTCHAR J2461
ENCODING 9313
SWIDTH 960 0
DWIDTH 16 0
BBX 16 16 0 -2
BITMAP
0000
3008
1ffc
1008
1008
1008
1ffc
1100
0080
07e0
0810
1008
1008
0810
07e0
0000
ENDCHAR
STARTCHAR J2462
ENCODING 9314
SWIDTH 960 0
DWIDTH 16 0
BBX 16 16 0 -2
BITMAP
0000
0000
0000
0400
0282
827f
4222
7e02
4202
4202
4202
7e02
4202
0000
0000
0000
ENDCHAR
STARTCHAR J2463
ENCODING 9315
SWIDTH 960 0
DWIDTH 16 0
BBX 16 16 0 -2
BITMAP
0000
0000
0400
02c8
827c
4240
4240
7e40
4240
4240
4244
7e3e
4200
0000
0000
0000
ENDCHAR
STARTCHAR J2464
ENCODING 9316
SWIDTH 960 0
DWIDTH 16 0
BBX 16 16 0 -2
BITMAP
0000
0000
0000
1142
88bf
4882
4882
7982
4942
4a42
7a22
4c12
0000
0000
0000
0000
ENDCHAR
STARTCHAR J2465
ENCODING 9317
SWIDTH 960 0
DWIDTH 16 0
BBX 16 16 0 -2
BITMAP
0000
0000
0000
1132
889f
4890
4890
7990
4950
4a50
7a52
4c2f
0000
0000
0000
0000
ENDCHAR
STARTCHAR J2466
ENCODING 9318
SWIDTH 960 0
DWIDTH 16 0
BBX 16 16 0 -2
BITMAP
0000
0000
0000
0800
8604
45fe
44a0
7c20
4420
4450
7c88
4706
0000
0000
0000
0000
ENDCHAR
STARTCHAR J2467
ENCODING 9319
SWIDTH 960 0
DWIDTH 16 0
BBX 16 16 0 -2
BITMAP
0000
0000
0400
02c4
827e
4240
4244
7e7e
4240
4240
4244
7e3e
4200
0000
0000
0000
ENDCHAR
STARTCHAR J2468
ENCODING 9320
SWIDTH 960 0
DWIDTH 16 0
BBX 16 16 0 -2
BITMAP
0010
2008
1008
1ff8
1008
1008
1ff8
1108
0080
07e0
0810
1008
1008
0810
07e0
0000
ENDCHAR
STARTCHAR J2469
ENCODING 9321
SWIDTH 960 0
DWIDTH 16 0
BBX 16 16 0 -2
BITMAP
0010
2488
1248
1e78
1248
1248
1e78
1248
0080
07e0
0810
1008
1008
0810
07e0
0000
ENDCHAR
STARTCHAR J246a
ENCODING 9322
SWIDTH 960 0
DWIDTH 16 0
BBX 16 16 0 -2
BITMAP
0000
0000
0000
0904
04fe
0444
0404
0a04
0a04
1104
2104
c084
0000
0000
0000
0000
ENDCHAR
STARTCHAR J246b
ENCODING 9323
SWIDTH 960 0
DWIDTH 16 0
BBX 16 16 0 -2
BITMAP
0000
0000
0000
0800
0580
0440
0640
0a40
0a40
1140
2144
40be
0000
0000
0000
0000
ENDCHAR
STARTCHAR J246c
ENCODING 9324
SWIDTH 960 0
DWIDTH 16 0
BBX 16 16 0 -2
BITMAP
0000
0000
0000
10c4
087e
0840
0840
1440
1440
2240
4144
80be
0000
0000
0000
0000
ENDCHAR
STARTCHAR J246d
ENCODING 9325
SWIDTH 960 0
DWIDTH 16 0
BBX 16 16 0 -2
BITMAP
0000
0000
0004
1002
0882
0842
087e
1442
1442
2242
217e
40c2
0000
0000
0000
0000
ENDCHAR
STARTCHAR J246e
ENCODING 9326
SWIDTH 960 0
DWIDTH 16 0
BBX 16 16 0 -2
BITMAP
0000
0000
0000
1202
09ff
0890
0810
1428
1428
2244
4142
8181
0000
0000
0000
0000
ENDCHAR
STARTCHAR J246f
ENCODING 9327
SWIDTH 960 0
DWIDTH 16 0
BBX 16 16 0 -2
BITMAP
0000
0000
0100
0100
0280
0280
0440
0440
0820
0820
1010
3ff8
0000
0000
0000
0000
ENDCHAR
STARTCHAR J2470
ENCODING 9328
SWIDTH 960 0
DWIDTH 16 0
BBX 16 16 0 -2
BITMAP
0000
0000
1818
0808
3c3c
4242
4242
4242
4242
4242
4242
3c3c
0000
0000
0000
0000
ENDCHAR
STARTCHAR J2471
ENCODING 9329
SWIDTH 960 0
DWIDTH 16 0
BBX 16 16 0 -2
BITMAP
0000
0300
0100
0fe0
1010
2008
2008
2008
2008
2008
2008
1010
0fe0
0000
0000
0000
ENDCHAR
STARTCHAR J2472
ENCODING 9330
SWIDTH 960 0
DWIDTH 16 0
BBX 16 16 0 -2
BITMAP
0000
3000
1204
79fe
84a0
8420
8420
8450
8450
8488
8504
7a02
0000
0000
0000
0000
ENDCHAR
STARTCHAR J2473
ENCODING 9331
SWIDTH 960 0
DWIDTH 16 0
BBX 16 16 0 -2
BITMAP
0000
3000
1020
7820
8450
8450
8488
8488
8488
8504
8504
7bfe
0000
0000
0000
0000
ENDCHAR
STARTCHAR J2474
ENCODING 9332
SWIDTH 960 0
DWIDTH 16 0
BBX 16 16 0 -2
BITMAP
0000
2010
1ff8
0000
0420
4248
3ffc
1100
0080
07e0
0810
1008
1008
0810
07e0
0000
ENDCHAR
STARTCHAR J2475
ENCODING 9333
SWIDTH 960 0
DWIDTH 16 0
BBX 16 16 0 -2
BITMAP
0000
0000
2040
1c38
8102
7fff
2000
1c38
2244
2244
2244
1c38
0000
0000
0000
0000
ENDCHAR
STARTCHAR J2476
ENCODING 9334
SWIDTH 960 0
DWIDTH 16 0
BBX 16 16 0 -2
BITMAP
0000
0000
4008
3ffc
1200
0100
07c0
0820
0820
0820
0820
07c0
0000
0000
0000
0000
ENDCHAR
STARTCHAR J2477
ENCODING 9335
SWIDTH 960 0
DWIDTH 16 0
BBX 16 16 0 -2
BITMAP
0040
0030
0010
0010
0010
0912
091f
0910
09f2
7e1f
2010
0010
0010
0010
0010
0000
ENDCHAR
STARTCHAR J2478
ENCODING 9336
SWIDTH 960 0
DWIDTH 16 0
BBX 16 16 0 -2
BITMAP
0020
0118
00c8
0048
0048
0478
0248
2248
1278
13c8
7c48
2048
0048
0048
0008
0000
ENDCHAR
STARTCHAR J2479
ENCODING 9337
SWIDTH 960 0
DWIDTH 16 0
BBX 16 16 0 -2
BITMAP
0020
0018
0008
0008
0008
0208
1108
0908
0908
0be8
7c08
2008
0008
0008
0008
0000
ENDCHAR
STARTCHAR J247a
ENCODING 9338
SWIDTH 960 0
DWIDTH 16 0
BBX 16 16 0 -2
BITMAP
0020
0018
0008
0008
0008
0008
01e8
7f08
2978
0908
0978
0908
0908
0908
0008
0000
ENDCHAR
STARTCHAR J247b
ENCODING 9339
SWIDTH 960 0
DWIDTH 16 0
BBX 16 16 0 -2
BITMAP
0020
0118
00c8
0048
0048
0048
0348
fc48
55c8
1448
15c8
1448
1448
0048
0008
0000
ENDCHAR
STARTCHAR J247c
ENCODING 9340
SWIDTH 960 0
DWIDTH 16 0
BBX 16 16 0 -2
BITMAP
0020
0018
0008
0008
0008
0008
0008
01e8
7f08
2908
0908
0908
0908
0908
0008
0000
ENDCHAR
STARTCHAR J247d
ENCODING 9341
SWIDTH 960 0
DWIDTH 16 0
BBX 16 16 0 -2
BITMAP
0000
0000
0000
0000
0000
0000
0100
0380
0100
0000
0000
0000
0000
0000
0000
0000
ENDCHAR
STARTCHAR J247e
ENCODING 9342
SWIDTH 960 0
DWIDTH 16 0
BBX 16 16 0 -2
BITMAP
0020
0018
0008
0008
0008
0008
0008
0008
0208
0708
0208
0008
0008
0008
0008
0000
ENDCHAR
STARTCHAR J2521
ENCODING 9505
SWIDTH 960 0
DWIDTH 16 0
BBX 16 16 0 -2
BITMAP
0000
0080
0080
0000
0000
0080
0180
0080
0080
0080
0080
0080
0080
01c0
0000
0000
ENDCHAR
STARTCHAR J2522
ENCODING 9506
SWIDTH 960 0
DWIDTH 16 0
BBX 16 16 0 -2
BITMAP
0000
0420
0420
0000
0000
0420
0c60
0420
0420
0420
0420
0420
0420
0e70
0000
0000
ENDCHAR
STARTCHAR J2523
ENCODING 9507
SWIDTH 960 0
DWIDTH 16 0
BBX 16 16 0 -2
BITMAP
0000
1110
1110
0000
0000
1110
3330
1110
1110
1110
1110
1110
1110
3bb8
0000
0000
ENDCHAR
STARTCHAR J2524
ENCODING 9508
SWIDTH 960 0
DWIDTH 16 0
BBX 16 16 0 -2
BITMAP
0000
1000
1000
0000
0000
171c
3208
1208
1110
1110
10a0
10a0
1040
3840
0000
0000
ENDCHAR
STARTCHAR J2525
ENCODING 9509
SWIDTH 960 0
DWIDTH 16 0
BBX 16 16 0 -2
BITMAP
0000
0000
0000
0000
0000
1c70
0820
0820
0440
0440
0280
0280
0100
0100
0000
0000
ENDCHAR
STARTCHAR J2526
ENCODING 9510
SWIDTH 960 0
DWIDTH 16 0
BBX 16 16 0 -2
BITMAP
0000
0008
0008
0000
0000
38e8
1058
1048
0888
0888
0508
0508
0208
021c
0000
0000
ENDCHAR
STARTCHAR J2527
ENCODING 9511
SWIDTH 960 0
DWIDTH 16 0
BBX 16 16 0 -2
BITMAP
0000
0024
0024
0000
0000
e3a4
416c
4124
2224
2224
1424
1424
0824
087e
0000
0000
ENDCHAR
STARTCHAR J2528
ENCODING 9512
SWIDTH 960 0
DWIDTH 16 0
BBX 16 16 0 -2
BITMAP
0000
0092
0092
0000
0000
ee92
45b6
4492
4492
2892
2892
2892
1092
11ff
0000
0000
ENDCHAR
STARTCHAR J2529
ENCODING 9513
SWIDTH 960 0
DWIDTH 16 0
BBX 16 16 0 -2
BITMAP
0000
2000
2000
0000
0000
671c
2208
2110
20a0
2040
20a0
2110
2208
771c
0000
0000
ENDCHAR
STARTCHAR J252a
ENCODING 9514
SWIDTH 960 0
DWIDTH 16 0
BBX 16 16 0 -2
BITMAP
0000
0000
0000
0000
0000
1c38
0410
0220
0140
0180
0240
0420
0810
1c38
0000
0000
ENDCHAR
STARTCHAR J2530
ENCODING 9520
SWIDTH 960 0
DWIDTH 16 0
BBX 16 16 0 -2
BITMAP
0000
0380
0100
0100
0100
0100
0100
0100
0100
0100
0100
0100
0100
0380
0000
0000
ENDCHAR
STARTCHAR J2531
ENCODING 9521
SWIDTH 960 0
DWIDTH 16 0
BBX 16 16 0 -2
BITMAP
0000
0fe0
0440
0440
0440
0440
0440
0440
0440
0440
0440
0440
0440
0fe0
0000
0000
ENDCHAR
STARTCHAR J2532
ENCODING 9522
SWIDTH 960 0
DWIDTH 16 0
BBX 16 16 0 -2
BITMAP
0000
1ff0
0920
0920
0920
0920
0920
0920
0920
0920
0920
0920
0920
1ff0
0000
0000
ENDCHAR
STARTCHAR J2533
ENCODING 9523
SWIDTH 960 0
DWIDTH 16 0
BBX 16 16 0 -2
BITMAP
0000
3f1c
1208
1208
1208
1110
1110
1110
1110
10a0
10a0
10a0
1040
3840
0000
0000
ENDCHAR
STARTCHAR J2534
ENCODING 9524
SWIDTH 960 0
DWIDTH 16 0
BBX 16 16 0 -2
BITMAP
0000
3838
1010
1010
0820
0820
0820
0440
0440
0440
0280
0280
0100
0100
0000
0000
ENDCHAR
STARTCHAR J2535
ENCODING 9525
SWIDTH 960 0
DWIDTH 16 0
BBX 16 16 0 -2
BITMAP
0000
38fc
1048
1048
1048
0888
0888
0888
0888
0508
0508
0508
0208
021c
0000
0000
ENDCHAR
STARTCHAR J2536
ENCODING 9526
SWIDTH 960 0
DWIDTH 16 0
BBX 16 16 0 -2
BITMAP
0000
71ff
2092
2092
2092
1112
1112
1112
1112
0a12
0a12
0a12
0412
043f
0000
0000
ENDCHAR
STARTCHAR J2537
ENCODING 9527
SWIDTH 960 0
DWIDTH 16 0
BBX 16 16 0 -2
BITMAP
0000
e3ff
412a
412a
412a
222a
222a
222a
222a
142a
142a
142a
082a
087f
0000
0000
ENDCHAR
STARTCHAR J2538
ENCODING 9528
SWIDTH 960 0
DWIDTH 16 0
BBX 16 16 0 -2
BITMAP
0000
ef1e
4208
4110
4110
40a0
4040
4040
40a0
40a0
4110
4110
4208
ef1e
0000
0000
ENDCHAR
STARTCHAR J2539
ENCODING 9529
SWIDTH 960 0
DWIDTH 16 0
BBX 16 16 0 -2
BITMAP
0000
3c3c
0810
0420
0420
0240
0180
0180
0140
0240
0420
0420
0810
3c3c
0000
0000
ENDCHAR
STARTCHAR J2541
ENCODING 9537
SWIDTH 960 0
DWIDTH 16 0
BBX 16 16 0 -2
BITMAP
0000
0080
00c0
01c0
01c0
0260
0260
0460
0430
0ff0
0830
1018
2018
703c
0000
0000
ENDCHAR
STARTCHAR J2542
ENCODING 9538
SWIDTH 960 0
DWIDTH 16 0
BBX 16 16 0 -2
BITMAP
0000
0ff0
0618
0618
0618
0618
0630
07f0
0618
0c18
0c18
0c18
0c30
1fc0
0000
0000
ENDCHAR
STARTCHAR J2543
ENCODING 9539
SWIDTH 960 0
DWIDTH 16 0
BBX 16 16 0 -2
BITMAP
0000
1ff0
0c30
0c08
0c00
0c00
0c00
0c00
0c00
1800
1800
1800
1800
3e00
0000
0000
ENDCHAR
STARTCHAR J2544
ENCODING 9540
SWIDTH 960 0
DWIDTH 16 0
BBX 16 16 0 -2
BITMAP
0000
00c0
00c0
0160
0160
0260
0260
0230
0430
0430
0818
0818
1018
3ffc
0000
0000
ENDCHAR
STARTCHAR J2545
ENCODING 9541
SWIDTH 960 0
DWIDTH 16 0
BBX 16 16 0 -2
BITMAP
0000
1ff0
0c10
0c08
0c00
0c40
0c40
0fc0
1880
1880
1800
1810
1820
3fe0
0000
0000
ENDCHAR
STARTCHAR J2546
ENCODING 9542
SWIDTH 960 0
DWIDTH 16 0
BBX 16 16 0 -2
BITMAP
0000
07fc
0c18
1030
0060
00c0
0180
0300
0300
0600
0c00
1808
3030
3ff0
0000
0000
ENDCHAR
STARTCHAR J2547
ENCODING 9543
SWIDTH 960 0
DWIDTH 16 0
BBX 16 16 0 -2
BITMAP
0000
1f3c
0c18
0c18
0c18
1830
1830
1ff0
1830
1830
3060
3060
3060
78f0
0000
0000
ENDCHAR
STARTCHAR J2548
ENCODING 9544
SWIDTH 960 0
DWIDTH 16 0
BBX 16 16 0 -2
BITMAP
0000
07f0
0c18
1818
1818
1818
1c38
37d8
3030
3030
3030
3030
1860
0fc0
0000
0000
ENDCHAR
STARTCHAR J2549
ENCODING 9545
SWIDTH 960 0
DWIDTH 16 0
BBX 16 16 0 -2
BITMAP
0000
03c0
0180
0180
0180
0180
0180
0180
0300
0300
0300
0300
0300
0780
0000
0000
ENDCHAR
STARTCHAR J254a
ENCODING 9546
SWIDTH 960 0
DWIDTH 16 0
BBX 16 16 0 -2
BITMAP
0000
1f3c
0c10
0c20
0c40
0c80
0d00
0f00
1980
18c0
1860
1830
1818
3c3c
0000
0000
ENDCHAR
STARTCHAR J254b
ENCODING 9547
SWIDTH 960 0
DWIDTH 16 0
BBX 16 16 0 -2
BITMAP
0000
0060
0060
00e0
00e0
0130
0130
0230
0230
0430
0418
0818
1018
383c
0000
0000
ENDCHAR
STARTCHAR J254c
ENCODING 9548
SWIDTH 960 0
DWIDTH 16 0
BBX 16 16 0 -2
BITMAP
0000
381e
181c
1c2c
1c2c
362c
364c
3658
3398
3398
3118
6118
6018
f07c
0000
0000
ENDCHAR
STARTCHAR J254d
ENCODING 9549
SWIDTH 960 0
DWIDTH 16 0
BBX 16 16 0 -2
BITMAP
0000
1c1c
0c08
0e08
0e08
0b08
1188
1190
10d0
10d0
2070
2070
2030
7010
0000
0000
ENDCHAR
STARTCHAR J254e
ENCODING 9550
SWIDTH 960 0
DWIDTH 16 0
BBX 16 16 0 -2
BITMAP
0000
0802
0ffc
1004
1000
0000
0410
07e0
0820
0000
2008
3ff8
4010
4010
0000
0000
ENDCHAR
STARTCHAR J254f
ENCODING 9551
SWIDTH 960 0
DWIDTH 16 0
BBX 16 16 0 -2
BITMAP
0000
07e0
0c30
1818
1818
1818
3018
3018
3018
3030
3030
3030
1860
0fc0
0000
0000
ENDCHAR
STARTCHAR J2550
ENCODING 9552
SWIDTH 960 0
DWIDTH 16 0
BBX 16 16 0 -2
BITMAP
0000
1ffc
0c18
0c18
0c18
0c18
1830
1830
1830
1830
3060
3060
3060
78f0
0000
0000
ENDCHAR
STARTCHAR J2551
ENCODING 9553
SWIDTH 960 0
DWIDTH 16 0
BBX 16 16 0 -2
BITMAP
0000
1ff0
0c18
0c18
0c18
0c30
0fc0
0c00
1800
1800
1800
1800
1800
3c00
0000
0000
ENDCHAR
STARTCHAR J2552
ENCODING 9554
SWIDTH 960 0
DWIDTH 16 0
BBX 16 16 0 -2
BITMAP
0000
1ff8
0c08
0604
0300
0180
00c0
0080
0100
0200
0400
0808
1010
3ff0
0000
0000
ENDCHAR
STARTCHAR J2553
ENCODING 9555
SWIDTH 960 0
DWIDTH 16 0
BBX 16 16 0 -2
BITMAP
0000
1ff8
1188
2184
0180
0180
0180
0180
0300
0300
0300
0300
0300
0780
0000
0000
ENDCHAR
STARTCHAR J2554
ENCODING 9556
SWIDTH 960 0
DWIDTH 16 0
BBX 16 16 0 -2
BITMAP
0000
00f8
1918
0600
0600
0600
0600
0600
0600
0c00
0c00
0c00
0c00
1e00
0000
0000
ENDCHAR
STARTCHAR J2555
ENCODING 9557
SWIDTH 960 0
DWIDTH 16 0
BBX 16 16 0 -2
BITMAP
0000
03c0
0180
07e0
0db0
1998
1998
3198
3330
3330
1b60
0f80
0300
0780
0000
0000
ENDCHAR
STARTCHAR J2556
ENCODING 9558
SWIDTH 960 0
DWIDTH 16 0
BBX 16 16 0 -2
BITMAP
0000
1e1e
0c08
0610
0320
0340
0180
01c0
02c0
04c0
0460
0860
1030
7878
0000
0000
ENDCHAR
STARTCHAR J2557
ENCODING 9559
SWIDTH 960 0
DWIDTH 16 0
BBX 16 16 0 -2
BITMAP
0000
03c0
0180
718e
1988
1998
1998
1998
3330
3330
3360
1f80
0300
0780
0000
0000
ENDCHAR
STARTCHAR J2558
ENCODING 9560
SWIDTH 960 0
DWIDTH 16 0
BBX 16 16 0 -2
BITMAP
0000
03f0
0618
0c0c
1806
1806
1806
1806
0c0c
0618
0220
4242
2244
3c3c
0000
0000
ENDCHAR
STARTCHAR J2561
ENCODING 9569
SWIDTH 960 0
DWIDTH 16 0
BBX 16 16 0 -2
BITMAP
0000
0000
0000
0000
0000
0000
0000
0390
0450
0850
1060
1040
10a0
0f18
0000
0000
ENDCHAR
STARTCHAR J2562
ENCODING 9570
SWIDTH 960 0
DWIDTH 16 0
BBX 16 16 0 -2
BITMAP
0000
0000
0000
0070
0088
0108
0108
0210
0260
0410
0410
0610
0a20
09c0
1000
0000
ENDCHAR
STARTCHAR J2563
ENCODING 9571
SWIDTH 960 0
DWIDTH 16 0
BBX 16 16 0 -2
BITMAP
0000
0000
0000
0000
0000
0000
0000
0e30
1140
0180
0100
0100
0200
0200
0400
0000
ENDCHAR
STARTCHAR J2564
ENCODING 9572
SWIDTH 960 0
DWIDTH 16 0
BBX 16 16 0 -2
BITMAP
0000
0000
01e0
0210
0400
0600
0300
01c0
0660
0860
0860
0860
0460
03c0
0000
0000
ENDCHAR
STARTCHAR J2565
ENCODING 9573
SWIDTH 960 0
DWIDTH 16 0
BBX 16 16 0 -2
BITMAP
0000
0000
0000
0000
0000
0000
0000
03c0
0420
0400
0700
0800
0820
07c0
0000
0000
ENDCHAR
STARTCHAR J2566
ENCODING 9574
SWIDTH 960 0
DWIDTH 16 0
BBX 16 16 0 -2
BITMAP
0000
0000
0000
0640
0180
0100
0200
0400
0400
0400
0200
0180
0040
0440
0240
0180
ENDCHAR
STARTCHAR J2567
ENCODING 9575
SWIDTH 960 0
DWIDTH 16 0
BBX 16 16 0 -2
BITMAP
0000
0000
0000
0000
0000
0000
0000
0770
0990
1110
0220
0220
0440
0040
0080
0000
ENDCHAR
STARTCHAR J2568
ENCODING 9576
SWIDTH 960 0
DWIDTH 16 0
BBX 16 16 0 -2
BITMAP
0000
0000
0000
01c0
0220
0220
0420
0420
07c0
0840
0840
0880
0880
0700
0000
0000
ENDCHAR
STARTCHAR J2569
ENCODING 9577
SWIDTH 960 0
DWIDTH 16 0
BBX 16 16 0 -2
BITMAP
0000
0000
0000
0000
0000
0000
0100
0100
0000
0200
0200
0440
0480
0700
0000
0000
ENDCHAR
STARTCHAR J256a
ENCODING 9578
SWIDTH 960 0
DWIDTH 16 0
BBX 16 16 0 -2
BITMAP
0000
0000
0000
0000
0000
0000
0000
0430
0440
0480
0700
0500
0890
0860
0000
0000
ENDCHAR
STARTCHAR J256b
ENCODING 9579
SWIDTH 960 0
DWIDTH 16 0
BBX 16 16 0 -2
BITMAP
0000
0000
0000
0000
0000
0600
0100
0080
0080
0180
0140
0240
0440
0830
0000
0000
ENDCHAR
STARTCHAR J256c
ENCODING 9580
SWIDTH 960 0
DWIDTH 16 0
BBX 16 16 0 -2
BITMAP
0000
0000
0000
0000
0000
0000
0000
0420
0420
0840
0840
0840
1080
1f70
1000
1000
ENDCHAR
STARTCHAR J256d
ENCODING 9581
SWIDTH 960 0
DWIDTH 16 0
BBX 16 16 0 -2
BITMAP
0000
0000
0000
0000
0000
0000
0000
0c20
0420
0440
0480
0500
0a00
0c00
0000
0000
ENDCHAR
STARTCHAR J256e
ENCODING 9582
SWIDTH 960 0
DWIDTH 16 0
BBX 16 16 0 -2
BITMAP
0000
0400
0420
03c0
0200
0460
03c0
0100
0200
0400
0400
0300
00c0
0020
0220
01c0
ENDCHAR
STARTCHAR J256f
ENCODING 9583
SWIDTH 960 0
DWIDTH 16 0
BBX 16 16 0 -2
BITMAP
0000
0000
0000
0000
0000
0000
0000
03c0
0420
0420
0820
0840
0840
0780
0000
0000
ENDCHAR
STARTCHAR J2570
ENCODING 9584
SWIDTH 960 0
DWIDTH 16 0
BBX 16 16 0 -2
BITMAP
0000
0000
0000
0000
0000
0000
0000
07c8
1a70
0240
0440
0480
0490
18e0
0000
0000
ENDCHAR
STARTCHAR J2571
ENCODING 9585
SWIDTH 960 0
DWIDTH 16 0
BBX 16 16 0 -2
BITMAP
0000
0000
0000
0000
0000
0000
0000
01c0
0220
0420
0420
0420
0c40
0b80
0800
0800
ENDCHAR
STARTCHAR J2572
ENCODING 9586
SWIDTH 960 0
DWIDTH 16 0
BBX 16 16 0 -2
BITMAP
0000
0000
0000
0000
0000
0010
0010
01e0
0200
0440
0820
0820
0840
0780
0000
0000
ENDCHAR
STARTCHAR J2573
ENCODING 9587
SWIDTH 960 0
DWIDTH 16 0
BBX 16 16 0 -2
BITMAP
0000
0000
0000
0000
0000
0000
0000
0ff0
1100
0100
0100
0200
0240
0380
0000
0000
ENDCHAR
STARTCHAR J2574
ENCODING 9588
SWIDTH 960 0
DWIDTH 16 0
BBX 16 16 0 -2
BITMAP
0000
0000
0000
0000
0000
0000
0000
0e20
0110
0110
0110
0220
0440
0380
0000
0000
ENDCHAR
STARTCHAR J2575
ENCODING 9589
SWIDTH 960 0
DWIDTH 16 0
BBX 16 16 0 -2
BITMAP
0000
0000
0000
0000
0000
0040
0040
03e0
0490
0890
0910
0920
07c0
0200
0200
0000
ENDCHAR
STARTCHAR J2576
ENCODING 9590
SWIDTH 960 0
DWIDTH 16 0
BBX 16 16 0 -2
BITMAP
0000
0000
0000
0000
0000
0000
0000
0610
0120
00c0
0180
0280
0440
0830
0000
0000
ENDCHAR
STARTCHAR J2577
ENCODING 9591
SWIDTH 960 0
DWIDTH 16 0
BBX 16 16 0 -2
BITMAP
0000
0000
0000
0080
0080
0080
1d40
0520
0920
1120
1220
1240
0a80
0700
0400
0400
ENDCHAR
STARTCHAR J2578
ENCODING 9592
SWIDTH 960 0
DWIDTH 16 0
BBX 16 16 0 -2
BITMAP
0000
0000
0000
0000
0000
0000
0000
0420
0810
1008
1008
1108
1110
0ee0
0000
0000
ENDCHAR
STARTCHAR J2621
ENCODING 9761
SWIDTH 960 0
DWIDTH 16 0
BBX 16 16 0 -2
BITMAP
0000
0000
0000
0000
0000
0000
0000
0000
ffff
0000
0000
0000
0000
0000
0000
0000
ENDCHAR
STARTCHAR J2622
ENCODING 9762
SWIDTH 960 0
DWIDTH 16 0
BBX 16 16 0 -2
BITMAP
0100
0100
0100
0100
0100
0100
0100
0100
0100
0100
0100
0100
0100
0100
0100
0100
ENDCHAR
STARTCHAR J2623
ENCODING 9763
SWIDTH 960 0
DWIDTH 16 0
BBX 16 16 0 -2
BITMAP
0000
0000
0000
0000
0000
0000
0000
0000
01ff
0100
0100
0100
0100
0100
0100
0100
ENDCHAR
STARTCHAR J2624
ENCODING 9764
SWIDTH 960 0
DWIDTH 16 0
BBX 16 16 0 -2
BITMAP
0000
0000
0000
0000
0000
0000
0000
0000
ff00
0100
0100
0100
0100
0100
0100
0100
ENDCHAR
STARTCHAR J2625
ENCODING 9765
SWIDTH 960 0
DWIDTH 16 0
BBX 16 16 0 -2
BITMAP
0100
0100
0100
0100
0100
0100
0100
0100
ff00
0000
0000
0000
0000
0000
0000
0000
ENDCHAR
STARTCHAR J2626
ENCODING 9766
SWIDTH 960 0
DWIDTH 16 0
BBX 16 16 0 -2
BITMAP
0100
0100
0100
0100
0100
0100
0100
0100
01ff
0000
0000
0000
0000
0000
0000
0000
ENDCHAR
STARTCHAR J2627
ENCODING 9767
SWIDTH 960 0
DWIDTH 16 0
BBX 16 16 0 -2
BITMAP
0100
0100
0100
0100
0100
0100
0100
0100
01ff
0100
0100
0100
0100
0100
0100
0100
ENDCHAR
STARTCHAR J2628
ENCODING 9768
SWIDTH 960 0
DWIDTH 16 0
BBX 16 16 0 -2
BITMAP
0000
0000
0000
0000
0000
0000
0000
0000
ffff
0100
0100
0100
0100
0100
0100
0100
ENDCHAR
STARTCHAR J2629
ENCODING 9769
SWIDTH 960 0
DWIDTH 16 0
BBX 16 16 0 -2
BITMAP
0100
0100
0100
0100
0100
0100
0100
0100
ff00
0100
0100
0100
0100
0100
0100
0100
ENDCHAR
STARTCHAR J262a
ENCODING 9770
SWIDTH 960 0
DWIDTH 16 0
BBX 16 16 0 -2
BITMAP
0100
0100
0100
0100
0100
0100
0100
0100
ffff
0000
0000
0000
0000
0000
0000
0000
ENDCHAR
STARTCHAR J262b
ENCODING 9771
SWIDTH 960 0
DWIDTH 16 0
BBX 16 16 0 -2
BITMAP
0100
0100
0100
0100
0100
0100
0100
0100
ffff
0100
0100
0100
0100
0100
0100
0100
ENDCHAR
STARTCHAR J262c
ENCODING 9772
SWIDTH 960 0
DWIDTH 16 0
BBX 16 16 0 -2
BITMAP
0000
0000
0000
0000
0000
0000
0000
ffff
ffff
ffff
0000
0000
0000
0000
0000
0000
ENDCHAR
STARTCHAR J262d
ENCODING 9773
SWIDTH 960 0
DWIDTH 16 0
BBX 16 16 0 -2
BITMAP
0380
0380
0380
0380
0380
0380
0380
0380
0380
0380
0380
0380
0380
0380
0380
0380
ENDCHAR
STARTCHAR J262e
ENCODING 9774
SWIDTH 960 0
DWIDTH 16 0
BBX 16 16 0 -2
BITMAP
0000
0000
0000
0000
0000
0000
0000
03ff
03ff
03ff
0380
0380
0380
0380
0380
0380
ENDCHAR
STARTCHAR J262f
ENCODING 9775
SWIDTH 960 0
DWIDTH 16 0
BBX 16 16 0 -2
BITMAP
0000
0000
0000
0000
0000
0000
0000
ff80
ff80
ff80
0380
0380
0380
0380
0380
0380
ENDCHAR
STARTCHAR J2630
ENCODING 9776
SWIDTH 960 0
DWIDTH 16 0
BBX 16 16 0 -2
BITMAP
0380
0380
0380
0380
0380
0380
0380
ff80
ff80
ff80
0000
0000
0000
0000
0000
0000
ENDCHAR
STARTCHAR J2631
ENCODING 9777
SWIDTH 960 0
DWIDTH 16 0
BBX 16 16 0 -2
BITMAP
0380
0380
0380
0380
0380
0380
0380
03ff
03ff
03ff
0000
0000
0000
0000
0000
0000
ENDCHAR
STARTCHAR J2632
ENCODING 9778
SWIDTH 960 0
DWIDTH 16 0
BBX 16 16 0 -2
BITMAP
0380
0380
0380
0380
0380
0380
0380
03ff
03ff
03ff
0380
0380
0380
0380
0380
0380
ENDCHAR
STARTCHAR J2633
ENCODING 9779
SWIDTH 960 0
DWIDTH 16 0
BBX 16 16 0 -2
BITMAP
0000
0000
0000
0000
0000
0000
0000
ffff
ffff
ffff
0380
0380
0380
0380
0380
0380
ENDCHAR
STARTCHAR J2634
ENCODING 9780
SWIDTH 960 0
DWIDTH 16 0
BBX 16 16 0 -2
BITMAP
0380
0380
0380
0380
0380
0380
0380
ff80
ff80
ff80
0380
0380
0380
0380
0380
0380
ENDCHAR
STARTCHAR J2635
ENCODING 9781
SWIDTH 960 0
DWIDTH 16 0
BBX 16 16 0 -2
BITMAP
0380
0380
0380
0380
0380
0380
0380
ffff
ffff
ffff
0000
0000
0000
0000
0000
0000
ENDCHAR
STARTCHAR J2636
ENCODING 9782
SWIDTH 960 0
DWIDTH 16 0
BBX 16 16 0 -2
BITMAP
0380
0380
0380
0380
0380
0380
0380
ffff
ffff
ffff
0380
0380
0380
0380
0380
0380
ENDCHAR
STARTCHAR J2637
ENCODING 9783
SWIDTH 960 0
DWIDTH 16 0
BBX 16 16 0 -2
BITMAP
0380
0380
0380
0380
0380
0380
0380
0380
03ff
0380
0380
0380
0380
0380
0380
0380
ENDCHAR
STARTCHAR J2638
ENCODING 9784
SWIDTH 960 0
DWIDTH 16 0
BBX 16 16 0 -2
BITMAP
0000
0000
0000
0000
0000
0000
0000
ffff
ffff
ffff
0100
0100
0100
0100
0100
0100
ENDCHAR
STARTCHAR J2639
ENCODING 9785
SWIDTH 960 0
DWIDTH 16 0
BBX 16 16 0 -2
BITMAP
0380
0380
0380
0380
0380
0380
0380
0380
ff80
0380
0380
0380
0380
0380
0380
0380
ENDCHAR
STARTCHAR J263a
ENCODING 9786
SWIDTH 960 0
DWIDTH 16 0
BBX 16 16 0 -2
BITMAP
0100
0100
0100
0100
0100
0100
0100
ffff
ffff
ffff
0000
0000
0000
0000
0000
0000
ENDCHAR
STARTCHAR J263b
ENCODING 9787
SWIDTH 960 0
DWIDTH 16 0
BBX 16 16 0 -2
BITMAP
0100
0100
0100
0100
0100
0100
0100
ffff
ffff
ffff
0100
0100
0100
0100
0100
0100
ENDCHAR
STARTCHAR J263c
ENCODING 9788
SWIDTH 960 0
DWIDTH 16 0
BBX 16 16 0 -2
BITMAP
0100
0100
0100
0100
0100
0100
0100
01ff
01ff
01ff
0100
0100
0100
0100
0100
0100
ENDCHAR
STARTCHAR J263d
ENCODING 9789
SWIDTH 960 0
DWIDTH 16 0
BBX 16 16 0 -2
BITMAP
0000
0000
0000
0000
0000
0000
0000
0000
ffff
0380
0380
0380
0380
0380
0380
0380
ENDCHAR
STARTCHAR J263e
ENCODING 9790
SWIDTH 960 0
DWIDTH 16 0
BBX 16 16 0 -2
BITMAP
0100
0100
0100
0100
0100
0100
0100
ff00
ff00
ff00
0100
0100
0100
0100
0100
0100
ENDCHAR
STARTCHAR J263f
ENCODING 9791
SWIDTH 960 0
DWIDTH 16 0
BBX 16 16 0 -2
BITMAP
0380
0380
0380
0380
0380
0380
0380
0380
ffff
0000
0000
0000
0000
0000
0000
0000
ENDCHAR
STARTCHAR J2640
ENCODING 9792
SWIDTH 960 0
DWIDTH 16 0
BBX 16 16 0 -2
BITMAP
0380
0380
0380
0380
0380
0380
0380
0380
ffff
0380
0380
0380
0380
0380
0380
0380
ENDCHAR
STARTCHAR J2641
ENCODING 9793
SWIDTH 960 0
DWIDTH 16 0
BBX 16 16 0 -2
BITMAP
0000
0000
0000
0000
0000
0000
0000
0000
ff80
0380
0380
0380
0380
0380
0380
0380
ENDCHAR
STARTCHAR J2642
ENCODING 9794
SWIDTH 960 0
DWIDTH 16 0
BBX 16 16 0 -2
BITMAP
0000
0000
0000
0000
0000
0000
0000
ff00
ff00
ff00
0100
0100
0100
0100
0100
0100
ENDCHAR
STARTCHAR J2643
ENCODING 9795
SWIDTH 960 0
DWIDTH 16 0
BBX 16 16 0 -2
BITMAP
0380
0380
0380
0380
0380
0380
0380
0380
ff80
0000
0000
0000
0000
0000
0000
0000
ENDCHAR
STARTCHAR J2644
ENCODING 9796
SWIDTH 960 0
DWIDTH 16 0
BBX 16 16 0 -2
BITMAP
0100
0100
0100
0100
0100
0100
0100
ff00
ff00
ff00
0000
0000
0000
0000
0000
0000
ENDCHAR
STARTCHAR J2645
ENCODING 9797
SWIDTH 960 0
DWIDTH 16 0
BBX 16 16 0 -2
BITMAP
0380
0380
0380
0380
0380
0380
0380
0380
03ff
0000
0000
0000
0000
0000
0000
0000
ENDCHAR
STARTCHAR J2646
ENCODING 9798
SWIDTH 960 0
DWIDTH 16 0
BBX 16 16 0 -2
BITMAP
0100
0100
0100
0100
0100
0100
0100
01ff
01ff
01ff
0000
0000
0000
0000
0000
0000
ENDCHAR
STARTCHAR J2647
ENCODING 9799
SWIDTH 960 0
DWIDTH 16 0
BBX 16 16 0 -2
BITMAP
0000
0000
0000
0000
0000
0000
0000
0000
03ff
0380
0380
0380
0380
0380
0380
0380
ENDCHAR
STARTCHAR J2648
ENCODING 9800
SWIDTH 960 0
DWIDTH 16 0
BBX 16 16 0 -2
BITMAP
0000
0000
0000
0000
0000
0000
0000
01ff
01ff
01ff
0100
0100
0100
0100
0100
0100
ENDCHAR
STARTCHAR J2649
ENCODING 9801
SWIDTH 960 0
DWIDTH 16 0
BBX 16 16 0 -2
BITMAP
0380
0380
0380
0380
0380
0380
0380
0380
03ff
0100
0100
0100
0100
0100
0100
0100
ENDCHAR
STARTCHAR J264a
ENCODING 9802
SWIDTH 960 0
DWIDTH 16 0
BBX 16 16 0 -2
BITMAP
0100
0100
0100
0100
0100
0100
0100
0100
03ff
0380
0380
0380
0380
0380
0380
0380
ENDCHAR
STARTCHAR J264b
ENCODING 9803
SWIDTH 960 0
DWIDTH 16 0
BBX 16 16 0 -2
BITMAP
0380
0380
0380
0380
0380
0380
0380
03ff
03ff
03ff
0100
0100
0100
0100
0100
0100
ENDCHAR
STARTCHAR J264c
ENCODING 9804
SWIDTH 960 0
DWIDTH 16 0
BBX 16 16 0 -2
BITMAP
0100
0100
0100
0100
0100
0100
0100
03ff
03ff
03ff
0380
0380
0380
0380
0380
0380
ENDCHAR
STARTCHAR J264d
ENCODING 9805
SWIDTH 960 0
DWIDTH 16 0
BBX 16 16 0 -2
BITMAP
0380
0380
0380
0380
0380
0380
0380
0380
ff80
0100
0100
0100
0100
0100
0100
0100
ENDCHAR
STARTCHAR J264e
ENCODING 9806
SWIDTH 960 0
DWIDTH 16 0
BBX 16 16 0 -2
BITMAP
0100
0100
0100
0100
0100
0100
0100
0100
ff80
0380
0380
0380
0380
0380
0380
0380
ENDCHAR
STARTCHAR J264f
ENCODING 9807
SWIDTH 960 0
DWIDTH 16 0
BBX 16 16 0 -2
BITMAP
0380
0380
0380
0380
0380
0380
0380
ff80
ff80
ff80
0100
0100
0100
0100
0100
0100
ENDCHAR
STARTCHAR J2650
ENCODING 9808
SWIDTH 960 0
DWIDTH 16 0
BBX 16 16 0 -2
BITMAP
0100
0100
0100
0100
0100
0100
0100
ff80
ff80
ff80
0380
0380
0380
0380
0380
0380
ENDCHAR
STARTCHAR J2651
ENCODING 9809
SWIDTH 960 0
DWIDTH 16 0
BBX 16 16 0 -2
BITMAP
0000
0000
0000
0000
0000
0000
0000
ff00
ffff
ff00
0100
0100
0100
0100
0100
0100
ENDCHAR
STARTCHAR J2652
ENCODING 9810
SWIDTH 960 0
DWIDTH 16 0
BBX 16 16 0 -2
BITMAP
0000
0000
0000
0000
0000
0000
0000
01ff
ffff
01ff
0100
0100
0100
0100
0100
0100
ENDCHAR
STARTCHAR J2653
ENCODING 9811
SWIDTH 960 0
DWIDTH 16 0
BBX 16 16 0 -2
BITMAP
0000
0000
0000
0000
0000
0000
0000
ff80
ffff
ff80
0380
0380
0380
0380
0380
0380
ENDCHAR
STARTCHAR J2654
ENCODING 9812
SWIDTH 960 0
DWIDTH 16 0
BBX 16 16 0 -2
BITMAP
0000
0000
0000
0000
0000
0000
0000
03ff
ffff
03ff
0380
0380
0380
0380
0380
0380
ENDCHAR
STARTCHAR J2655
ENCODING 9813
SWIDTH 960 0
DWIDTH 16 0
BBX 16 16 0 -2
BITMAP
0100
0100
0100
0100
0100
0100
0100
ff00
ffff
ff00
0000
0000
0000
0000
0000
0000
ENDCHAR
STARTCHAR J2656
ENCODING 9814
SWIDTH 960 0
DWIDTH 16 0
BBX 16 16 0 -2
BITMAP
0100
0100
0100
0100
0100
0100
0100
01ff
ffff
01ff
0000
0000
0000
0000
0000
0000
ENDCHAR
STARTCHAR J2657
ENCODING 9815
SWIDTH 960 0
DWIDTH 16 0
BBX 16 16 0 -2
BITMAP
0380
0380
0380
0380
0380
0380
0380
ff80
ffff
ff80
0000
0000
0000
0000
0000
0000
ENDCHAR
STARTCHAR J2658
ENCODING 9816
SWIDTH 960 0
DWIDTH 16 0
BBX 16 16 0 -2
BITMAP
0380
0380
0380
0380
0380
0380
0380
03ff
ffff
03ff
0000
0000
0000
0000
0000
0000
ENDCHAR
STARTCHAR J2659
ENCODING 9817
SWIDTH 960 0
DWIDTH 16 0
BBX 16 16 0 -2
BITMAP
0100
0100
0100
0100
0100
0100
0100
ff00
ffff
ff00
0100
0100
0100
0100
0100
0100
ENDCHAR
STARTCHAR J265a
ENCODING 9818
SWIDTH 960 0
DWIDTH 16 0
BBX 16 16 0 -2
BITMAP
0100
0100
0100
0100
0100
0100
0100
01ff
ffff
01ff
0100
0100
0100
0100
0100
0100
ENDCHAR
STARTCHAR J265b
ENCODING 9819
SWIDTH 960 0
DWIDTH 16 0
BBX 16 16 0 -2
BITMAP
0380
0380
0380
0380
0380
0380
0380
0380
ffff
0100
0100
0100
0100
0100
0100
0100
ENDCHAR
STARTCHAR J265c
ENCODING 9820
SWIDTH 960 0
DWIDTH 16 0
BBX 16 16 0 -2
BITMAP
0100
0100
0100
0100
0100
0100
0100
0100
ffff
0380
0380
0380
0380
0380
0380
0380
ENDCHAR
STARTCHAR J265d
ENCODING 9821
SWIDTH 960 0
DWIDTH 16 0
BBX 16 16 0 -2
BITMAP
0380
0380
0380
0380
0380
0380
0380
ff80
ffff
ff80
0100
0100
0100
0100
0100
0100
ENDCHAR
STARTCHAR J265e
ENCODING 9822
SWIDTH 960 0
DWIDTH 16 0
BBX 16 16 0 -2
BITMAP
0380
0380
0380
0380
0380
0380
0380
03ff
ffff
01ff
0100
0100
0100
0100
0100
0100
ENDCHAR
STARTCHAR J265f
ENCODING 9823
SWIDTH 960 0
DWIDTH 16 0
BBX 16 16 0 -2
BITMAP
0100
0100
0100
0100
0100
0100
0100
ff80
ffff
ff80
0380
0380
0380
0380
0380
0380
ENDCHAR
STARTCHAR J2660
ENCODING 9824
SWIDTH 960 0
DWIDTH 16 0
BBX 16 16 0 -2
BITMAP
0100
0100
0100
0100
0100
0100
0100
03ff
ffff
03ff
0380
0380
0380
0380
0380
0380
ENDCHAR
STARTCHAR J2661
ENCODING 9825
SWIDTH 960 0
DWIDTH 16 0
BBX 16 16 0 -2
BITMAP
0380
0380
0380
0380
0380
0380
0380
ffff
ffff
ffff
0100
0100
0100
0100
0100
0100
ENDCHAR
STARTCHAR J2662
ENCODING 9826
SWIDTH 960 0
DWIDTH 16 0
BBX 16 16 0 -2
BITMAP
0100
0100
0100
0100
0100
0100
0100
ffff
ffff
ffff
0380
0380
0380
0380
0380
0380
ENDCHAR
STARTCHAR J2663
ENCODING 9827
SWIDTH 960 0
DWIDTH 16 0
BBX 16 16 0 -2
BITMAP
0380
0380
0380
0380
0380
0380
0380
ff80
ffff
ff80
0380
0380
0380
0380
0380
0380
ENDCHAR
STARTCHAR J2664
ENCODING 9828
SWIDTH 960 0
DWIDTH 16 0
BBX 16 16 0 -2
BITMAP
0380
0380
0380
0380
0380
0380
0380
03ff
ffff
03ff
0380
0380
0380
0380
0380
0380
ENDCHAR
STARTCHAR J2721
ENCODING 10017
SWIDTH 960 0
DWIDTH 16 0
BBX 16 16 0 -2
BITMAP
0000
000c
0014
0014
0024
0024
1128
1148
1148
2250
2252
2262
2224
5df8
4000
4000
ENDCHAR
STARTCHAR J2722
ENCODING 10018
SWIDTH 960 0
DWIDTH 16 0
BBX 16 16 0 -2
BITMAP
0000
000c
0014
0014
0014
0014
5b24
ed28
4928
4928
4928
4932
4924
dbd8
0000
0000
ENDCHAR
STARTCHAR J2723
ENCODING 10019
SWIDTH 960 0
DWIDTH 16 0
BBX 16 16 0 -2
BITMAP
0000
0218
0624
0224
0224
0224
3e48
4248
4248
4250
4250
4262
42c4
3f38
0000
0000
ENDCHAR
STARTCHAR J2724
ENCODING 10020
SWIDTH 960 0
DWIDTH 16 0
BBX 16 16 0 -2
BITMAP
0000
0060
0090
0110
0110
0120
0220
0240
0240
0284
0304
0208
0610
39e0
0000
0000
ENDCHAR
STARTCHAR J2725
ENCODING 10021
SWIDTH 960 0
DWIDTH 16 0
BBX 16 16 0 -2
BITMAP
0000
4018
c024
4024
4024
4044
4f48
4448
4848
7050
5850
4c62
4644
e7b8
0000
0000
ENDCHAR
STARTCHAR J2726
ENCODING 10022
SWIDTH 960 0
DWIDTH 16 0
BBX 16 16 0 -2
BITMAP
0000
0000
0000
0000
0000
0000
1c38
2244
4080
4080
4080
4080
2346
1c38
0000
0000
ENDCHAR
STARTCHAR J2727
ENCODING 10023
SWIDTH 960 0
DWIDTH 16 0
BBX 16 16 0 -2
BITMAP
000f
0001
0007
0001
000f
0000
3e7c
6ad4
2a54
2a54
2a54
2a54
2a54
7ffe
0000
0000
ENDCHAR
STARTCHAR J2728
ENCODING 10024
SWIDTH 960 0
DWIDTH 16 0
BBX 16 16 0 -2
BITMAP
000f
0001
0007
0001
000f
0000
1c7c
22d4
4054
4054
4054
4054
2354
1cfe
0000
0000
ENDCHAR
STARTCHAR J2729
ENCODING 10025
SWIDTH 960 0
DWIDTH 16 0
BBX 16 16 0 -2
BITMAP
001e
0002
000e
0002
001e
0000
1770
3990
1110
1110
1110
1110
1110
3bb8
0000
0000
ENDCHAR
STARTCHAR J272a
ENCODING 10026
SWIDTH 960 0
DWIDTH 16 0
BBX 16 16 0 -2
BITMAP
000f
4001
c007
4001
400f
4000
4f7c
44d4
4854
7854
4c54
4654
4354
e7fe
0000
0000
ENDCHAR
STARTCHAR J272b
ENCODING 10027
SWIDTH 960 0
DWIDTH 16 0
BBX 16 16 0 -2
BITMAP
0000
0000
1c00
2600
2000
2000
78ec
2334
2124
2124
2124
2124
2124
73b6
0000
0000
ENDCHAR
STARTCHAR J272c
ENCODING 10028
SWIDTH 960 0
DWIDTH 16 0
BBX 16 16 0 -2
BITMAP
0000
0000
0000
0000
0000
0000
2c7c
74d4
2454
2454
2454
2454
2454
6efe
0000
0000
ENDCHAR
STARTCHAR J272d
ENCODING 10029
SWIDTH 960 0
DWIDTH 16 0
BBX 16 16 0 -2
BITMAP
0000
0000
0000
0000
0000
0000
24b6
25da
2492
4492
4892
4892
4892
f5db
8000
8000
ENDCHAR
STARTCHAR J272e
ENCODING 10030
SWIDTH 960 0
DWIDTH 16 0
BBX 16 16 0 -2
BITMAP
0000
0000
0000
0000
0000
0000
3e7c
6ad4
2a54
2a54
2a54
2a54
2a54
7ffe
0000
0000
ENDCHAR
STARTCHAR J272f
ENCODING 10031
SWIDTH 960 0
DWIDTH 16 0
BBX 16 16 0 -2
BITMAP
0000
0000
0000
0000
0000
0000
1c7c
22d4
4054
4054
4054
4054
2354
1cfe
0000
0000
ENDCHAR
STARTCHAR J2730
ENCODING 10032
SWIDTH 960 0
DWIDTH 16 0
BBX 16 16 0 -2
BITMAP
0000
c000
4000
4000
4000
4000
4f7c
44d4
4854
5854
7854
4c54
4654
e7fe
0000
0000
ENDCHAR
STARTCHAR J2731
ENCODING 10033
SWIDTH 960 0
DWIDTH 16 0
BBX 16 16 0 -2
BITMAP
000f
0001
000f
0008
000f
0000
3e7c
6ad4
2a54
2a54
2a54
2a54
2a54
7ffe
0000
0000
ENDCHAR
STARTCHAR J2732
ENCODING 10034
SWIDTH 960 0
DWIDTH 16 0
BBX 16 16 0 -2
BITMAP
000f
0001
000f
0008
000f
0000
1c7c
22d4
4054
4054
4054
40d4
2354
1cfe
0000
0000
ENDCHAR
STARTCHAR J2733
ENCODING 10035
SWIDTH 960 0
DWIDTH 16 0
BBX 16 16 0 -2
BITMAP
001e
0002
001e
0010
001e
0000
1770
3990
1110
1110
1110
1110
1110
3bb8
0000
0000
ENDCHAR
STARTCHAR J2734
ENCODING 10036
SWIDTH 960 0
DWIDTH 16 0
BBX 16 16 0 -2
BITMAP
000f
c001
400f
4008
400f
4000
4f7c
44d4
4854
5854
7854
4c54
4654
e7fe
0000
0000
ENDCHAR
STARTCHAR J2735
ENCODING 10037
SWIDTH 960 0
DWIDTH 16 0
BBX 16 16 0 -2
BITMAP
0000
2000
6000
2000
2000
2000
2e78
3284
2204
227c
2284
2284
228c
7776
0000
0000
ENDCHAR
STARTCHAR J2736
ENCODING 10038
SWIDTH 960 0
DWIDTH 16 0
BBX 16 16 0 -2
BITMAP
0000
0000
0000
0000
0000
0006
2238
2244
2244
22b8
4480
44fc
4482
7b82
4082
407c
ENDCHAR
STARTCHAR J2737
ENCODING 10039
SWIDTH 960 0
DWIDTH 16 0
BBX 16 16 0 -2
BITMAP
0000
0000
0000
0000
0000
0006
3e38
6a44
2a44
2ab8
2a80
2afc
2a82
7f82
0082
007c
ENDCHAR
STARTCHAR J2738
ENCODING 10040
SWIDTH 960 0
DWIDTH 16 0
BBX 16 16 0 -2
BITMAP
2000
6000
2000
2000
2000
2006
23b8
2244
2444
38b8
2c80
26fc
2382
7782
0082
007c
ENDCHAR
STARTCHAR J2739
ENCODING 10041
SWIDTH 960 0
DWIDTH 16 0
BBX 16 16 0 -2
BITMAP
2000
6000
2000
2010
2010
2010
23bc
2210
2410
3810
2c10
2611
2312
779c
0000
0000
ENDCHAR
STARTCHAR J273a
ENCODING 10042
SWIDTH 960 0
DWIDTH 16 0
BBX 16 16 0 -2
BITMAP
0000
0002
0006
0002
0002
0002
38f2
450a
400a
40fa
410a
410a
470a
38ff
0000
0000
ENDCHAR
STARTCHAR J273b
ENCODING 10043
SWIDTH 960 0
DWIDTH 16 0
BBX 16 16 0 -2
BITMAP
0000
4006
c002
4002
4002
4002
4dba
4a4a
520a
723a
524a
4a4a
464a
efbf
0000
0000
ENDCHAR
STARTCHAR J273c
ENCODING 10044
SWIDTH 960 0
DWIDTH 16 0
BBX 16 16 0 -2
BITMAP
0000
05fc
0482
0482
0482
0482
7cfc
8482
8481
8481
8481
8481
8482
7dfc
0000
0000
ENDCHAR
STARTCHAR J273d
ENCODING 10045
SWIDTH 960 0
DWIDTH 16 0
BBX 16 16 0 -2
BITMAP
0001
7c02
d404
5408
5410
5420
5440
54be
ff41
0141
0230
040c
0802
1041
2041
403e
ENDCHAR
STARTCHAR J273e
ENCODING 10046
SWIDTH 960 0
DWIDTH 16 0
BBX 16 16 0 -2
BITMAP
0008
7c17
d411
5427
5444
5447
5480
553e
fe42
0241
0430
080c
0802
1041
2021
403e
ENDCHAR
STARTCHAR J273f
ENCODING 10047
SWIDTH 960 0
DWIDTH 16 0
BBX 16 16 0 -2
BITMAP
0000
0000
0000
0000
0000
0000
2e3c
7142
2140
2138
2104
2102
3e42
203c
2000
7000
ENDCHAR
STARTCHAR J2740
ENCODING 10048
SWIDTH 960 0
DWIDTH 16 0
BBX 16 16 0 -2
BITMAP
0000
0000
0000
0000
0000
0000
2e3c
7242
2240
2238
2204
2202
2242
773c
0000
0000
ENDCHAR
STARTCHAR J2741
ENCODING 10049
SWIDTH 960 0
DWIDTH 16 0
BBX 16 16 0 -2
BITMAP
0000
0000
0000
0000
0000
0000
223c
2242
2240
2238
4404
4402
44c2
7b3c
4000
4000
ENDCHAR
STARTCHAR J2742
ENCODING 10050
SWIDTH 960 0
DWIDTH 16 0
BBX 16 16 0 -2
BITMAP
0000
0000
0000
0000
0000
0000
3e3c
6a42
2a40
2a38
2a04
2a02
2a42
7f3c
0000
0000
ENDCHAR
STARTCHAR J2743
ENCODING 10051
SWIDTH 960 0
DWIDTH 16 0
BBX 16 16 0 -2
BITMAP
0000
038e
0104
0104
0088
0088
5c88
e288
4250
4250
4250
6250
5c20
4020
4000
e000
ENDCHAR
STARTCHAR J2744
ENCODING 10052
SWIDTH 960 0
DWIDTH 16 0
BBX 16 16 0 -2
BITMAP
0000
038e
0104
0104
0088
0088
5c88
e488
4450
4450
4450
4450
4420
ee20
0000
0000
ENDCHAR
STARTCHAR J2745
ENCODING 10053
SWIDTH 960 0
DWIDTH 16 0
BBX 16 16 0 -2
BITMAP
0000
038e
0104
0104
0088
0088
2288
2288
2250
2250
4450
4450
4520
7a20
4000
4000
ENDCHAR
STARTCHAR J2746
ENCODING 10054
SWIDTH 960 0
DWIDTH 16 0
BBX 16 16 0 -2
BITMAP
0000
038e
0104
0104
0088
0088
3e88
6a88
2a50
2a50
2a50
2a50
2a20
7f20
0000
0000
ENDCHAR
STARTCHAR J2747
ENCODING 10055
SWIDTH 960 0
DWIDTH 16 0
BBX 16 16 0 -2
BITMAP
2000
61c7
2082
2082
2044
2044
23c4
2144
2228
3c28
2628
2328
2190
73d0
0000
0000
ENDCHAR
STARTCHAR J2748
ENCODING 10056
SWIDTH 960 0
DWIDTH 16 0
BBX 16 16 0 -2
BITMAP
0000
e1c7
6182
6382
6344
5344
5544
5544
5528
5528
5528
4928
4910
cb90
0000
0000
ENDCHAR
STARTCHAR J2749
ENCODING 10057
SWIDTH 960 0
DWIDTH 16 0
BBX 16 16 0 -2
BITMAP
0000
0010
0010
0028
0028
0028
5c44
e244
427c
4244
4282
6282
5c82
41c7
4000
e000
ENDCHAR
STARTCHAR J274a
ENCODING 10058
SWIDTH 960 0
DWIDTH 16 0
BBX 16 16 0 -2
BITMAP
0000
0010
0010
0028
0028
0028
5c44
e444
447c
4444
4482
4482
4482
efc7
0000
0000
ENDCHAR
STARTCHAR J274b
ENCODING 10059
SWIDTH 960 0
DWIDTH 16 0
BBX 16 16 0 -2
BITMAP
0000
0010
0010
0028
0028
0028
4244
4244
427c
4444
8482
8482
8482
fbc7
8000
8000
ENDCHAR
STARTCHAR J274c
ENCODING 10060
SWIDTH 960 0
DWIDTH 16 0
BBX 16 16 0 -2
BITMAP
0000
0010
0010
0028
0028
0028
7c44
d444
547c
5444
5482
5482
5482
ffc7
0000
0000
ENDCHAR
STARTCHAR J274d
ENCODING 10061
SWIDTH 960 0
DWIDTH 16 0
BBX 16 16 0 -2
BITMAP
0000
4010
c010
4028
4028
4028
4744
4244
447c
7844
5882
4c82
4682
e7c7
0000
0000
ENDCHAR
STARTCHAR J274e
ENCODING 10062
SWIDTH 960 0
DWIDTH 16 0
BBX 16 16 0 -2
BITMAP
0000
0777
0222
0222
0222
0122
5914
e514
4494
4494
44b4
64c8
5848
4048
4000
e000
ENDCHAR
STARTCHAR J274f
ENCODING 10063
SWIDTH 960 0
DWIDTH 16 0
BBX 16 16 0 -2
BITMAP
0000
0777
0222
0222
0222
0122
5d14
e514
4494
4494
44b4
44c8
4448
ee48
0000
0000
ENDCHAR
STARTCHAR J2750
ENCODING 10064
SWIDTH 960 0
DWIDTH 16 0
BBX 16 16 0 -2
BITMAP
0000
0777
0222
0222
0222
0122
4514
4514
4494
4494
88b4
88c8
8948
f648
8000
8000
ENDCHAR
STARTCHAR J2751
ENCODING 10065
SWIDTH 960 0
DWIDTH 16 0
BBX 16 16 0 -2
BITMAP
0000
0777
0222
0222
0222
0122
7d14
d514
5494
5494
54b4
54c8
5448
fe48
0000
0000
ENDCHAR
STARTCHAR J2752
ENCODING 10066
SWIDTH 960 0
DWIDTH 16 0
BBX 16 16 0 -2
BITMAP
0000
4777
c222
4222
4222
4122
4f14
4514
4894
7094
58b4
4cc8
4648
ef48
0000
0000
ENDCHAR
STARTCHAR J2753
ENCODING 10067
SWIDTH 960 0
DWIDTH 16 0
BBX 16 16 0 -2
BITMAP
0000
8377
c322
c722
c722
ab22
aa94
aa94
ba94
9294
92b4
9248
9248
9248
0000
0000
ENDCHAR
STARTCHAR J2754
ENCODING 10068
SWIDTH 960 0
DWIDTH 16 0
BBX 16 16 0 -2
BITMAP
0000
e380
4100
4100
4100
4100
413f
7f42
4104
4108
4110
4120
4141
e3fe
0000
0000
ENDCHAR
STARTCHAR J2755
ENCODING 10069
SWIDTH 960 0
DWIDTH 16 0
BBX 16 16 0 -2
BITMAP
0000
4770
c220
4220
4220
4220
4e2f
4bf1
5222
7224
5224
4a28
4a31
ff7f
0000
0000
ENDCHAR
STARTCHAR J2756
ENCODING 10070
SWIDTH 960 0
DWIDTH 16 0
BBX 16 16 0 -2
BITMAP
0000
8bf0
8920
d920
d920
d920
a92f
a9f1
a922
a924
a924
8928
8931
8bfe
0000
0000
ENDCHAR
STARTCHAR J2757
ENCODING 10071
SWIDTH 960 0
DWIDTH 16 0
BBX 16 16 0 -2
BITMAP
0000
7bf0
8520
8120
8120
8120
812f
81f1
9d22
8924
8924
8928
8931
7bfe
0000
0000
ENDCHAR
STARTCHAR J2758
ENCODING 10072
SWIDTH 960 0
DWIDTH 16 0
BBX 16 16 0 -2
BITMAP
0000
ffe0
aa40
2240
2240
2240
225f
23e1
2242
2244
2244
2248
2251
77fe
0000
0000
ENDCHAR
STARTCHAR J2759
ENCODING 10073
SWIDTH 960 0
DWIDTH 16 0
BBX 16 16 0 -2
BITMAP
0000
03c0
0c30
1818
1818
1818
1818
1818
1818
0c30
0660
4242
2244
3c3c
0000
0000
ENDCHAR
STARTCHAR J275a
ENCODING 10074
SWIDTH 960 0
DWIDTH 16 0
BBX 16 16 0 -2
BITMAP
0000
4070
c18c
4306
4306
4306
5f06
4b06
5306
718c
58d8
4c51
4652
efde
0000
0000
ENDCHAR
STARTCHAR J275b
ENCODING 10075
SWIDTH 960 0
DWIDTH 16 0
BBX 16 16 0 -2
BITMAP
0000
8878
88cc
8986
d986
d986
d986
a986
a986
a8cc
a848
aa49
894a
89ce
0000
0000
ENDCHAR
STARTCHAR J275c
ENCODING 10076
SWIDTH 960 0
DWIDTH 16 0
BBX 16 16 0 -2
BITMAP
0000
01fc
0082
0080
0080
0088
5cf8
e288
4280
4280
4280
6280
5c80
41c0
4000
e000
ENDCHAR
STARTCHAR J275d
ENCODING 10077
SWIDTH 960 0
DWIDTH 16 0
BBX 16 16 0 -2
BITMAP
0000
01fc
0082
0080
0080
0088
5cf8
e488
4480
4480
4480
4480
4480
efc0
0000
0000
ENDCHAR
STARTCHAR J275e
ENCODING 10078
SWIDTH 960 0
DWIDTH 16 0
BBX 16 16 0 -2
BITMAP
0000
00fe
0041
0040
0040
0044
447c
4444
4440
4440
8840
8840
8940
f6e0
8000
8000
ENDCHAR
STARTCHAR J275f
ENCODING 10079
SWIDTH 960 0
DWIDTH 16 0
BBX 16 16 0 -2
BITMAP
0000
0002
0006
0002
0002
0002
7c72
d48a
548a
548a
548a
548a
548a
fe77
0000
0000
ENDCHAR
STARTCHAR J2760
ENCODING 10080
SWIDTH 960 0
DWIDTH 16 0
BBX 16 16 0 -2
BITMAP
0000
0004
000c
0004
0004
0004
3c7c
4284
4084
4084
4084
4084
4284
3c7e
0000
0000
ENDCHAR
STARTCHAR J2761
ENCODING 10081
SWIDTH 960 0
DWIDTH 16 0
BBX 16 16 0 -2
BITMAP
0000
0002
0006
0002
0002
0002
5b1e
e4a2
40a2
47a2
48a2
48a2
48a2
e7df
0000
0000
ENDCHAR
STARTCHAR J2762
ENCODING 10082
SWIDTH 960 0
DWIDTH 16 0
BBX 16 16 0 -2
BITMAP
0041
00c2
0042
ddc4
6544
5d48
5548
5550
5556
fee9
0048
0084
0082
0101
0209
0406
ENDCHAR
STARTCHAR J2763
ENCODING 10083
SWIDTH 960 0
DWIDTH 16 0
BBX 16 16 0 -2
BITMAP
0048
00cf
0049
ddd7
6554
4557
5d60
5560
554e
fed1
0050
008c
0082
0101
0111
020e
ENDCHAR
STARTCHAR J2764
ENCODING 10084
SWIDTH 960 0
DWIDTH 16 0
BBX 16 16 0 -2
BITMAP
0000
0000
0000
0000
0000
0000
3c2c
4272
4020
3820
0420
0220
4220
3c70
0000
0000
ENDCHAR
STARTCHAR J2765
ENCODING 10085
SWIDTH 960 0
DWIDTH 16 0
BBX 16 16 0 -2
BITMAP
0000
7e00
2100
2100
2100
2100
2178
3e84
2004
207c
2084
2084
2084
707a
0000
0000
ENDCHAR
STARTCHAR J2766
ENCODING 10086
SWIDTH 960 0
DWIDTH 16 0
BBX 16 16 0 -2
BITMAP
0000
43c0
c120
4120
4120
4120
4f3c
45e2
4902
711e
5922
4d22
4722
e79d
0000
0000
ENDCHAR
STARTCHAR J2767
ENCODING 10087
SWIDTH 960 0
DWIDTH 16 0
BBX 16 16 0 -2
BITMAP
0000
8bc0
8920
d920
d920
d920
a93e
a9e2
a902
a91e
a922
8922
8922
8bbd
0000
0000
ENDCHAR
STARTCHAR J2768
ENCODING 10088
SWIDTH 960 0
DWIDTH 16 0
BBX 16 16 0 -2
BITMAP
0000
7bc0
8520
8120
8120
8120
813e
81e2
9d02
891e
8922
8922
8922
7b9d
0000
0000
ENDCHAR
STARTCHAR J2769
ENCODING 10089
SWIDTH 960 0
DWIDTH 16 0
BBX 16 16 0 -2
BITMAP
0000
eef0
4450
4450
4450
4450
225e
2291
2691
2691
2a91
1111
1111
113e
0000
0000
ENDCHAR
STARTCHAR J276a
ENCODING 10090
SWIDTH 960 0
DWIDTH 16 0
BBX 16 16 0 -2
BITMAP
0000
2000
6000
2000
2000
2000
216c
23b4
2124
2124
2124
2124
2124
73b6
0000
0000
ENDCHAR
STARTCHAR J276b
ENCODING 10091
SWIDTH 960 0
DWIDTH 16 0
BBX 16 16 0 -2
BITMAP
0000
2000
6000
2000
2000
2000
239c
2108
2090
2060
2060
2090
2108
739c
0000
0000
ENDCHAR
STARTCHAR J276c
ENCODING 10092
SWIDTH 960 0
DWIDTH 16 0
BBX 16 16 0 -2
BITMAP
0000
7c00
2200
2200
2200
2200
3c3c
2244
2144
2144
2144
2144
223c
7c04
0004
000e
ENDCHAR
STARTCHAR J276d
ENCODING 10093
SWIDTH 960 0
DWIDTH 16 0
BBX 16 16 0 -2
BITMAP
0000
3e00
4100
8000
8000
8000
80e7
8042
8022
83a4
8114
8118
4308
3d10
0010
0060
ENDCHAR
STARTCHAR J276e
ENCODING 10094
SWIDTH 960 0
DWIDTH 16 0
BBX 16 16 0 -2
BITMAP
0000
3e00
4100
4080
4000
2000
19c7
0682
0144
00c4
00a8
40a8
2110
3e10
0000
0000
ENDCHAR
STARTCHAR J276f
ENCODING 10095
SWIDTH 960 0
DWIDTH 16 0
BBX 16 16 0 -2
BITMAP
0010
7020
8840
8080
8100
8a00
7603
0e7e
122a
224e
4390
82ce
0271
0231
0739
000e
ENDCHAR
STARTCHAR J2821
ENCODING 10273
SWIDTH 960 0
DWIDTH 16 0
BBX 16 16 0 -2
BITMAP
0000
03fc
0504
0502
0900
0908
0908
11fc
1f84
2080
2080
2081
4082
e1fe
0000
0000
ENDCHAR
STARTCHAR J2822
ENCODING 10274
SWIDTH 960 0
DWIDTH 16 0
BBX 16 16 0 -2
BITMAP
0000
1ff0
0808
0804
0804
0804
0804
3e04
0804
0804
0804
0804
0808
1ff0
0000
0000
ENDCHAR
STARTCHAR J2823
ENCODING 10275
SWIDTH 960 0
DWIDTH 16 0
BBX 16 16 0 -2
BITMAP
0000
0000
0000
0000
0000
0000
0f80
1040
0040
0fc0
1040
1040
1048
0fb0
0000
7ffc
ENDCHAR
STARTCHAR J2824
ENCODING 10276
SWIDTH 960 0
DWIDTH 16 0
BBX 16 16 0 -2
BITMAP
0000
3838
1010
1010
7ffc
1010
1010
1ff0
1010
1010
1010
1010
1010
3838
0000
0000
ENDCHAR
STARTCHAR J2826
ENCODING 10278
SWIDTH 960 0
DWIDTH 16 0
BBX 16 16 0 -2
BITMAP
0000
0000
3838
1010
1010
1010
1010
1010
1010
1010
1010
1010
1010
3810
0310
00e0
ENDCHAR
STARTCHAR J2828
ENCODING 10280
SWIDTH 960 0
DWIDTH 16 0
BBX 16 16 0 -2
BITMAP
0000
3800
1000
1000
1000
1018
1024
1018
1000
1000
1000
1008
1010
3ff0
0000
0000
ENDCHAR
STARTCHAR J2829
ENCODING 10281
SWIDTH 960 0
DWIDTH 16 0
BBX 16 16 0 -2
BITMAP
0000
3800
1000
1100
1600
1800
7000
1000
1000
1000
1000
1004
1018
3ff0
0000
0000
ENDCHAR
STARTCHAR J282a
ENCODING 10282
SWIDTH 960 0
DWIDTH 16 0
BBX 16 16 0 -2
BITMAP
0000
0010
07e0
0830
1048
1088
1088
1108
1208
1208
1408
1408
0810
17e0
2000
0000
ENDCHAR
STARTCHAR J282b
ENCODING 10283
SWIDTH 960 0
DWIDTH 16 0
BBX 16 16 0 -2
BITMAP
0000
3dfe
4282
8181
8180
8180
8188
81f8
8188
8180
8180
8181
4282
3dfe
0000
0000
ENDCHAR
STARTCHAR J282c
ENCODING 10284
SWIDTH 960 0
DWIDTH 16 0
BBX 16 16 0 -2
BITMAP
0000
0000
0000
0000
0000
0000
03c0
0420
0810
0810
0810
0810
0420
03c0
0000
1ff8
ENDCHAR
STARTCHAR J282d
ENCODING 10285
SWIDTH 960 0
DWIDTH 16 0
BBX 16 16 0 -2
BITMAP
0000
3e00
0800
0800
0ff0
0808
0808
0808
0808
0808
0ff0
0800
0800
3f80
0000
0000
ENDCHAR
STARTCHAR J282e
ENCODING 10286
SWIDTH 960 0
DWIDTH 16 0
BBX 16 16 0 -2
BITMAP
0000
1ff0
2108
0100
0100
0100
1ff0
0100
0100
0100
0100
0100
0100
07c0
0000
0000
ENDCHAR
STARTCHAR J282f
ENCODING 10287
SWIDTH 960 0
DWIDTH 16 0
BBX 16 16 0 -2
BITMAP
0000
1e00
0800
0800
0be0
0c10
0808
0808
0808
0808
0808
0808
0810
1ce0
0000
0000
ENDCHAR
STARTCHAR J2831
ENCODING 10289
SWIDTH 960 0
DWIDTH 16 0
BBX 16 16 0 -2
BITMAP
0000
0ff0
1008
2004
4002
5ff2
4012
4012
4012
4012
4012
4012
2004
1008
0ff0
0000
ENDCHAR
STARTCHAR J2832
ENCODING 10290
SWIDTH 960 0
DWIDTH 16 0
BBX 16 16 0 -2
BITMAP
0000
0ff0
1008
2004
4002
4802
4802
4802
4802
4802
4802
4ff2
2004
1008
0ff0
0000
ENDCHAR
STARTCHAR J2833
ENCODING 10291
SWIDTH 960 0
DWIDTH 16 0
BBX 16 16 0 -2
BITMAP
0000
0ff0
1008
2004
4ff2
4802
4802
4802
4802
4802
4ff2
4002
2004
1008
0ff0
0000
ENDCHAR
STARTCHAR J2834
ENCODING 10292
SWIDTH 960 0
DWIDTH 16 0
BBX 16 16 0 -2
BITMAP
0000
0ff0
1008
2004
4ff2
4012
4012
4ff2
4802
4802
4802
4ffa
2004
1008
0ff0
0000
ENDCHAR
STARTCHAR J2835
ENCODING 10293
SWIDTH 960 0
DWIDTH 16 0
BBX 16 16 0 -2
BITMAP
0000
0ff0
1008
2004
4ff2
4812
4812
4812
4812
4812
4ff2
4002
2004
1008
0ff0
0000
ENDCHAR
STARTCHAR J2836
ENCODING 10294
SWIDTH 960 0
DWIDTH 16 0
BBX 16 16 0 -2
BITMAP
0000
0ff0
1008
2004
4812
4812
4812
4ff2
4812
4812
4812
4ff2
2004
1008
0ff0
0000
ENDCHAR
STARTCHAR J2837
ENCODING 10295
SWIDTH 960 0
DWIDTH 16 0
BBX 16 16 0 -2
BITMAP
0000
0ff0
1008
2084
4082
4082
4142
4142
4222
4222
4412
480a
2004
1008
0ff0
0000
ENDCHAR
STARTCHAR J2838
ENCODING 10296
SWIDTH 960 0
DWIDTH 16 0
BBX 16 16 0 -2
BITMAP
0000
0ff0
1008
2004
43c2
4422
4812
4812
4812
4812
4422
43c2
2004
1008
0ff0
0000
ENDCHAR
STARTCHAR J2839
ENCODING 10297
SWIDTH 960 0
DWIDTH 16 0
BBX 16 16 0 -2
BITMAP
0000
0ff0
1008
2004
4002
4ffa
4082
4082
4142
4222
4412
480a
2004
1008
0ff0
0000
ENDCHAR
STARTCHAR J283a
ENCODING 10298
SWIDTH 960 0
DWIDTH 16 0
BBX 16 16 0 -2
BITMAP
0000
0ff0
1008
2004
43e2
4002
4ffa
4082
4142
4222
4412
480a
2004
1008
0ff0
0000
ENDCHAR
STARTCHAR J283b
ENCODING 10299
SWIDTH 960 0
DWIDTH 16 0
BBX 16 16 0 -2
BITMAP
0000
0ff0
1008
2004
4ff2
4012
4012
5ff2
4012
4012
4012
4012
2004
1008
0ff0
0000
ENDCHAR
STARTCHAR J283c
ENCODING 10300
SWIDTH 960 0
DWIDTH 16 0
BBX 16 16 0 -2
BITMAP
0000
0ff0
1008
2004
4fe2
4802
4802
4fe2
4802
4802
4802
4ff2
2004
1008
0ff0
0000
ENDCHAR
STARTCHAR J283d
ENCODING 10301
SWIDTH 960 0
DWIDTH 16 0
BBX 16 16 0 -2
BITMAP
0000
0ff0
1008
2004
4002
4ff2
4002
4422
4222
4242
4242
5ffa
2004
1008
0ff0
0000
ENDCHAR
STARTCHAR J283e
ENCODING 10302
SWIDTH 960 0
DWIDTH 16 0
BBX 16 16 0 -2
BITMAP
0000
0ff0
1008
2004
47e2
4002
5ffa
4002
43c2
4422
4422
43c2
2004
1008
0ff0
0000
ENDCHAR
STARTCHAR J283f
ENCODING 10303
SWIDTH 960 0
DWIDTH 16 0
BBX 16 16 0 -2
BITMAP
0000
0ff0
1028
2024
5fa2
40a2
413e
4122
4222
4422
4822
5022
2024
1028
0ff0
0000
ENDCHAR
STARTCHAR J2840
ENCODING 10304
SWIDTH 960 0
DWIDTH 16 0
BBX 16 16 0 -2
BITMAP
0000
0ff0
1028
2024
5022
5022
5022
503e
5022
5fe2
4022
4022
2024
1028
0ff0
0000
ENDCHAR
STARTCHAR J2841
ENCODING 10305
SWIDTH 960 0
DWIDTH 16 0
BBX 16 16 0 -2
BITMAP
0000
0ff0
1028
2024
5fa2
5022
5022
503e
5022
5fa2
4022
4022
2024
1028
0ff0
0000
ENDCHAR
STARTCHAR J2842
ENCODING 10306
SWIDTH 960 0
DWIDTH 16 0
BBX 16 16 0 -2
BITMAP
0000
0ff0
1028
2024
5fa2
40a2
40a2
5fbe
5022
5022
5fa2
4022
2024
1028
0ff0
0000
ENDCHAR
STARTCHAR J2843
ENCODING 10307
SWIDTH 960 0
DWIDTH 16 0
BBX 16 16 0 -2
BITMAP
0000
0ff0
1028
2024
4022
5f22
5122
513e
5122
5122
5f22
4022
2024
1028
0ff0
0000
ENDCHAR
STARTCHAR J2844
ENCODING 10308
SWIDTH 960 0
DWIDTH 16 0
BBX 16 16 0 -2
BITMAP
0000
0ff0
1028
2024
5122
5122
5f22
513e
5122
5122
5f22
4022
2024
1028
0ff0
0000
ENDCHAR
STARTCHAR J2845
ENCODING 10309
SWIDTH 960 0
DWIDTH 16 0
BBX 16 16 0 -2
BITMAP
0000
0ff0
1028
2224
4222
4422
4622
493e
50a2
6022
4022
4022
2024
1028
0ff0
0000
ENDCHAR
STARTCHAR J2846
ENCODING 10310
SWIDTH 960 0
DWIDTH 16 0
BBX 16 16 0 -2
BITMAP
0000
0ff0
1028
2024
4e22
5122
5122
513e
5122
5122
4e22
4022
2024
1028
0ff0
0000
ENDCHAR
STARTCHAR J2847
ENCODING 10311
SWIDTH 960 0
DWIDTH 16 0
BBX 16 16 0 -2
BITMAP
0000
0ff0
1028
2024
5fe2
4222
4222
453e
48a2
5062
6022
4022
2024
1028
0ff0
0000
ENDCHAR
STARTCHAR J2848
ENCODING 10312
SWIDTH 960 0
DWIDTH 16 0
BBX 16 16 0 -2
BITMAP
0000
0ff0
1028
27a4
4022
5fe2
4222
453e
48a2
5062
6022
4022
2024
1028
0ff0
0000
ENDCHAR
STARTCHAR J2849
ENCODING 10313
SWIDTH 960 0
DWIDTH 16 0
BBX 16 16 0 -2
BITMAP
0000
0ff0
1028
2024
5fa2
40a2
4122
5e3e
4422
4822
5022
6022
2024
1028
0ff0
0000
ENDCHAR
STARTCHAR J284a
ENCODING 10314
SWIDTH 960 0
DWIDTH 16 0
BBX 16 16 0 -2
BITMAP
0000
0ff0
1028
2024
5fa2
5022
5fa2
503e
5022
5fa2
4022
6022
2024
1028
0ff0
0000
ENDCHAR
STARTCHAR J284b
ENCODING 10315
SWIDTH 960 0
DWIDTH 16 0
BBX 16 16 0 -2
BITMAP
0000
0ff0
1028
2024
5fa2
4022
50a2
493e
4922
4be2
7c22
4022
2024
1028
0ff0
0000
ENDCHAR
STARTCHAR J284c
ENCODING 10316
SWIDTH 960 0
DWIDTH 16 0
BBX 16 16 0 -2
BITMAP
0000
0ff0
1028
2f24
4022
7fe2
4022
4f3e
50a2
50a2
4f22
4022
2024
1028
0ff0
0000
ENDCHAR
STARTCHAR J284d
ENCODING 10317
SWIDTH 960 0
DWIDTH 16 0
BBX 16 16 0 -2
BITMAP
0000
0ff0
1008
2004
4002
47c2
4822
4022
47e2
4822
4822
47da
2004
1008
0ff0
0000
ENDCHAR
STARTCHAR J284e
ENCODING 10318
SWIDTH 960 0
DWIDTH 16 0
BBX 16 16 0 -2
BITMAP
0000
0ff0
1408
2c04
4402
45c2
4622
4412
4412
4412
4622
4dc2
2004
1008
0ff0
0000
ENDCHAR
STARTCHAR J284f
ENCODING 10319
SWIDTH 960 0
DWIDTH 16 0
BBX 16 16 0 -2
BITMAP
0000
0ff0
1008
2004
4002
43c2
4422
4802
4802
4802
4432
43c2
2004
1008
0ff0
0000
ENDCHAR
STARTCHAR J2850
ENCODING 10320
SWIDTH 960 0
DWIDTH 16 0
BBX 16 16 0 -2
BITMAP
0000
0ff0
1028
2064
4022
43a2
4462
4822
4822
4822
4822
47d2
2004
1008
0ff0
0000
ENDCHAR
STARTCHAR J2851
ENCODING 10321
SWIDTH 960 0
DWIDTH 16 0
BBX 16 16 0 -2
BITMAP
0000
0ff0
1008
2004
4002
43c2
4422
4812
4ff2
4802
4412
43e2
2004
1008
0ff0
0000
ENDCHAR
STARTCHAR J2852
ENCODING 10322
SWIDTH 960 0
DWIDTH 16 0
BBX 16 16 0 -2
BITMAP
0000
0ff0
11c8
2164
4102
47c2
4102
4102
4102
4102
4102
4382
2004
1008
0ff0
0000
ENDCHAR
STARTCHAR J2853
ENCODING 10323
SWIDTH 960 0
DWIDTH 16 0
BBX 16 16 0 -2
BITMAP
0000
0ff0
1008
2004
4062
43c2
4422
4422
47c2
4802
4fe2
4812
2814
17e8
0ff0
0000
ENDCHAR
STARTCHAR J2854
ENCODING 10324
SWIDTH 960 0
DWIDTH 16 0
BBX 16 16 0 -2
BITMAP
0000
0ff0
1408
2c04
4402
45e2
4622
4422
4422
4422
4422
4e72
2004
1008
0ff0
0000
ENDCHAR
STARTCHAR J2855
ENCODING 10325
SWIDTH 960 0
DWIDTH 16 0
BBX 16 16 0 -2
BITMAP
0000
0ff0
1088
2084
4002
4082
4182
4082
4082
4082
4082
41c2
2004
1008
0ff0
0000
ENDCHAR
STARTCHAR J2856
ENCODING 10326
SWIDTH 960 0
DWIDTH 16 0
BBX 16 16 0 -2
BITMAP
0000
0ff0
1088
2084
4002
4082
4182
4082
4082
4082
4082
4082
2c84
1308
0ff0
0000
ENDCHAR
STARTCHAR J2857
ENCODING 10327
SWIDTH 960 0
DWIDTH 16 0
BBX 16 16 0 -2
BITMAP
0000
0ff0
1408
2c04
4402
44f2
4442
4582
46c2
4462
4432
4e7a
2004
1008
0ff0
0000
ENDCHAR
STARTCHAR J2858
ENCODING 10328
SWIDTH 960 0
DWIDTH 16 0
BBX 16 16 0 -2
BITMAP
0000
0ff0
1108
2304
4102
4102
4102
4102
4102
4102
4102
4382
2004
1008
0ff0
0000
ENDCHAR
STARTCHAR J2859
ENCODING 10329
SWIDTH 960 0
DWIDTH 16 0
BBX 16 16 0 -2
BITMAP
0000
0ff0
1008
2004
4002
4b62
5da2
4922
4922
4922
4922
5db2
2004
1008
0ff0
0000
ENDCHAR
STARTCHAR J285a
ENCODING 10330
SWIDTH 960 0
DWIDTH 16 0
BBX 16 16 0 -2
BITMAP
0000
0ff0
1008
2004
4002
45e2
4e22
4422
4422
4422
4422
4e72
2004
1008
0ff0
0000
ENDCHAR
STARTCHAR J285b
ENCODING 10331
SWIDTH 960 0
DWIDTH 16 0
BBX 16 16 0 -2
BITMAP
0000
0ff0
1008
2004
4002
43e2
4412
4412
4412
4412
4412
43e2
2004
1008
0ff0
0000
ENDCHAR
STARTCHAR J285c
ENCODING 10332
SWIDTH 960 0
DWIDTH 16 0
BBX 16 16 0 -2
BITMAP
0000
0ff0
1008
2004
4002
45c2
4e22
4412
4412
4412
4622
45c2
2404
1408
0ff0
0000
ENDCHAR
STARTCHAR J285d
ENCODING 10333
SWIDTH 960 0
DWIDTH 16 0
BBX 16 16 0 -2
BITMAP
0000
0ff0
1008
2004
4002
43a2
4462
4822
4822
4822
4462
43a2
2024
1028
0ff0
0000
ENDCHAR
STARTCHAR J285e
ENCODING 10334
SWIDTH 960 0
DWIDTH 16 0
BBX 16 16 0 -2
BITMAP
0000
0ff0
1008
2004
4002
44e2
4f32
4402
4402
4402
4402
4e02
2004
1008
0ff0
0000
ENDCHAR
STARTCHAR J285f
ENCODING 10335
SWIDTH 960 0
DWIDTH 16 0
BBX 16 16 0 -2
BITMAP
0000
0ff0
1008
2004
4002
43e2
4412
4602
41c2
4032
4412
43e2
2004
1008
0ff0
0000
ENDCHAR
STARTCHAR J2860
ENCODING 10336
SWIDTH 960 0
DWIDTH 16 0
BBX 16 16 0 -2
BITMAP
0000
0ff0
1008
2004
4102
4102
47c2
4102
4102
4102
4122
41c2
2004
1008
0ff0
0000
ENDCHAR
STARTCHAR J2861
ENCODING 10337
SWIDTH 960 0
DWIDTH 16 0
BBX 16 16 0 -2
BITMAP
0000
0ff0
1008
2004
4002
4422
4c62
4422
4422
4422
4422
47d2
2004
1008
0ff0
0000
ENDCHAR
STARTCHAR J2862
ENCODING 10338
SWIDTH 960 0
DWIDTH 16 0
BBX 16 16 0 -2
BITMAP
0000
0ff0
1008
2004
4002
4e3a
4412
4222
4222
4142
4142
4082
2004
1008
0ff0
0000
ENDCHAR
STARTCHAR J2863
ENCODING 10339
SWIDTH 960 0
DWIDTH 16 0
BBX 16 16 0 -2
BITMAP
0000
0ff0
1008
2004
4002
7bba
5112
5112
49a2
4aa2
4442
4442
2004
1008
0ff0
0000
ENDCHAR
STARTCHAR J2864
ENCODING 10340
SWIDTH 960 0
DWIDTH 16 0
BBX 16 16 0 -2
BITMAP
0000
0ff0
1008
2004
4002
5c72
4442
4282
4102
4282
4442
5c72
2004
1008
0ff0
0000
ENDCHAR
STARTCHAR J2865
ENCODING 10341
SWIDTH 960 0
DWIDTH 16 0
BBX 16 16 0 -2
BITMAP
0000
0ff0
1008
2004
4002
5c72
4822
4442
4282
4102
4102
4382
2004
1008
0ff0
0000
ENDCHAR
STARTCHAR J2866
ENCODING 10342
SWIDTH 960 0
DWIDTH 16 0
BBX 16 16 0 -2
BITMAP
0000
0ff0
1008
2004
4002
47e2
4422
4842
4182
4202
4422
4fc2
2004
1008
0ff0
0000
ENDCHAR
STARTCHAR J2867
ENCODING 10343
SWIDTH 960 0
DWIDTH 16 0
BBX 16 16 0 -2
BITMAP
0000
0ff0
1008
2104
4302
4102
4102
4102
4102
4102
4102
4382
2004
1008
0ff0
0000
ENDCHAR
STARTCHAR J2868
ENCODING 10344
SWIDTH 960 0
DWIDTH 16 0
BBX 16 16 0 -2
BITMAP
0000
0ff0
1008
23c4
4422
4422
4042
4182
4202
4412
4422
47e2
2004
1008
0ff0
0000
ENDCHAR
STARTCHAR J2869
ENCODING 10345
SWIDTH 960 0
DWIDTH 16 0
BBX 16 16 0 -2
BITMAP
0000
0ff0
1008
23c4
4422
4022
4042
41c2
4022
4022
4422
43c2
2004
1008
0ff0
0000
ENDCHAR
STARTCHAR J286a
ENCODING 10346
SWIDTH 960 0
DWIDTH 16 0
BBX 16 16 0 -2
BITMAP
0000
0ff0
1008
2044
40c2
4142
4142
4242
4442
4ff2
4042
40e2
2004
1008
0ff0
0000
ENDCHAR
STARTCHAR J286b
ENCODING 10347
SWIDTH 960 0
DWIDTH 16 0
BBX 16 16 0 -2
BITMAP
0000
0ff0
1008
2424
47c2
4402
45c2
4622
4022
4022
4422
43c2
2004
1008
0ff0
0000
ENDCHAR
STARTCHAR J286c
ENCODING 10348
SWIDTH 960 0
DWIDTH 16 0
BBX 16 16 0 -2
BITMAP
0000
0ff0
1008
23c4
4422
4402
4402
47c2
4422
4422
4422
43c2
2004
1008
0ff0
0000
ENDCHAR
STARTCHAR J286d
ENCODING 10349
SWIDTH 960 0
DWIDTH 16 0
BBX 16 16 0 -2
BITMAP
0000
0ff0
1008
27e4
4822
4042
4042
4082
4082
4102
4102
4102
2004
1008
0ff0
0000
ENDCHAR
STARTCHAR J286e
ENCODING 10350
SWIDTH 960 0
DWIDTH 16 0
BBX 16 16 0 -2
BITMAP
0000
0ff0
1008
23c4
4422
4422
4422
43c2
4422
4422
4422
43c2
2004
1008
0ff0
0000
ENDCHAR
STARTCHAR J286f
ENCODING 10351
SWIDTH 960 0
DWIDTH 16 0
BBX 16 16 0 -2
BITMAP
0000
0ff0
1008
23c4
4422
4422
4422
43e2
4022
4022
4422
43c2
2004
1008
0ff0
0000
ENDCHAR
STARTCHAR J2870
ENCODING 10352
SWIDTH 960 0
DWIDTH 16 0
BBX 16 16 0 -2
BITMAP
0000
0ff0
1008
24e4
4d12
4512
4512
4512
4512
4512
4512
4ee2
2004
1008
0ff0
0000
ENDCHAR
STARTCHAR J2871
ENCODING 10353
SWIDTH 960 0
DWIDTH 16 0
BBX 16 16 0 -2
BITMAP
0000
0ff0
1008
2424
4c62
4422
4422
4422
4422
4422
4422
4e72
2004
1008
0ff0
0000
ENDCHAR
STARTCHAR J2872
ENCODING 10354
SWIDTH 960 0
DWIDTH 16 0
BBX 16 16 0 -2
BITMAP
0000
0ff0
1008
24e4
4d12
4592
4412
4462
4482
4502
450a
4ff2
2004
1008
0ff0
0000
ENDCHAR
STARTCHAR J2873
ENCODING 10355
SWIDTH 960 0
DWIDTH 16 0
BBX 16 16 0 -2
BITMAP
0000
0ff0
1008
24e4
4d12
4412
4412
4462
4412
4512
4512
4ee2
2004
1008
0ff0
0000
ENDCHAR
STARTCHAR J2874
ENCODING 10356
SWIDTH 960 0
DWIDTH 16 0
BBX 16 16 0 -2
BITMAP
0000
0ff0
1008
2424
4c62
4462
44a2
44a2
4522
47fa
4422
4e72
2004
1008
0ff0
0000
ENDCHAR
STARTCHAR J2875
ENCODING 10357
SWIDTH 960 0
DWIDTH 16 0
BBX 16 16 0 -2
BITMAP
0000
0ff0
1008
2594
4d62
4502
4562
4592
4412
4412
4512
4ee2
2004
1008
0ff0
0000
ENDCHAR
STARTCHAR J2876
ENCODING 10358
SWIDTH 960 0
DWIDTH 16 0
BBX 16 16 0 -2
BITMAP
0000
1002
3004
1008
1010
1020
1040
109c
3922
0202
0404
0818
1020
2022
403e
0000
ENDCHAR
STARTCHAR J2877
ENCODING 10359
SWIDTH 960 0
DWIDTH 16 0
BBX 16 16 0 -2
BITMAP
0000
1002
3004
1008
1010
1020
1040
109c
3922
0202
040c
0802
1002
2022
401c
0000
ENDCHAR
STARTCHAR J2878
ENCODING 10360
SWIDTH 960 0
DWIDTH 16 0
BBX 16 16 0 -2
BITMAP
0000
3802
4404
0408
1810
2020
4040
449c
7d22
0202
040c
0802
1002
2022
401c
0000
ENDCHAR
STARTCHAR J2879
ENCODING 10361
SWIDTH 960 0
DWIDTH 16 0
BBX 16 16 0 -2
BITMAP
0000
1002
3004
1008
1010
1020
1040
1088
3918
0218
0428
0848
10fe
2008
401c
0000
ENDCHAR
STARTCHAR J287a
ENCODING 10362
SWIDTH 960 0
DWIDTH 16 0
BBX 16 16 0 -2
BITMAP
0000
3802
4404
0408
1810
0420
0440
4488
3918
0218
0428
0848
10fe
2008
401c
0000
ENDCHAR
STARTCHAR J287b
ENCODING 10363
SWIDTH 960 0
DWIDTH 16 0
BBX 16 16 0 -2
BITMAP
0000
1002
3004
1008
1010
1020
1040
10bc
3942
0242
043c
0842
1042
2042
403c
0000
ENDCHAR
STARTCHAR J287c
ENCODING 10364
SWIDTH 960 0
DWIDTH 16 0
BBX 16 16 0 -2
BITMAP
0000
3802
4404
0408
1810
0420
0440
44bc
3942
0242
043c
0842
1042
2042
403c
0000
ENDCHAR
STARTCHAR J287d
ENCODING 10365
SWIDTH 960 0
DWIDTH 16 0
BBX 16 16 0 -2
BITMAP
0000
6402
5804
4008
5810
6420
0440
44bc
3942
0242
043c
0842
1042
2042
403c
0000
ENDCHAR
STARTCHAR J287e
ENCODING 10366
SWIDTH 960 0
DWIDTH 16 0
BBX 16 16 0 -2
BITMAP
0000
3e02
4204
0408
0410
0820
0840
10bc
1142
0242
043c
0842
1042
2042
403c
0000
ENDCHAR
STARTCHAR J2921
ENCODING 10529
SWIDTH 960 0
DWIDTH 16 0
BBX 16 16 0 -2
BITMAP
0000
0000
0000
0000
0000
0000
3ef8
4104
0104
3ffc
4100
4104
4188
3e70
0000
0000
ENDCHAR
STARTCHAR J2922
ENCODING 10530
SWIDTH 960 0
DWIDTH 16 0
BBX 16 16 0 -2
BITMAP
0000
0020
0060
0020
1ff0
0020
07a0
0860
1020
1020
1020
1020
0860
07b0
0000
0000
ENDCHAR
STARTCHAR J2923
ENCODING 10531
SWIDTH 960 0
DWIDTH 16 0
BBX 16 16 0 -2
BITMAP
0000
0020
0040
07c0
0920
1210
0010
07d0
0830
1010
1010
1010
0820
07c0
0000
0000
ENDCHAR
STARTCHAR J2924
ENCODING 10532
SWIDTH 960 0
DWIDTH 16 0
BBX 16 16 0 -2
BITMAP
0000
0800
1800
0800
3ff0
0800
08e0
0b10
0c10
0810
0810
0810
0810
1c38
0000
0000
ENDCHAR
STARTCHAR J2925
ENCODING 10533
SWIDTH 960 0
DWIDTH 16 0
BBX 16 16 0 -2
BITMAP
0000
0000
0000
0000
0000
0000
0100
0300
0100
0100
0100
0100
0100
0380
0000
0000
ENDCHAR
STARTCHAR J2926
ENCODING 10534
SWIDTH 960 0
DWIDTH 16 0
BBX 16 16 0 -2
BITMAP
0000
0410
0410
0000
0000
0000
0410
0c30
0410
0410
0410
0410
0410
0e10
0190
0060
ENDCHAR
STARTCHAR J2927
ENCODING 10535
SWIDTH 960 0
DWIDTH 16 0
BBX 16 16 0 -2
BITMAP
0000
0000
0000
0000
0000
0000
09e0
1880
0900
0b00
0d80
08c0
0860
1e70
0000
0000
ENDCHAR
STARTCHAR J2928
ENCODING 10536
SWIDTH 960 0
DWIDTH 16 0
BBX 16 16 0 -2
BITMAP
0000
0200
0600
0200
0200
0260
0290
0260
0200
0200
0200
0200
0200
0700
0000
0000
ENDCHAR
STARTCHAR J2929
ENCODING 10537
SWIDTH 960 0
DWIDTH 16 0
BBX 16 16 0 -2
BITMAP
0000
0100
0300
0120
0140
0180
0100
0300
0500
0100
0100
0100
0100
0380
0000
0000
ENDCHAR
STARTCHAR J292a
ENCODING 10538
SWIDTH 960 0
DWIDTH 16 0
BBX 16 16 0 -2
BITMAP
0000
0000
0000
0000
0000
0008
03f0
0428
0848
0888
0908
0a08
0410
0be0
1000
0000
ENDCHAR
STARTCHAR J292b
ENCODING 10539
SWIDTH 960 0
DWIDTH 16 0
BBX 16 16 0 -2
BITMAP
0000
0000
0000
0000
0000
0000
3ef8
4104
4104
41fc
4100
4100
4184
3e78
0000
0000
ENDCHAR
STARTCHAR J292c
ENCODING 10540
SWIDTH 960 0
DWIDTH 16 0
BBX 16 16 0 -2
BITMAP
0000
0000
0000
0000
07e0
0810
0810
0860
0820
0810
0810
0a10
0a10
09e0
1c00
0000
ENDCHAR
STARTCHAR J292d
ENCODING 10541
SWIDTH 960 0
DWIDTH 16 0
BBX 16 16 0 -2
BITMAP
0000
0000
0000
0000
0000
0000
1c00
0800
0fe0
0810
0810
0fe0
0800
1c00
0000
0000
ENDCHAR
STARTCHAR J292e
ENCODING 10542
SWIDTH 960 0
DWIDTH 16 0
BBX 16 16 0 -2
BITMAP
0000
0000
0130
01c0
0700
1900
07c0
0100
0100
0100
0100
0100
0120
01c0
0000
0000
ENDCHAR
STARTCHAR J292f
ENCODING 10543
SWIDTH 960 0
DWIDTH 16 0
BBX 16 16 0 -2
BITMAP
0000
0000
0000
0000
0000
0000
09e0
1a20
0c20
0820
0820
0820
0820
1c20
0020
01c0
ENDCHAR
STARTCHAR J2930
ENCODING 10544
SWIDTH 960 0
DWIDTH 16 0
BBX 16 16 0 -2
BITMAP
0000
0000
0000
0000
0000
0000
09e0
1e20
0820
0820
0820
0820
0820
1c70
0000
0000
ENDCHAR
STARTCHAR J2931
ENCODING 10545
SWIDTH 960 0
DWIDTH 16 0
BBX 16 16 0 -2
BITMAP
0000
1818
2004
4002
4ff2
4012
4012
4012
4012
4012
4012
4012
4002
2004
1818
0000
ENDCHAR
STARTCHAR J2932
ENCODING 10546
SWIDTH 960 0
DWIDTH 16 0
BBX 16 16 0 -2
BITMAP
0000
1818
2004
4002
4402
4402
4402
4402
4402
4402
47fa
4002
4002
2004
1818
0000
ENDCHAR
STARTCHAR J2933
ENCODING 10547
SWIDTH 960 0
DWIDTH 16 0
BBX 16 16 0 -2
BITMAP
0000
1818
2004
4002
4002
4ff2
4802
4802
4802
4802
4802
4ff2
4002
2004
1818
0000
ENDCHAR
STARTCHAR J2934
ENCODING 10548
SWIDTH 960 0
DWIDTH 16 0
BBX 16 16 0 -2
BITMAP
0000
1818
2004
4002
4ff2
4012
4012
4ff2
4802
4802
4802
4ffa
4002
2004
1818
0000
ENDCHAR
STARTCHAR J2935
ENCODING 10549
SWIDTH 960 0
DWIDTH 16 0
BBX 16 16 0 -2
BITMAP
0000
1818
2004
4002
4002
4ff2
4812
4812
4812
4812
4ff2
4002
4002
2004
1818
0000
ENDCHAR
STARTCHAR J2936
ENCODING 10550
SWIDTH 960 0
DWIDTH 16 0
BBX 16 16 0 -2
BITMAP
0000
1818
2004
4002
4812
4812
4812
4ff2
4812
4812
4812
4ff2
4002
2004
1818
0000
ENDCHAR
STARTCHAR J2937
ENCODING 10551
SWIDTH 960 0
DWIDTH 16 0
BBX 16 16 0 -2
BITMAP
0000
1818
2004
4082
4082
4082
4142
4142
4222
4412
480a
4002
4002
2004
1818
0000
ENDCHAR
STARTCHAR J2938
ENCODING 10552
SWIDTH 960 0
DWIDTH 16 0
BBX 16 16 0 -2
BITMAP
0000
1818
2004
4002
43c2
4422
4812
4812
4812
4812
4422
43c2
4002
2004
1818
0000
ENDCHAR
STARTCHAR J2939
ENCODING 10553
SWIDTH 960 0
DWIDTH 16 0
BBX 16 16 0 -2
BITMAP
0000
1818
2004
4002
5ff2
4102
4102
4282
4282
4442
4822
5012
4002
2004
1818
0000
ENDCHAR
STARTCHAR J293a
ENCODING 10554
SWIDTH 960 0
DWIDTH 16 0
BBX 16 16 0 -2
BITMAP
0000
1818
2004
43e2
4002
4002
4ffa
4082
4142
4222
4412
480a
4002
2004
1818
0000
ENDCHAR
STARTCHAR J293b
ENCODING 10555
SWIDTH 960 0
DWIDTH 16 0
BBX 16 16 0 -2
BITMAP
0000
1818
2004
4002
4ff2
4012
4012
5ff2
4012
4012
4012
4012
4012
2004
1818
0000
ENDCHAR
STARTCHAR J293c
ENCODING 10556
SWIDTH 960 0
DWIDTH 16 0
BBX 16 16 0 -2
BITMAP
0000
1818
2004
4002
4ff2
4802
4802
4ff2
4802
4802
4802
4ff2
4002
2004
1818
0000
ENDCHAR
STARTCHAR J293d
ENCODING 10557
SWIDTH 960 0
DWIDTH 16 0
BBX 16 16 0 -2
BITMAP
0000
1818
2004
4002
4002
4ff2
4002
4422
4422
4242
4242
5ffa
4002
2004
1818
0000
ENDCHAR
STARTCHAR J293e
ENCODING 10558
SWIDTH 960 0
DWIDTH 16 0
BBX 16 16 0 -2
BITMAP
0000
1818
2004
4002
43c2
4002
5ffa
4002
43c2
4422
4422
4422
43c2
2004
1818
0000
ENDCHAR
STARTCHAR J293f
ENCODING 10559
SWIDTH 960 0
DWIDTH 16 0
BBX 16 16 0 -2
BITMAP
0000
1818
2024
4022
5fa2
40a2
413e
4222
4422
4822
5022
6022
4022
2024
1818
0000
ENDCHAR
STARTCHAR J2940
ENCODING 10560
SWIDTH 960 0
DWIDTH 16 0
BBX 16 16 0 -2
BITMAP
0000
1818
2024
4022
5022
5022
5022
503e
5022
5fe2
4022
4022
4022
2024
1818
0000
ENDCHAR
STARTCHAR J2941
ENCODING 10561
SWIDTH 960 0
DWIDTH 16 0
BBX 16 16 0 -2
BITMAP
0000
1818
2024
4022
5fa2
5022
5022
503e
5022
5fa2
4022
4022
4022
2024
1818
0000
ENDCHAR
STARTCHAR J2942
ENCODING 10562
SWIDTH 960 0
DWIDTH 16 0
BBX 16 16 0 -2
BITMAP
0000
1818
2024
4022
5fa2
40a2
40a2
5fbe
5022
5022
5fa2
4022
4022
2024
1818
0000
ENDCHAR
STARTCHAR J2943
ENCODING 10563
SWIDTH 960 0
DWIDTH 16 0
BBX 16 16 0 -2
BITMAP
0000
1818
2024
4022
4022
5f22
5122
513e
5122
5f22
4022
4022
4022
2024
1818
0000
ENDCHAR
STARTCHAR J2944
ENCODING 10564
SWIDTH 960 0
DWIDTH 16 0
BBX 16 16 0 -2
BITMAP
0000
1818
2024
4022
5122
5122
5f22
513e
5122
5f22
4022
4022
4022
2024
1818
0000
ENDCHAR
STARTCHAR J2945
ENCODING 10565
SWIDTH 960 0
DWIDTH 16 0
BBX 16 16 0 -2
BITMAP
0000
1818
2024
4022
4422
4422
4a22
4a3e
5122
60a2
4022
4022
4022
2024
1818
0000
ENDCHAR
STARTCHAR J2946
ENCODING 10566
SWIDTH 960 0
DWIDTH 16 0
BBX 16 16 0 -2
BITMAP
0000
1818
2024
4022
4e22
5122
5122
513e
5122
5122
4e22
4022
4022
2024
1818
0000
ENDCHAR
STARTCHAR J2947
ENCODING 10567
SWIDTH 960 0
DWIDTH 16 0
BBX 16 16 0 -2
BITMAP
0000
1818
2024
4022
5fe2
4222
4222
453e
4522
48a2
5062
4022
4022
2024
1818
0000
ENDCHAR
STARTCHAR J2948
ENCODING 10568
SWIDTH 960 0
DWIDTH 16 0
BBX 16 16 0 -2
BITMAP
0000
1818
2024
4722
4022
5fe2
4222
423e
4522
48a2
5062
4022
4022
2024
1818
0000
ENDCHAR
STARTCHAR J2949
ENCODING 10569
SWIDTH 960 0
DWIDTH 16 0
BBX 16 16 0 -2
BITMAP
0000
1818
2024
4022
5fa2
40a2
7f22
423e
4422
4822
5022
6022
4022
2024
1818
0000
ENDCHAR
STARTCHAR J294a
ENCODING 10570
SWIDTH 960 0
DWIDTH 16 0
BBX 16 16 0 -2
BITMAP
0000
1818
2024
4022
5fa2
5022
5fa2
503e
5022
5fa2
4022
6022
4022
2024
1818
0000
ENDCHAR
STARTCHAR J294b
ENCODING 10571
SWIDTH 960 0
DWIDTH 16 0
BBX 16 16 0 -2
BITMAP
0000
1818
2024
4022
5fa2
4022
50a2
493e
4922
4be2
7c22
4022
4022
2024
1818
0000
ENDCHAR
STARTCHAR J294c
ENCODING 10572
SWIDTH 960 0
DWIDTH 16 0
BBX 16 16 0 -2
BITMAP
0000
1818
2024
4f22
4022
7fe2
4022
4f3e
50a2
50a2
4f22
6022
4022
2024
1818
0000
ENDCHAR
STARTCHAR J294d
ENCODING 10573
SWIDTH 960 0
DWIDTH 16 0
BBX 16 16 0 -2
BITMAP
0000
1818
2004
4002
4002
43c2
4422
4022
43e2
4422
4422
43da
4002
2004
1818
0000
ENDCHAR
STARTCHAR J294e
ENCODING 10574
SWIDTH 960 0
DWIDTH 16 0
BBX 16 16 0 -2
BITMAP
0000
1818
2404
4c02
4402
45c2
4622
4412
4412
4412
4622
4dc2
4002
2004
1818
0000
ENDCHAR
STARTCHAR J294f
ENCODING 10575
SWIDTH 960 0
DWIDTH 16 0
BBX 16 16 0 -2
BITMAP
0000
1818
2004
4002
4002
43c2
4422
4802
4802
4812
4422
43c2
4002
2004
1818
0000
ENDCHAR
STARTCHAR J2950
ENCODING 10576
SWIDTH 960 0
DWIDTH 16 0
BBX 16 16 0 -2
BITMAP
0000
1818
2024
4062
4022
43a2
4462
4822
4822
4822
4462
43b2
4002
2004
1818
0000
ENDCHAR
STARTCHAR J2951
ENCODING 10577
SWIDTH 960 0
DWIDTH 16 0
BBX 16 16 0 -2
BITMAP
0000
1818
2004
4002
4002
47c2
4822
4822
4fe2
4802
4822
47c2
4002
2004
1818
0000
ENDCHAR
STARTCHAR J2952
ENCODING 10578
SWIDTH 960 0
DWIDTH 16 0
BBX 16 16 0 -2
BITMAP
0000
1818
20c4
4162
4102
47c2
4102
4102
4102
4102
4102
4382
4002
2004
1818
0000
ENDCHAR
STARTCHAR J2953
ENCODING 10579
SWIDTH 960 0
DWIDTH 16 0
BBX 16 16 0 -2
BITMAP
0000
1818
2004
4002
4032
43c2
4422
4422
4fc2
4802
47e2
4812
4812
27e4
1818
0000
ENDCHAR
STARTCHAR J2954
ENCODING 10580
SWIDTH 960 0
DWIDTH 16 0
BBX 16 16 0 -2
BITMAP
0000
1818
2404
4c02
4402
44e2
4722
4422
4422
4422
4422
4e72
4002
2004
1818
0000
ENDCHAR
STARTCHAR J2955
ENCODING 10581
SWIDTH 960 0
DWIDTH 16 0
BBX 16 16 0 -2
BITMAP
0000
1898
2084
4002
4002
4082
4182
4082
4082
4082
4082
41c2
4002
2004
1818
0000
ENDCHAR
STARTCHAR J2956
ENCODING 10582
SWIDTH 960 0
DWIDTH 16 0
BBX 16 16 0 -2
BITMAP
0000
1898
2084
4002
4002
4082
4182
4082
4082
4082
4082
4082
4482
2304
1818
0000
ENDCHAR
STARTCHAR J2957
ENCODING 10583
SWIDTH 960 0
DWIDTH 16 0
BBX 16 16 0 -2
BITMAP
0000
1818
2404
4c02
4402
44e2
4442
4482
4782
44c2
4462
4e72
4002
2004
1818
0000
ENDCHAR
STARTCHAR J2958
ENCODING 10584
SWIDTH 960 0
DWIDTH 16 0
BBX 16 16 0 -2
BITMAP
0000
1818
2104
4302
4102
4102
4102
4102
4102
4102
4102
4382
4002
2004
1818
0000
ENDCHAR
STARTCHAR J2959
ENCODING 10585
SWIDTH 960 0
DWIDTH 16 0
BBX 16 16 0 -2
BITMAP
0000
1818
2004
4002
4002
4b62
5da2
4922
4922
4922
4922
5db2
4002
2004
1818
0000
ENDCHAR
STARTCHAR J295a
ENCODING 10586
SWIDTH 960 0
DWIDTH 16 0
BBX 16 16 0 -2
BITMAP
0000
1818
2004
4002
4002
44e2
4f22
4422
4422
4422
4422
4e72
4002
2004
1818
0000
ENDCHAR
STARTCHAR J295b
ENCODING 10587
SWIDTH 960 0
DWIDTH 16 0
BBX 16 16 0 -2
BITMAP
0000
1818
2004
4002
4002
47c2
4822
4822
4822
4822
4822
47c2
4002
2004
1818
0000
ENDCHAR
STARTCHAR J295c
ENCODING 10588
SWIDTH 960 0
DWIDTH 16 0
BBX 16 16 0 -2
BITMAP
0000
1818
2004
4002
4002
45c2
4e22
4412
4412
4412
4622
45c2
4402
2e04
1818
0000
ENDCHAR
STARTCHAR J295d
ENCODING 10589
SWIDTH 960 0
DWIDTH 16 0
BBX 16 16 0 -2
BITMAP
0000
1818
2004
4002
4002
43a2
4462
4822
4822
4822
4462
43a2
4022
2074
1818
0000
ENDCHAR
STARTCHAR J295e
ENCODING 10590
SWIDTH 960 0
DWIDTH 16 0
BBX 16 16 0 -2
BITMAP
0000
1818
2004
4002
4002
44e2
4f32
4402
4402
4402
4402
4e02
4002
2004
1818
0000
ENDCHAR
STARTCHAR J295f
ENCODING 10591
SWIDTH 960 0
DWIDTH 16 0
BBX 16 16 0 -2
BITMAP
0000
1818
2004
4002
4002
43e2
4412
4402
43e2
4012
4412
43e2
4002
2004
1818
0000
ENDCHAR
STARTCHAR J2960
ENCODING 10592
SWIDTH 960 0
DWIDTH 16 0
BBX 16 16 0 -2
BITMAP
0000
1818
2004
4002
4102
4102
47c2
4102
4102
4102
4122
41c2
4002
2004
1818
0000
ENDCHAR
STARTCHAR J2961
ENCODING 10593
SWIDTH 960 0
DWIDTH 16 0
BBX 16 16 0 -2
BITMAP
0000
1818
2004
4002
4002
4422
4c62
4422
4422
4422
4462
47b2
4002
2004
1818
0000
ENDCHAR
STARTCHAR J2962
ENCODING 10594
SWIDTH 960 0
DWIDTH 16 0
BBX 16 16 0 -2
BITMAP
0000
1818
2004
4002
4002
4e3a
4412
4222
4222
4142
4142
4082
4002
2004
1818
0000
ENDCHAR
STARTCHAR J2963
ENCODING 10595
SWIDTH 960 0
DWIDTH 16 0
BBX 16 16 0 -2
BITMAP
0000
1818
2004
4002
4002
5fba
4912
4912
44a2
45a2
4242
4242
4002
2004
1818
0000
ENDCHAR
STARTCHAR J2964
ENCODING 10596
SWIDTH 960 0
DWIDTH 16 0
BBX 16 16 0 -2
BITMAP
0000
1818
2004
4002
4002
4e72
4422
4242
4182
4242
4422
4e72
4002
2004
1818
0000
ENDCHAR
STARTCHAR J2965
ENCODING 10597
SWIDTH 960 0
DWIDTH 16 0
BBX 16 16 0 -2
BITMAP
0000
1818
2004
4002
4002
5c72
4822
4442
4282
4102
4102
4382
4002
2004
1818
0000
ENDCHAR
STARTCHAR J2966
ENCODING 10598
SWIDTH 960 0
DWIDTH 16 0
BBX 16 16 0 -2
BITMAP
0000
1818
2004
4002
4002
43f2
4222
4442
4082
4102
4212
47e2
4002
2004
1818
0000
ENDCHAR
STARTCHAR J2967
ENCODING 10599
SWIDTH 960 0
DWIDTH 16 0
BBX 16 16 0 -2
BITMAP
0000
1818
2104
4302
4102
4102
4102
4102
4102
4102
4102
4102
4382
2004
1818
0000
ENDCHAR
STARTCHAR J2968
ENCODING 10600
SWIDTH 960 0
DWIDTH 16 0
BBX 16 16 0 -2
BITMAP
0000
1818
23c4
4422
4622
4022
4042
4182
4202
4412
4422
47e2
4002
2004
1818
0000
ENDCHAR
STARTCHAR J2969
ENCODING 10601
SWIDTH 960 0
DWIDTH 16 0
BBX 16 16 0 -2
BITMAP
0000
1818
23c4
4422
4622
4022
4042
41c2
4022
4022
4c22
4422
43c2
2004
1818
0000
ENDCHAR
STARTCHAR J296a
ENCODING 10602
SWIDTH 960 0
DWIDTH 16 0
BBX 16 16 0 -2
BITMAP
0000
1818
2044
40c2
4142
4142
4242
4442
4ff2
4042
4042
40e2
4002
2004
1818
0000
ENDCHAR
STARTCHAR J296b
ENCODING 10603
SWIDTH 960 0
DWIDTH 16 0
BBX 16 16 0 -2
BITMAP
0000
1818
2424
47c2
4402
4402
45c2
4622
4022
4022
4022
4422
43c2
2004
1818
0000
ENDCHAR
STARTCHAR J296c
ENCODING 10604
SWIDTH 960 0
DWIDTH 16 0
BBX 16 16 0 -2
BITMAP
0000
1818
23c4
4422
4422
4402
4402
45c2
4622
4422
4422
4422
43c2
2004
1818
0000
ENDCHAR
STARTCHAR J296d
ENCODING 10605
SWIDTH 960 0
DWIDTH 16 0
BBX 16 16 0 -2
BITMAP
0000
1818
27e4
4422
4842
4042
4082
4082
4082
4102
4102
4102
4102
2004
1818
0000
ENDCHAR
STARTCHAR J296e
ENCODING 10606
SWIDTH 960 0
DWIDTH 16 0
BBX 16 16 0 -2
BITMAP
0000
1818
23c4
4422
4422
4422
4242
4182
4242
4422
4422
4422
43c2
2004
1818
0000
ENDCHAR
STARTCHAR J296f
ENCODING 10607
SWIDTH 960 0
DWIDTH 16 0
BBX 16 16 0 -2
BITMAP
0000
1818
23c4
4422
4422
4422
4462
43a2
4022
4022
4022
4422
43c2
2004
1818
0000
ENDCHAR
STARTCHAR J2970
ENCODING 10608
SWIDTH 960 0
DWIDTH 16 0
BBX 16 16 0 -2
BITMAP
0000
1818
24e4
4d12
4512
4512
4512
4512
4512
4512
4512
4ee2
4002
2004
1818
0000
ENDCHAR
STARTCHAR J2971
ENCODING 10609
SWIDTH 960 0
DWIDTH 16 0
BBX 16 16 0 -2
BITMAP
0000
1818
2424
4c62
4422
4422
4422
4422
4422
4422
4422
4e72
4002
2004
1818
0000
ENDCHAR
STARTCHAR J2972
ENCODING 10610
SWIDTH 960 0
DWIDTH 16 0
BBX 16 16 0 -2
BITMAP
0000
1818
24e4
4d12
4412
4412
4422
4442
4482
4502
450a
4ff2
4002
2004
1818
0000
ENDCHAR
STARTCHAR J2973
ENCODING 10611
SWIDTH 960 0
DWIDTH 16 0
BBX 16 16 0 -2
BITMAP
0000
1818
24e4
4d12
4412
4412
4462
4412
4412
4512
4512
4ee2
4002
2004
1818
0000
ENDCHAR
STARTCHAR J2974
ENCODING 10612
SWIDTH 960 0
DWIDTH 16 0
BBX 16 16 0 -2
BITMAP
0000
1818
2424
4c62
4462
44a2
44a2
4522
4522
47fa
4422
4e72
4002
2004
1818
0000
ENDCHAR
STARTCHAR J2975
ENCODING 10613
SWIDTH 960 0
DWIDTH 16 0
BBX 16 16 0 -2
BITMAP
0000
1818
2514
4de2
4502
4502
4562
4592
4412
4412
4512
4ee2
4002
2004
1818
0000
ENDCHAR
STARTCHAR J2976
ENCODING 10614
SWIDTH 960 0
DWIDTH 16 0
BBX 16 16 0 -2
BITMAP
0000
0002
0006
0002
0002
0002
0007
0000
0000
0000
0000
0000
0000
0000
0000
0000
ENDCHAR
STARTCHAR J2977
ENCODING 10615
SWIDTH 960 0
DWIDTH 16 0
BBX 16 16 0 -2
BITMAP
0000
000e
0011
0002
000c
0011
001f
0000
0000
0000
0000
0000
0000
0000
0000
0000
ENDCHAR
STARTCHAR J2978
ENCODING 10616
SWIDTH 960 0
DWIDTH 16 0
BBX 16 16 0 -2
BITMAP
0000
000e
0011
0006
0001
0011
000e
0000
0000
0000
0000
0000
0000
0000
0000
0000
ENDCHAR
STARTCHAR J2979
ENCODING 10617
SWIDTH 960 0
DWIDTH 16 0
BBX 16 16 0 -2
BITMAP
0000
0004
000c
0014
003f
0004
000e
0000
0000
0000
0000
0000
0000
0000
0000
0000
ENDCHAR
STARTCHAR J297a
ENCODING 10618
SWIDTH 960 0
DWIDTH 16 0
BBX 16 16 0 -2
BITMAP
0000
0016
003a
0012
0012
0037
0000
0000
0000
0000
0000
0000
0000
0000
0000
0000
ENDCHAR
STARTCHAR J297b
ENCODING 10619
SWIDTH 960 0
DWIDTH 16 0
BBX 16 16 0 -2
BITMAP
0000
0000
0000
0000
0000
0000
0000
0000
0000
0002
0006
0002
0002
0002
0007
0000
ENDCHAR
STARTCHAR J297c
ENCODING 10620
SWIDTH 960 0
DWIDTH 16 0
BBX 16 16 0 -2
BITMAP
0000
0000
0000
0000
0000
0000
0000
0000
0000
000e
0011
0002
000c
0011
001f
0000
ENDCHAR
STARTCHAR J297d
ENCODING 10621
SWIDTH 960 0
DWIDTH 16 0
BBX 16 16 0 -2
BITMAP
0000
0000
0000
0000
0000
0000
0000
0000
0000
000e
0011
0006
0001
0011
000e
0000
ENDCHAR
STARTCHAR J297e
ENCODING 10622
SWIDTH 960 0
DWIDTH 16 0
BBX 16 16 0 -2
BITMAP
0000
0000
0000
0000
0000
0000
0000
0000
0000
0004
000c
0014
003f
0004
000e
0000
ENDCHAR
STARTCHAR J2a21
ENCODING 10785
SWIDTH 960 0
DWIDTH 16 0
BBX 16 16 0 -2
BITMAP
0000
0000
0000
0000
0200
02e0
3f00
0240
0240
0ff0
1488
2508
2208
3c10
0060
0180
ENDCHAR
STARTCHAR J2a22
ENCODING 10786
SWIDTH 960 0
DWIDTH 16 0
BBX 16 16 0 -2
BITMAP
0000
0100
0100
01f8
3f00
0120
0120
07f0
1a48
2244
4144
4184
4304
3c08
0030
00c0
ENDCHAR
STARTCHAR J2a23
ENCODING 10787
SWIDTH 960 0
DWIDTH 16 0
BBX 16 16 0 -2
BITMAP
0000
0000
0000
0000
0000
0000
3000
1010
1008
1008
1004
1104
1204
1400
0c00
0400
ENDCHAR
STARTCHAR J2a24
ENCODING 10788
SWIDTH 960 0
DWIDTH 16 0
BBX 16 16 0 -2
BITMAP
0000
0000
0000
6010
2010
2008
2008
2004
2004
2004
2104
1204
1400
1800
0800
0800
ENDCHAR
STARTCHAR J2a25
ENCODING 10789
SWIDTH 960 0
DWIDTH 16 0
BBX 16 16 0 -2
BITMAP
0000
0000
0000
0000
0400
03f0
0000
01f0
2608
1804
0004
0004
0008
0030
00c0
0300
ENDCHAR
STARTCHAR J2a26
ENCODING 10790
SWIDTH 960 0
DWIDTH 16 0
BBX 16 16 0 -2
BITMAP
0000
0800
07f0
0000
0000
01f0
4608
3804
0004
0004
0004
0004
0008
0030
00c0
0700
ENDCHAR
STARTCHAR J2a27
ENCODING 10791
SWIDTH 960 0
DWIDTH 16 0
BBX 16 16 0 -2
BITMAP
0000
0000
0000
0000
0400
03e0
0000
2040
1ff0
0080
0100
03c0
0440
0840
107c
0000
ENDCHAR
STARTCHAR J2a28
ENCODING 10792
SWIDTH 960 0
DWIDTH 16 0
BBX 16 16 0 -2
BITMAP
0000
1000
0800
07c0
0000
0020
41f0
3e40
0080
0180
0280
0440
0840
1040
203e
0000
ENDCHAR
STARTCHAR J2a29
ENCODING 10793
SWIDTH 960 0
DWIDTH 16 0
BBX 16 16 0 -2
BITMAP
0000
0000
0000
0000
0000
0610
0208
3ff4
0200
07e0
0a10
1208
1208
1208
0c10
0060
ENDCHAR
STARTCHAR J2a2a
ENCODING 10794
SWIDTH 960 0
DWIDTH 16 0
BBX 16 16 0 -2
BITMAP
0000
0800
0408
04e4
7f02
041e
0400
07f0
0c08
1404
2404
4404
4404
3808
0070
0000
ENDCHAR
STARTCHAR J2a2b
ENCODING 10795
SWIDTH 960 0
DWIDTH 16 0
BBX 16 16 0 -2
BITMAP
0000
0600
0200
0208
47c4
3c44
0444
0842
0842
085a
1046
1082
2080
2700
4000
0000
ENDCHAR
STARTCHAR J2a2c
ENCODING 10796
SWIDTH 960 0
DWIDTH 16 0
BBX 16 16 0 -2
BITMAP
0000
0404
0212
0208
0410
7fc8
0444
0444
0842
0842
105e
1042
2080
2680
4100
0000
ENDCHAR
STARTCHAR J2a2d
ENCODING 10797
SWIDTH 960 0
DWIDTH 16 0
BBX 16 16 0 -2
BITMAP
0000
0100
008c
00f0
1f80
0047
00f8
7f20
0020
0010
4010
40f0
2000
1800
07f0
0000
ENDCHAR
STARTCHAR J2a2e
ENCODING 10798
SWIDTH 960 0
DWIDTH 16 0
BBX 16 16 0 -2
BITMAP
0000
0206
0118
01e0
1e80
0047
0078
03c0
3c20
0020
0010
41f0
2010
1800
07e0
0000
ENDCHAR
STARTCHAR J2a2f
ENCODING 10799
SWIDTH 960 0
DWIDTH 16 0
BBX 16 16 0 -2
BITMAP
0000
0070
0020
0040
0080
0300
0400
0800
0400
0200
0100
0080
0060
0010
0008
0000
ENDCHAR
STARTCHAR J2a30
ENCODING 10800
SWIDTH 960 0
DWIDTH 16 0
BBX 16 16 0 -2
BITMAP
0000
0052
0049
0080
0100
0200
0400
0800
1000
1000
0c00
0300
00c0
0020
0010
0000
ENDCHAR
STARTCHAR J2a31
ENCODING 10801
SWIDTH 960 0
DWIDTH 16 0
BBX 16 16 0 -2
BITMAP
0000
2060
2010
2010
2013
47fc
4010
4010
4010
4410
4810
5020
3020
1040
1080
0000
ENDCHAR
STARTCHAR J2a32
ENCODING 10802
SWIDTH 960 0
DWIDTH 16 0
BBX 16 16 0 -2
BITMAP
0000
1042
2029
2024
2020
47ff
4020
4020
4020
4820
5020
5020
3020
3040
1180
0000
ENDCHAR
STARTCHAR J2a33
ENCODING 10803
SWIDTH 960 0
DWIDTH 16 0
BBX 16 16 0 -2
BITMAP
0000
0000
1000
0ff8
0010
0020
0000
0000
0000
0000
0000
4000
2002
1ffc
0000
0000
ENDCHAR
STARTCHAR J2a34
ENCODING 10804
SWIDTH 960 0
DWIDTH 16 0
BBX 16 16 0 -2
BITMAP
0000
0002
0009
1ff4
0020
0040
0000
0000
0000
0000
0000
4000
2002
1ffc
0000
0000
ENDCHAR
STARTCHAR J2a35
ENCODING 10805
SWIDTH 960 0
DWIDTH 16 0
BBX 16 16 0 -2
BITMAP
0000
0100
0080
004e
3070
0fc0
0020
0010
0010
40c8
4038
2000
1000
0c00
03f8
0004
ENDCHAR
STARTCHAR J2a36
ENCODING 10806
SWIDTH 960 0
DWIDTH 16 0
BBX 16 16 0 -2
BITMAP
0000
0204
0112
0088
20fc
1fc0
0040
0020
0020
4010
40f0
4000
2000
1c00
03fc
0000
ENDCHAR
STARTCHAR J2a37
ENCODING 10807
SWIDTH 960 0
DWIDTH 16 0
BBX 16 16 0 -2
BITMAP
0000
3000
0800
0800
0800
0800
0800
0800
1000
1002
1004
1008
1010
0860
0780
0000
ENDCHAR
STARTCHAR J2a38
ENCODING 10808
SWIDTH 960 0
DWIDTH 16 0
BBX 16 16 0 -2
BITMAP
0000
1020
0910
0880
0800
0800
0800
0800
1000
1001
1002
1004
1008
1030
0fc0
0000
ENDCHAR
STARTCHAR J2a39
ENCODING 10809
SWIDTH 960 0
DWIDTH 16 0
BBX 16 16 0 -2
BITMAP
0000
00e0
0020
0020
4fff
3020
01a0
0260
0420
0420
0260
01a0
0040
0080
0300
0c00
ENDCHAR
STARTCHAR J2a3a
ENCODING 10810
SWIDTH 960 0
DWIDTH 16 0
BBX 16 16 0 -2
BITMAP
0000
0184
0052
0048
47fe
3840
0040
07c0
0840
08c0
0740
0040
0040
0080
0100
0e00
ENDCHAR
STARTCHAR J2a3b
ENCODING 10811
SWIDTH 960 0
DWIDTH 16 0
BBX 16 16 0 -2
BITMAP
0000
0020
3010
0810
0810
08fe
7f10
0810
0810
0810
08d0
0830
0800
0ffc
0000
0000
ENDCHAR
STARTCHAR J2a3c
ENCODING 10812
SWIDTH 960 0
DWIDTH 16 0
BBX 16 16 0 -2
BITMAP
0000
0014
104a
0820
0820
0820
08fe
7f20
0820
0820
09a0
0860
0800
0c00
03fc
0000
ENDCHAR
STARTCHAR J2a3d
ENCODING 10813
SWIDTH 960 0
DWIDTH 16 0
BBX 16 16 0 -2
BITMAP
0000
00f0
1f20
0040
0080
0100
021e
0fe0
1400
6400
0400
0400
0400
0300
00fc
0000
ENDCHAR
STARTCHAR J2a3e
ENCODING 10814
SWIDTH 960 0
DWIDTH 16 0
BBX 16 16 0 -2
BITMAP
0000
00fa
1f25
0040
0080
0100
021e
0fe0
1400
6400
0400
0400
0400
0300
00fc
0000
ENDCHAR
STARTCHAR J2a3f
ENCODING 10815
SWIDTH 960 0
DWIDTH 16 0
BBX 16 16 0 -2
BITMAP
0000
0400
0400
0460
4780
3c7e
0400
0800
0800
0800
1000
1200
1200
21fe
4000
0000
ENDCHAR
STARTCHAR J2a40
ENCODING 10816
SWIDTH 960 0
DWIDTH 16 0
BBX 16 16 0 -2
BITMAP
0000
0414
040a
0460
4780
3c7e
0400
0800
0800
0800
1000
1200
1200
21fe
4000
0000
ENDCHAR
STARTCHAR J2a41
ENCODING 10817
SWIDTH 960 0
DWIDTH 16 0
BBX 16 16 0 -2
BITMAP
0000
0300
0100
217c
1f80
0200
0400
05fc
0e02
0802
1002
1002
0004
0008
0070
0380
ENDCHAR
STARTCHAR J2a42
ENCODING 10818
SWIDTH 960 0
DWIDTH 16 0
BBX 16 16 0 -2
BITMAP
0000
060a
0205
42f8
3f00
0400
0800
0bf8
1c04
1004
2004
2004
0008
0010
00e0
0700
ENDCHAR
STARTCHAR J2a43
ENCODING 10819
SWIDTH 960 0
DWIDTH 16 0
BBX 16 16 0 -2
BITMAP
0000
0000
0000
0000
0000
0000
03f0
0c08
1004
0004
0004
0008
0010
0060
0380
0000
ENDCHAR
STARTCHAR J2a44
ENCODING 10820
SWIDTH 960 0
DWIDTH 16 0
BBX 16 16 0 -2
BITMAP
0000
0000
0000
01f8
0604
7802
0002
0002
0002
0002
0004
0004
0018
0060
0780
0000
ENDCHAR
STARTCHAR J2a45
ENCODING 10821
SWIDTH 960 0
DWIDTH 16 0
BBX 16 16 0 -2
BITMAP
0000
000a
0005
01f8
0604
7802
0002
0002
0002
0002
0004
0004
0018
0060
0780
0000
ENDCHAR
STARTCHAR J2a46
ENCODING 10822
SWIDTH 960 0
DWIDTH 16 0
BBX 16 16 0 -2
BITMAP
0000
0000
003c
07c0
7a00
0400
0400
0800
0800
0800
0800
0400
0200
01f8
0000
0000
ENDCHAR
STARTCHAR J2a47
ENCODING 10823
SWIDTH 960 0
DWIDTH 16 0
BBX 16 16 0 -2
BITMAP
0000
0000
003c
07c0
7a14
040a
0400
0800
0800
0800
0800
0400
0200
01f8
0000
0000
ENDCHAR
STARTCHAR J2a48
ENCODING 10824
SWIDTH 960 0
DWIDTH 16 0
BBX 16 16 0 -2
BITMAP
0000
0300
0100
0100
0108
0118
0160
0380
0400
0800
1000
1000
1000
0800
07fc
0000
ENDCHAR
STARTCHAR J2a49
ENCODING 10825
SWIDTH 960 0
DWIDTH 16 0
BBX 16 16 0 -2
BITMAP
0000
0600
020a
0205
0210
0230
02c0
0700
0800
1000
2000
2000
2000
1000
0ff8
0000
ENDCHAR
STARTCHAR J2a4a
ENCODING 10826
SWIDTH 960 0
DWIDTH 16 0
BBX 16 16 0 -2
BITMAP
0000
0400
0400
0770
7c1c
0410
0410
0810
0810
0810
1010
13f0
1418
2424
43c2
0000
ENDCHAR
STARTCHAR J2a4b
ENCODING 10827
SWIDTH 960 0
DWIDTH 16 0
BBX 16 16 0 -2
BITMAP
0000
2000
1000
11fc
1000
2000
4000
4000
4000
4000
4c00
5200
6100
21fe
2000
1000
ENDCHAR
STARTCHAR J2a4c
ENCODING 10828
SWIDTH 960 0
DWIDTH 16 0
BBX 16 16 0 -2
BITMAP
0000
0100
0100
4100
43f0
2d08
1104
3102
2902
4502
4202
4374
448c
388c
0072
0002
ENDCHAR
STARTCHAR J2a4d
ENCODING 10829
SWIDTH 960 0
DWIDTH 16 0
BBX 16 16 0 -2
BITMAP
0000
0c00
0400
0478
0584
7e04
4404
0804
1804
1804
28f4
490c
4906
38f9
0800
0800
ENDCHAR
STARTCHAR J2a4e
ENCODING 10830
SWIDTH 960 0
DWIDTH 16 0
BBX 16 16 0 -2
BITMAP
0000
0000
07f0
1908
2104
4104
4102
4102
4102
4102
4202
2202
1c04
0008
0030
00c0
ENDCHAR
STARTCHAR J2a4f
ENCODING 10831
SWIDTH 960 0
DWIDTH 16 0
BBX 16 16 0 -2
BITMAP
0000
1060
1010
1010
101e
27f0
2010
4010
4010
4010
45f0
5a1c
6212
61e1
2000
0000
ENDCHAR
STARTCHAR J2a50
ENCODING 10832
SWIDTH 960 0
DWIDTH 16 0
BBX 16 16 0 -2
BITMAP
0000
106a
1015
1010
101e
27f0
2010
4010
4010
4010
45f0
5a1c
6212
61e1
2000
0000
ENDCHAR
STARTCHAR J2a51
ENCODING 10833
SWIDTH 960 0
DWIDTH 16 0
BBX 16 16 0 -2
BITMAP
0000
20c6
2029
2026
203c
4fe0
4020
8020
8020
8020
8be0
b438
c424
c3c2
4000
0000
ENDCHAR
STARTCHAR J2a52
ENCODING 10834
SWIDTH 960 0
DWIDTH 16 0
BBX 16 16 0 -2
BITMAP
0000
0100
4100
3e08
0208
0408
0808
100c
200c
2012
2010
2010
1020
0fc0
0000
0000
ENDCHAR
STARTCHAR J2a53
ENCODING 10835
SWIDTH 960 0
DWIDTH 16 0
BBX 16 16 0 -2
BITMAP
0000
010a
4105
3e08
0208
0408
0808
100c
200c
2012
2010
2010
1020
0fc0
0000
0000
ENDCHAR
STARTCHAR J2a54
ENCODING 10836
SWIDTH 960 0
DWIDTH 16 0
BBX 16 16 0 -2
BITMAP
0000
0106
4109
3e0e
0208
0408
0808
100c
200c
2012
2010
2010
1020
0fc0
0000
0000
ENDCHAR
STARTCHAR J2a55
ENCODING 10837
SWIDTH 960 0
DWIDTH 16 0
BBX 16 16 0 -2
BITMAP
0000
0200
0100
0080
0140
0200
0400
0200
0110
0088
0444
0842
1042
2640
4180
0000
ENDCHAR
STARTCHAR J2a56
ENCODING 10838
SWIDTH 960 0
DWIDTH 16 0
BBX 16 16 0 -2
BITMAP
0000
0214
010a
0080
0140
0200
0400
0200
0110
0088
0444
0842
1042
2640
4180
0000
ENDCHAR
STARTCHAR J2a57
ENCODING 10839
SWIDTH 960 0
DWIDTH 16 0
BBX 16 16 0 -2
BITMAP
0000
020c
0112
008c
0140
0200
0400
0200
0110
0088
0444
0842
1042
2640
4180
0000
ENDCHAR
STARTCHAR J2a58
ENCODING 10840
SWIDTH 960 0
DWIDTH 16 0
BBX 16 16 0 -2
BITMAP
0000
0000
0000
0300
0480
0840
1020
6020
0010
0008
0004
0002
0001
0000
0000
0000
ENDCHAR
STARTCHAR J2a59
ENCODING 10841
SWIDTH 960 0
DWIDTH 16 0
BBX 16 16 0 -2
BITMAP
0000
0000
0014
030a
0480
0840
1020
6020
0010
0008
0004
0002
0001
0000
0000
0000
ENDCHAR
STARTCHAR J2a5a
ENCODING 10842
SWIDTH 960 0
DWIDTH 16 0
BBX 16 16 0 -2
BITMAP
0000
0000
000c
0312
048c
0840
1020
6020
0010
0008
0004
0002
0001
0000
0000
0000
ENDCHAR
STARTCHAR J2a5b
ENCODING 10843
SWIDTH 960 0
DWIDTH 16 0
BBX 16 16 0 -2
BITMAP
0000
2000
107c
1190
2010
201e
47f0
4010
4010
4010
49f8
5214
2212
21e1
2000
0000
ENDCHAR
STARTCHAR J2a5c
ENCODING 10844
SWIDTH 960 0
DWIDTH 16 0
BBX 16 16 0 -2
BITMAP
0000
400a
2075
27c0
4040
407c
8fc0
8040
8040
8040
93f0
a448
4444
4382
4000
0000
ENDCHAR
STARTCHAR J2a5d
ENCODING 10845
SWIDTH 960 0
DWIDTH 16 0
BBX 16 16 0 -2
BITMAP
0000
4006
2079
27c6
4040
407c
8fc0
8040
8040
8040
93e0
a458
4444
4382
4000
0000
ENDCHAR
STARTCHAR J2a5e
ENCODING 10846
SWIDTH 960 0
DWIDTH 16 0
BBX 16 16 0 -2
BITMAP
0000
0180
0080
00fe
7f80
0080
0080
00fc
3f80
0080
0080
0fe0
1098
1086
0f00
0000
ENDCHAR
STARTCHAR J2a5f
ENCODING 10847
SWIDTH 960 0
DWIDTH 16 0
BBX 16 16 0 -2
BITMAP
0000
0180
2280
1c80
0098
0108
0108
0208
0ff0
3218
4214
4422
4821
3040
0080
0100
ENDCHAR
STARTCHAR J2a60
ENCODING 10848
SWIDTH 960 0
DWIDTH 16 0
BBX 16 16 0 -2
BITMAP
0000
1800
0410
0588
7e04
0402
0402
3c00
4404
4404
4c04
3408
0408
0410
03e0
0000
ENDCHAR
STARTCHAR J2a61
ENCODING 10849
SWIDTH 960 0
DWIDTH 16 0
BBX 16 16 0 -2
BITMAP
0000
0180
3080
1080
1080
17e0
1918
2904
4902
4502
4602
4502
4804
3018
0060
0180
ENDCHAR
STARTCHAR J2a62
ENCODING 10850
SWIDTH 960 0
DWIDTH 16 0
BBX 16 16 0 -2
BITMAP
0000
0600
0200
0200
2200
1fe0
0400
4404
3ff4
0402
0402
0402
0402
0404
03f8
0000
ENDCHAR
STARTCHAR J2a63
ENCODING 10851
SWIDTH 960 0
DWIDTH 16 0
BBX 16 16 0 -2
BITMAP
0000
0000
0000
0000
0000
0080
1040
0878
05a4
4624
3a04
0288
0270
0100
0100
0100
ENDCHAR
STARTCHAR J2a64
ENCODING 10852
SWIDTH 960 0
DWIDTH 16 0
BBX 16 16 0 -2
BITMAP
0000
0100
1080
20f8
2144
2242
1c02
7002
0804
09f8
0400
0400
0200
0200
0200
0100
ENDCHAR
STARTCHAR J2a65
ENCODING 10853
SWIDTH 960 0
DWIDTH 16 0
BBX 16 16 0 -2
BITMAP
0000
0000
0000
0000
0000
1180
1080
11f8
1684
1884
2084
2084
2298
21e0
0100
0600
ENDCHAR
STARTCHAR J2a66
ENCODING 10854
SWIDTH 960 0
DWIDTH 16 0
BBX 16 16 0 -2
BITMAP
0000
0180
2040
1078
11c4
1242
2442
4842
5042
6042
4442
4244
21f8
1080
0300
0400
ENDCHAR
STARTCHAR J2a67
ENCODING 10855
SWIDTH 960 0
DWIDTH 16 0
BBX 16 16 0 -2
BITMAP
0000
0000
0000
0000
0000
0180
0080
00fc
0080
0080
0080
0f80
10e0
119c
0e00
0000
ENDCHAR
STARTCHAR J2a68
ENCODING 10856
SWIDTH 960 0
DWIDTH 16 0
BBX 16 16 0 -2
BITMAP
0000
0180
0080
0080
0086
00f8
0080
0080
0080
0080
1fc0
20b0
208c
2102
1e01
0000
ENDCHAR
STARTCHAR J2a69
ENCODING 10857
SWIDTH 960 0
DWIDTH 16 0
BBX 16 16 0 -2
BITMAP
0000
0600
01e0
1800
1000
1000
10f0
1308
1404
1804
1004
2004
2004
0008
0030
07c0
ENDCHAR
STARTCHAR J2a6a
ENCODING 10858
SWIDTH 960 0
DWIDTH 16 0
BBX 16 16 0 -2
BITMAP
0000
0420
0410
0810
0810
0810
0810
0910
0a10
0a10
0c10
0420
0020
0040
0080
0300
ENDCHAR
STARTCHAR J2a6b
ENCODING 10859
SWIDTH 960 0
DWIDTH 16 0
BBX 16 16 0 -2
BITMAP
0000
0078
1190
0e20
0040
0080
0100
03f8
0404
0802
1382
6442
0442
044c
03f0
0000
ENDCHAR
STARTCHAR J2a6c
ENCODING 10860
SWIDTH 960 0
DWIDTH 16 0
BBX 16 16 0 -2
BITMAP
0000
1800
0400
0470
0490
3f10
4410
0410
0410
0c10
1411
2411
5412
0c0c
0400
0000
ENDCHAR
STARTCHAR J2a6d
ENCODING 10861
SWIDTH 960 0
DWIDTH 16 0
BBX 16 16 0 -2
BITMAP
0000
0060
11a0
0e40
0080
0100
0278
0784
0802
1002
2002
4002
0004
0008
0030
03c0
ENDCHAR
STARTCHAR J2a6e
ENCODING 10862
SWIDTH 960 0
DWIDTH 16 0
BBX 16 16 0 -2
BITMAP
0000
0000
0000
0000
0000
0600
0400
04f0
1f88
0604
0404
0c04
1404
1408
0410
0460
ENDCHAR
STARTCHAR J2a6f
ENCODING 10863
SWIDTH 960 0
DWIDTH 16 0
BBX 16 16 0 -2
BITMAP
0000
1000
0800
0400
0400
0c78
1584
6602
0c02
1402
2402
4402
4402
7404
0c08
0470
ENDCHAR
STARTCHAR J2a70
ENCODING 10864
SWIDTH 960 0
DWIDTH 16 0
BBX 16 16 0 -2
BITMAP
0000
01c0
0640
1880
0100
03e0
0d18
1204
2202
4402
4402
44e2
4912
3114
00f8
0010
ENDCHAR
STARTCHAR J2a71
ENCODING 10865
SWIDTH 960 0
DWIDTH 16 0
BBX 16 16 0 -2
BITMAP
0000
13e0
0c40
0080
0170
0788
0804
1304
1484
04f8
0380
081c
1822
2442
4382
0004
ENDCHAR
STARTCHAR J2a72
ENCODING 10866
SWIDTH 960 0
DWIDTH 16 0
BBX 16 16 0 -2
BITMAP
0000
0100
0100
1138
0fc0
0200
0300
0487
0858
70e0
0340
0440
0840
0800
07fe
0000
ENDCHAR
STARTCHAR J2a73
ENCODING 10867
SWIDTH 960 0
DWIDTH 16 0
BBX 16 16 0 -2
BITMAP
0000
0700
0100
0200
0200
0400
0400
0800
0800
1780
1842
1042
2044
2044
4048
0030
ENDCHAR
STARTCHAR J2b21
ENCODING 11041
SWIDTH 960 0
DWIDTH 16 0
BBX 16 16 0 -2
BITMAP
0000
0000
0000
0000
0000
03fc
1c08
0010
0120
01c0
0100
0100
0200
0200
0400
0800
ENDCHAR
STARTCHAR J2b22
ENCODING 11042
SWIDTH 960 0
DWIDTH 16 0
BBX 16 16 0 -2
BITMAP
0000
0000
0000
47fe
3804
0118
01e0
0100
0100
0100
0200
0200
0400
0800
1000
0000
ENDCHAR
STARTCHAR J2b23
ENCODING 11043
SWIDTH 960 0
DWIDTH 16 0
BBX 16 16 0 -2
BITMAP
0000
0000
0000
0000
0000
0020
0010
0060
00c0
0140
0240
0c40
0040
0040
0040
0040
ENDCHAR
STARTCHAR J2b24
ENCODING 11044
SWIDTH 960 0
DWIDTH 16 0
BBX 16 16 0 -2
BITMAP
0000
0018
0008
0010
0010
0020
0040
00c0
0140
0240
0c40
3040
0040
0040
0040
0000
ENDCHAR
STARTCHAR J2b25
ENCODING 11045
SWIDTH 960 0
DWIDTH 16 0
BBX 16 16 0 -2
BITMAP
0000
0000
0000
0000
0000
0100
0100
1ff0
1110
1010
1020
1040
0040
0080
0100
0200
ENDCHAR
STARTCHAR J2b26
ENCODING 11046
SWIDTH 960 0
DWIDTH 16 0
BBX 16 16 0 -2
BITMAP
0000
0100
0100
0100
1ff8
1108
1008
1008
1008
1010
1010
0020
0040
0080
0300
0c00
ENDCHAR
STARTCHAR J2b27
ENCODING 11047
SWIDTH 960 0
DWIDTH 16 0
BBX 16 16 0 -2
BITMAP
0000
0000
0000
0000
0000
0000
0000
1ff0
0100
0100
0100
0100
0100
3ffc
0000
0000
ENDCHAR
STARTCHAR J2b28
ENCODING 11048
SWIDTH 960 0
DWIDTH 16 0
BBX 16 16 0 -2
BITMAP
0000
0000
0000
0000
0000
107c
0f80
0100
0100
0100
0100
0100
0100
43fe
3c00
0000
ENDCHAR
STARTCHAR J2b29
ENCODING 11049
SWIDTH 960 0
DWIDTH 16 0
BBX 16 16 0 -2
BITMAP
0000
0000
0000
0000
0000
0080
0040
0040
1ffc
00c0
0140
0240
0440
1840
00c0
0000
ENDCHAR
STARTCHAR J2b2a
ENCODING 11050
SWIDTH 960 0
DWIDTH 16 0
BBX 16 16 0 -2
BITMAP
0000
0100
0080
0040
0040
407f
3fc0
0040
00c0
0140
0240
0440
0840
1040
61c0
0040
ENDCHAR
STARTCHAR J2b2b
ENCODING 11051
SWIDTH 960 0
DWIDTH 16 0
BBX 16 16 0 -2
BITMAP
0000
0300
0100
0100
01fc
7f04
0104
0104
0104
0104
0204
0208
0488
0870
1000
6000
ENDCHAR
STARTCHAR J2b2c
ENCODING 11052
SWIDTH 960 0
DWIDTH 16 0
BBX 16 16 0 -2
BITMAP
0000
0104
0112
0108
0100
3ffc
0104
0104
0104
0204
0204
0404
0888
1078
2000
4000
ENDCHAR
STARTCHAR J2b2d
ENCODING 11053
SWIDTH 960 0
DWIDTH 16 0
BBX 16 16 0 -2
BITMAP
0000
0400
0200
0100
0100
47fc
3900
0100
0100
01ff
7e80
0080
0080
0080
0080
0000
ENDCHAR
STARTCHAR J2b2e
ENCODING 11054
SWIDTH 960 0
DWIDTH 16 0
BBX 16 16 0 -2
BITMAP
0000
0400
0214
010a
0100
47fc
3900
0100
0100
01ff
7e80
0080
0080
0080
0080
0000
ENDCHAR
STARTCHAR J2b2f
ENCODING 11055
SWIDTH 960 0
DWIDTH 16 0
BBX 16 16 0 -2
BITMAP
0000
0100
0100
0100
03fc
0408
0808
1010
2010
4020
0040
0080
0100
0600
1800
6000
ENDCHAR
STARTCHAR J2b30
ENCODING 11056
SWIDTH 960 0
DWIDTH 16 0
BBX 16 16 0 -2
BITMAP
0000
010a
0105
0100
03fc
0408
0808
1010
2010
4020
0040
0080
0100
0600
1800
6000
ENDCHAR
STARTCHAR J2b31
ENCODING 11057
SWIDTH 960 0
DWIDTH 16 0
BBX 16 16 0 -2
BITMAP
0000
0600
0200
0200
0400
0ffe
0820
1020
2020
4040
0040
0080
0100
0200
0400
0800
ENDCHAR
STARTCHAR J2b32
ENCODING 11058
SWIDTH 960 0
DWIDTH 16 0
BBX 16 16 0 -2
BITMAP
0000
0614
020a
0200
0400
0ffe
0820
1020
2020
4040
0040
0080
0100
0200
0400
0800
ENDCHAR
STARTCHAR J2b33
ENCODING 11059
SWIDTH 960 0
DWIDTH 16 0
BBX 16 16 0 -2
BITMAP
0000
0000
0000
0000
2000
1ff8
0008
0008
0008
0008
0008
0010
0010
7ffc
0000
0000
ENDCHAR
STARTCHAR J2b34
ENCODING 11060
SWIDTH 960 0
DWIDTH 16 0
BBX 16 16 0 -2
BITMAP
0000
0000
0014
000a
2000
1ff8
0008
0008
0008
0008
0008
0010
0010
7ffc
0000
0000
ENDCHAR
STARTCHAR J2b35
ENCODING 11061
SWIDTH 960 0
DWIDTH 16 0
BBX 16 16 0 -2
BITMAP
0000
0060
1820
0420
0420
043e
7fe0
0420
0420
0420
0420
0440
0040
0080
0100
0200
ENDCHAR
STARTCHAR J2b36
ENCODING 11062
SWIDTH 960 0
DWIDTH 16 0
BBX 16 16 0 -2
BITMAP
0000
006a
1825
0420
0420
043e
7fe0
0420
0420
0420
0420
0440
0040
0080
0100
0200
ENDCHAR
STARTCHAR J2b37
ENCODING 11063
SWIDTH 960 0
DWIDTH 16 0
BBX 16 16 0 -2
BITMAP
0000
0000
1000
0800
0400
2002
1004
0808
0010
0020
0040
0080
1100
1200
0c00
0000
ENDCHAR
STARTCHAR J2b38
ENCODING 11064
SWIDTH 960 0
DWIDTH 16 0
BBX 16 16 0 -2
BITMAP
0000
0050
1028
0800
0400
2002
1004
0808
0010
0020
0040
0080
1100
1200
0c00
0000
ENDCHAR
STARTCHAR J2b39
ENCODING 11065
SWIDTH 960 0
DWIDTH 16 0
BBX 16 16 0 -2
BITMAP
0000
0000
107c
0f84
0008
0008
0010
0020
0040
00e0
0110
0208
0404
1802
6000
0000
ENDCHAR
STARTCHAR J2b3a
ENCODING 11066
SWIDTH 960 0
DWIDTH 16 0
BBX 16 16 0 -2
BITMAP
0000
000a
20f5
1f10
0010
0020
0020
0040
0080
01c0
0220
0410
0808
3004
c000
0000
ENDCHAR
STARTCHAR J2b3b
ENCODING 11067
SWIDTH 960 0
DWIDTH 16 0
BBX 16 16 0 -2
BITMAP
0000
0000
0800
0400
0400
04fc
0f08
7410
0420
04c0
0400
0400
0400
07fe
0000
0000
ENDCHAR
STARTCHAR J2b3c
ENCODING 11068
SWIDTH 960 0
DWIDTH 16 0
BBX 16 16 0 -2
BITMAP
0000
0004
080a
0404
0400
04fc
0f08
7410
0420
04c0
0400
0400
0400
07fe
0000
0000
ENDCHAR
STARTCHAR J2b3d
ENCODING 11069
SWIDTH 960 0
DWIDTH 16 0
BBX 16 16 0 -2
BITMAP
0000
0000
0008
1008
0808
0408
0410
0410
0020
0020
0040
0080
0100
0200
0c00
0000
ENDCHAR
STARTCHAR J2b3e
ENCODING 11070
SWIDTH 960 0
DWIDTH 16 0
BBX 16 16 0 -2
BITMAP
0000
000a
0005
2010
1010
0810
0820
0820
0040
0040
0080
0100
0200
0400
1800
0000
ENDCHAR
STARTCHAR J2b3f
ENCODING 11071
SWIDTH 960 0
DWIDTH 16 0
BBX 16 16 0 -2
BITMAP
0000
0100
0100
01fc
0204
0408
0c10
1220
2120
40c0
0080
0140
0200
0400
1800
6000
ENDCHAR
STARTCHAR J2b40
ENCODING 11072
SWIDTH 960 0
DWIDTH 16 0
BBX 16 16 0 -2
BITMAP
0000
020a
0205
03f8
0408
0810
1820
2440
4240
8180
0100
0280
0400
0800
3000
c000
ENDCHAR
STARTCHAR J2b41
ENCODING 11073
SWIDTH 960 0
DWIDTH 16 0
BBX 16 16 0 -2
BITMAP
0000
0000
0018
03e0
3c80
0080
0080
03fe
7c80
0080
0100
0100
0200
0400
1800
0000
ENDCHAR
STARTCHAR J2b42
ENCODING 11074
SWIDTH 960 0
DWIDTH 16 0
BBX 16 16 0 -2
BITMAP
0000
0000
0030
07c2
7905
0102
0100
07fc
f900
0100
0200
0200
0400
0800
3000
0000
ENDCHAR
STARTCHAR J2b43
ENCODING 11075
SWIDTH 960 0
DWIDTH 16 0
BBX 16 16 0 -2
BITMAP
0000
0000
0000
0000
0000
0200
1108
0888
0488
0410
0010
0020
0040
0080
0100
0600
ENDCHAR
STARTCHAR J2b44
ENCODING 11076
SWIDTH 960 0
DWIDTH 16 0
BBX 16 16 0 -2
BITMAP
0000
0000
020e
2102
1102
1084
0884
0808
0008
0010
0020
0040
0080
0100
0600
1800
ENDCHAR
STARTCHAR J2b45
ENCODING 11077
SWIDTH 960 0
DWIDTH 16 0
BBX 16 16 0 -2
BITMAP
0000
000a
0405
4218
2208
2108
1110
1010
0020
0020
0040
0080
0100
0200
0c00
3000
ENDCHAR
STARTCHAR J2b46
ENCODING 11078
SWIDTH 960 0
DWIDTH 16 0
BBX 16 16 0 -2
BITMAP
0000
1018
0fe0
0000
0000
4ffe
3080
0080
0080
0080
0100
0100
0200
0400
0800
3000
ENDCHAR
STARTCHAR J2b47
ENCODING 11079
SWIDTH 960 0
DWIDTH 16 0
BBX 16 16 0 -2
BITMAP
0000
2030
1fca
0005
0000
9ffc
6100
0100
0100
0100
0200
0200
0400
0800
1000
6000
ENDCHAR
STARTCHAR J2b48
ENCODING 11080
SWIDTH 960 0
DWIDTH 16 0
BBX 16 16 0 -2
BITMAP
0000
0300
0100
0100
0100
0100
01e0
0118
0104
0100
0100
0100
0100
0100
0100
0100
ENDCHAR
STARTCHAR J2b49
ENCODING 11081
SWIDTH 960 0
DWIDTH 16 0
BBX 16 16 0 -2
BITMAP
0000
0314
010a
0100
0100
0100
01e0
0118
0104
0100
0100
0100
0100
0100
0100
0100
ENDCHAR
STARTCHAR J2b4a
ENCODING 11082
SWIDTH 960 0
DWIDTH 16 0
BBX 16 16 0 -2
BITMAP
0000
0180
0080
0080
0080
40fe
3f80
0080
0080
0080
0100
0100
0200
0400
1800
0000
ENDCHAR
STARTCHAR J2b4b
ENCODING 11083
SWIDTH 960 0
DWIDTH 16 0
BBX 16 16 0 -2
BITMAP
0000
0000
0000
0000
0000
1ff8
0000
0000
0000
0000
0000
43fe
3c00
0000
0000
0000
ENDCHAR
STARTCHAR J2b4c
ENCODING 11084
SWIDTH 960 0
DWIDTH 16 0
BBX 16 16 0 -2
BITMAP
0000
0000
0000
1ffc
0008
0008
0010
0610
0120
00c0
00a0
0110
0208
0404
1802
6000
ENDCHAR
STARTCHAR J2b4d
ENCODING 11085
SWIDTH 960 0
DWIDTH 16 0
BBX 16 16 0 -2
BITMAP
0000
0400
0200
0100
00f0
3f20
0040
0080
01e0
0318
0d04
7102
0102
0100
0100
0100
ENDCHAR
STARTCHAR J2b4e
ENCODING 11086
SWIDTH 960 0
DWIDTH 16 0
BBX 16 16 0 -2
BITMAP
0000
0000
0018
0004
0004
0008
0008
0010
0010
0020
0040
0080
0100
0200
0c00
3000
ENDCHAR
STARTCHAR J2b4f
ENCODING 11087
SWIDTH 960 0
DWIDTH 16 0
BBX 16 16 0 -2
BITMAP
0000
0000
0040
0640
0220
0210
0210
0408
0408
0804
0804
1002
1002
2002
4000
0000
ENDCHAR
STARTCHAR J2b50
ENCODING 11088
SWIDTH 960 0
DWIDTH 16 0
BBX 16 16 0 -2
BITMAP
0000
0014
004a
0640
0220
0210
0210
0408
0408
0804
0804
1002
1002
2002
4000
0000
ENDCHAR
STARTCHAR J2b51
ENCODING 11089
SWIDTH 960 0
DWIDTH 16 0
BBX 16 16 0 -2
BITMAP
0000
000c
0052
064c
0220
0210
0210
0408
0408
0804
0804
1002
1002
2002
4000
0000
ENDCHAR
STARTCHAR J2b52
ENCODING 11090
SWIDTH 960 0
DWIDTH 16 0
BBX 16 16 0 -2
BITMAP
0000
0000
3000
1000
1000
100c
1070
1380
1c00
1000
1000
1000
1000
1004
1ffc
0000
ENDCHAR
STARTCHAR J2b53
ENCODING 11091
SWIDTH 960 0
DWIDTH 16 0
BBX 16 16 0 -2
BITMAP
0000
0000
3014
100a
1000
100c
1070
1380
1c00
1000
1000
1000
1000
1004
1ffc
0000
ENDCHAR
STARTCHAR J2b54
ENCODING 11092
SWIDTH 960 0
DWIDTH 16 0
BBX 16 16 0 -2
BITMAP
0000
000c
3012
100c
1000
100c
1070
1380
1c00
1000
1000
1000
1000
1004
1ffc
0000
ENDCHAR
STARTCHAR J2b55
ENCODING 11093
SWIDTH 960 0
DWIDTH 16 0
BBX 16 16 0 -2
BITMAP
0000
0000
0000
23fc
1c04
0004
0008
0008
0010
0020
0040
0080
0100
0200
0400
1800
ENDCHAR
STARTCHAR J2b56
ENCODING 11094
SWIDTH 960 0
DWIDTH 16 0
BBX 16 16 0 -2
BITMAP
0000
000a
0005
47f8
3808
0008
0010
0010
0020
0040
0080
0100
0200
0400
0800
3000
ENDCHAR
STARTCHAR J2b57
ENCODING 11095
SWIDTH 960 0
DWIDTH 16 0
BBX 16 16 0 -2
BITMAP
0000
0006
0009
47fe
3808
0008
0010
0010
0020
0040
0080
0100
0200
0400
0800
3000
ENDCHAR
STARTCHAR J2b58
ENCODING 11096
SWIDTH 960 0
DWIDTH 16 0
BBX 16 16 0 -2
BITMAP
0000
0000
0000
0200
0500
0480
0840
1020
6010
0008
0004
0002
0002
0000
0000
0000
ENDCHAR
STARTCHAR J2b59
ENCODING 11097
SWIDTH 960 0
DWIDTH 16 0
BBX 16 16 0 -2
BITMAP
0000
0000
0004
0012
0308
0480
0840
1020
6010
0008
0004
0002
0002
0000
0000
0000
ENDCHAR
STARTCHAR J2b5a
ENCODING 11098
SWIDTH 960 0
DWIDTH 16 0
BBX 16 16 0 -2
BITMAP
0000
0000
000c
0012
030c
0480
0840
1020
6010
0008
0004
0002
0002
0000
0000
0000
ENDCHAR
STARTCHAR J2b5b
ENCODING 11099
SWIDTH 960 0
DWIDTH 16 0
BBX 16 16 0 -2
BITMAP
0000
0300
0100
0100
41fe
3f00
0120
0910
0908
1108
1104
2104
4100
0500
0300
0000
ENDCHAR
STARTCHAR J2b5c
ENCODING 11100
SWIDTH 960 0
DWIDTH 16 0
BBX 16 16 0 -2
BITMAP
0000
0314
010a
0100
41fe
3f00
0120
0910
0908
1108
1104
2104
4100
0500
0300
0000
ENDCHAR
STARTCHAR J2b5d
ENCODING 11101
SWIDTH 960 0
DWIDTH 16 0
BBX 16 16 0 -2
BITMAP
0000
030c
0112
010c
41fe
3f00
0120
0910
0908
1108
1104
2104
4100
0500
0300
0000
ENDCHAR
STARTCHAR J2b5e
ENCODING 11102
SWIDTH 960 0
DWIDTH 16 0
BBX 16 16 0 -2
BITMAP
0000
0000
0000
003e
43c2
3c04
0008
0010
1820
0640
0180
0080
0040
0040
0000
0000
ENDCHAR
STARTCHAR J2b5f
ENCODING 11103
SWIDTH 960 0
DWIDTH 16 0
BBX 16 16 0 -2
BITMAP
0000
1e00
01c0
0030
000c
1c00
0380
0060
0018
0004
1c00
0300
00c0
0030
0008
0000
ENDCHAR
STARTCHAR J2b60
ENCODING 11104
SWIDTH 960 0
DWIDTH 16 0
BBX 16 16 0 -2
BITMAP
0000
0200
0100
0100
0100
0200
0200
0440
0420
0810
1008
10f8
2704
7802
0002
0002
ENDCHAR
STARTCHAR J2b61
ENCODING 11105
SWIDTH 960 0
DWIDTH 16 0
BBX 16 16 0 -2
BITMAP
0000
0078
0008
0008
0010
0110
0090
0060
0020
0050
0088
0104
0200
0400
1800
0000
ENDCHAR
STARTCHAR J2b62
ENCODING 11106
SWIDTH 960 0
DWIDTH 16 0
BBX 16 16 0 -2
BITMAP
0000
0000
0000
01f8
1f00
0100
0100
0100
07fe
7900
0100
0100
0100
01ff
0000
0000
ENDCHAR
STARTCHAR J2b63
ENCODING 11107
SWIDTH 960 0
DWIDTH 16 0
BBX 16 16 0 -2
BITMAP
0000
0000
0000
0000
0000
0400
0200
0278
0788
7910
0120
0140
0100
0100
0100
0000
ENDCHAR
STARTCHAR J2b64
ENCODING 11108
SWIDTH 960 0
DWIDTH 16 0
BBX 16 16 0 -2
BITMAP
0000
0400
0400
0200
023e
03c2
4f04
3108
0110
0120
0140
0080
0080
0080
0080
0000
ENDCHAR
STARTCHAR J2b65
ENCODING 11109
SWIDTH 960 0
DWIDTH 16 0
BBX 16 16 0 -2
BITMAP
0000
0000
0000
0000
0000
0000
0000
0000
0000
0fe0
0020
0020
0020
0020
3ffc
0000
ENDCHAR
STARTCHAR J2b66
ENCODING 11110
SWIDTH 960 0
DWIDTH 16 0
BBX 16 16 0 -2
BITMAP
0000
0000
0000
0000
0000
0000
0000
1ff0
0010
0010
0010
0020
0020
0020
7ffe
0000
ENDCHAR
STARTCHAR J2b67
ENCODING 11111
SWIDTH 960 0
DWIDTH 16 0
BBX 16 16 0 -2
BITMAP
0000
0000
0000
0000
0000
0000
0000
0ff8
0008
0008
0ff8
0010
0010
0010
1ff0
0000
ENDCHAR
STARTCHAR J2b68
ENCODING 11112
SWIDTH 960 0
DWIDTH 16 0
BBX 16 16 0 -2
BITMAP
0000
0000
0000
0000
1ffc
0004
0004
0004
0004
1ff8
0008
0008
0008
0008
7ff8
0000
ENDCHAR
STARTCHAR J2b69
ENCODING 11113
SWIDTH 960 0
DWIDTH 16 0
BBX 16 16 0 -2
BITMAP
0000
0ff8
0000
0000
0000
43fc
3c04
0004
0008
0010
0020
0040
0180
0600
0800
1000
ENDCHAR
STARTCHAR J2b6a
ENCODING 11114
SWIDTH 960 0
DWIDTH 16 0
BBX 16 16 0 -2
BITMAP
0000
0020
1010
0810
0810
0810
0810
0810
0810
0810
0810
0010
0020
0040
0180
0600
ENDCHAR
STARTCHAR J2b6b
ENCODING 11115
SWIDTH 960 0
DWIDTH 16 0
BBX 16 16 0 -2
BITMAP
0000
0300
1900
0900
0900
0900
0900
0901
0902
0904
0908
1110
1120
2140
4180
0000
ENDCHAR
STARTCHAR J2b6c
ENCODING 11116
SWIDTH 960 0
DWIDTH 16 0
BBX 16 16 0 -2
BITMAP
0000
0000
0000
1000
1000
1001
1002
1004
1008
1010
1020
1040
1180
1600
1800
0000
ENDCHAR
STARTCHAR J2b6d
ENCODING 11117
SWIDTH 960 0
DWIDTH 16 0
BBX 16 16 0 -2
BITMAP
0000
0000
0000
0000
1ff8
1008
1008
1008
1008
1008
1008
1ff8
1000
1000
0000
0000
ENDCHAR
STARTCHAR J2b6e
ENCODING 11118
SWIDTH 960 0
DWIDTH 16 0
BBX 16 16 0 -2
BITMAP
0000
0000
0000
0000
0000
1000
1ff0
1010
1010
1020
0020
0040
0040
0080
0100
0200
ENDCHAR
STARTCHAR J2b6f
ENCODING 11119
SWIDTH 960 0
DWIDTH 16 0
BBX 16 16 0 -2
BITMAP
0000
0000
0000
1ff8
1008
1008
1008
1008
1010
0010
0020
0020
0040
0080
0100
0200
ENDCHAR
STARTCHAR J2b70
ENCODING 11120
SWIDTH 960 0
DWIDTH 16 0
BBX 16 16 0 -2
BITMAP
0000
0080
0080
0080
3ffc
0880
0880
0880
0880
7fff
0080
0080
0080
0080
0080
0080
ENDCHAR
STARTCHAR J2b71
ENCODING 11121
SWIDTH 960 0
DWIDTH 16 0
BBX 16 16 0 -2
BITMAP
0000
0000
0000
0000
01f8
3e10
0060
0180
0100
0100
0100
0100
47fe
3800
0000
0000
ENDCHAR
STARTCHAR J2b72
ENCODING 11122
SWIDTH 960 0
DWIDTH 16 0
BBX 16 16 0 -2
BITMAP
0000
0000
0000
3ff8
0008
0008
0008
1ff8
0008
0010
0010
0020
0040
0080
0300
0c00
ENDCHAR
STARTCHAR J2b73
ENCODING 11123
SWIDTH 960 0
DWIDTH 16 0
BBX 16 16 0 -2
BITMAP
0000
0000
0000
3000
0804
0404
0408
0008
0010
0020
0040
0080
0100
0200
3c00
0000
ENDCHAR
STARTCHAR J2b74
ENCODING 11124
SWIDTH 960 0
DWIDTH 16 0
BBX 16 16 0 -2
BITMAP
0000
0214
010a
0100
0100
1ff8
1008
1008
1010
1010
1020
0040
0080
0100
0200
0400
ENDCHAR
STARTCHAR J2b75
ENCODING 11125
SWIDTH 960 0
DWIDTH 16 0
BBX 16 16 0 -2
BITMAP
0000
0000
0000
0000
0000
0100
0100
01f0
1f10
0110
0110
0210
0210
0410
0860
1000
ENDCHAR
STARTCHAR J2b76
ENCODING 11126
SWIDTH 960 0
DWIDTH 16 0
BBX 16 16 0 -2
BITMAP
0000
0000
0000
0000
0000
0000
0400
0400
0478
0fa0
1040
2040
0080
0100
0200
0400
ENDCHAR
STARTCHAR J2c21
ENCODING 11297
SWIDTH 960 0
DWIDTH 16 0
BBX 16 16 0 -2
BITMAP
0000
0100
0380
0380
04c0
04c0
04c0
0860
0860
1fe0
1030
2030
2018
707c
0000
0000
ENDCHAR
STARTCHAR J2c22
ENCODING 11298
SWIDTH 960 0
DWIDTH 16 0
BBX 16 16 0 -2
BITMAP
0000
1ff0
0c10
0c08
0c00
0c00
0ff0
0c18
0c18
0c18
0c18
0c18
0c18
1ff0
0000
0000
ENDCHAR
STARTCHAR J2c23
ENCODING 11299
SWIDTH 960 0
DWIDTH 16 0
BBX 16 16 0 -2
BITMAP
0000
1ff0
0c18
0c18
0c18
0c18
0c30
0ff0
0c18
0c18
0c18
0c18
0c18
1fe0
0000
0000
ENDCHAR
STARTCHAR J2c24
ENCODING 11300
SWIDTH 960 0
DWIDTH 16 0
BBX 16 16 0 -2
BITMAP
0000
1ff8
0c18
0c08
0c00
0c00
0c00
0c00
0c00
0c00
0c00
0c00
0c00
1e00
0000
0000
ENDCHAR
STARTCHAR J2c25
ENCODING 11301
SWIDTH 960 0
DWIDTH 16 0
BBX 16 16 0 -2
BITMAP
0000
0ffc
0418
0418
0418
0418
0418
0418
0818
0818
0818
1018
1018
3ffc
4002
0000
ENDCHAR
STARTCHAR J2c26
ENCODING 11302
SWIDTH 960 0
DWIDTH 16 0
BBX 16 16 0 -2
BITMAP
0000
1ff8
0c18
0c08
0c00
0c20
0c40
0fe0
0c20
0c00
0c00
0c08
0c18
1ff8
0000
0000
ENDCHAR
STARTCHAR J2c27
ENCODING 11303
SWIDTH 960 0
DWIDTH 16 0
BBX 16 16 0 -2
BITMAP
0360
0000
1ff8
0c18
0c08
0c00
0c20
0c20
0fe0
0c20
0c00
0c00
0c08
0c18
1ff8
0000
ENDCHAR
STARTCHAR J2c28
ENCODING 11304
SWIDTH 960 0
DWIDTH 16 0
BBX 16 16 0 -2
BITMAP
0000
63c6
9189
0988
0990
0590
05a0
07e0
0db0
1998
1998
318c
6186
f3cf
0000
0000
ENDCHAR
STARTCHAR J2c29
ENCODING 11305
SWIDTH 960 0
DWIDTH 16 0
BBX 16 16 0 -2
BITMAP
0000
07e0
0830
0018
0018
0018
0030
00f0
0018
0018
0018
0018
1030
0fe0
0000
0000
ENDCHAR
STARTCHAR J2c2a
ENCODING 11306
SWIDTH 960 0
DWIDTH 16 0
BBX 16 16 0 -2
BITMAP
0000
3c3c
1818
1838
1858
1858
1898
1918
1918
1a18
1c18
1c18
1818
3c3c
0000
0000
ENDCHAR
STARTCHAR J2c2b
ENCODING 11307
SWIDTH 960 0
DWIDTH 16 0
BBX 16 16 0 -2
BITMAP
0240
0180
3c3c
1818
1838
1858
1858
1898
1918
1918
1a18
1c18
1818
1818
3c3c
0000
ENDCHAR
STARTCHAR J2c2c
ENCODING 11308
SWIDTH 960 0
DWIDTH 16 0
BBX 16 16 0 -2
BITMAP
0000
3c38
1858
1840
1840
1880
1900
1f80
18c0
1860
1860
1830
1818
3c3c
0000
0000
ENDCHAR
STARTCHAR J2c2d
ENCODING 11309
SWIDTH 960 0
DWIDTH 16 0
BBX 16 16 0 -2
BITMAP
0000
0ffc
0418
0418
0418
0418
0418
0418
0418
0418
0418
0418
6418
383c
0000
0000
ENDCHAR
STARTCHAR J2c2e
ENCODING 11310
SWIDTH 960 0
DWIDTH 16 0
BBX 16 16 0 -2
BITMAP
0000
381e
1c1c
1c3c
1c2c
2c4c
264c
264c
268c
278c
4306
4306
4006
e00f
0000
0000
ENDCHAR
STARTCHAR J2c2f
ENCODING 11311
SWIDTH 960 0
DWIDTH 16 0
BBX 16 16 0 -2
BITMAP
0000
3c3c
1818
1818
1818
1818
1818
1ff8
1818
1818
1818
1818
1818
3c3c
0000
0000
ENDCHAR
STARTCHAR J2c30
ENCODING 11312
SWIDTH 960 0
DWIDTH 16 0
BBX 16 16 0 -2
BITMAP
0000
07e0
0c30
1818
1818
1818
1818
1818
1818
1818
1818
1818
0c30
07e0
0000
0000
ENDCHAR
STARTCHAR J2c31
ENCODING 11313
SWIDTH 960 0
DWIDTH 16 0
BBX 16 16 0 -2
BITMAP
0000
3ffc
1818
1818
1818
1818
1818
1818
1818
1818
1818
1818
1818
3c3c
0000
0000
ENDCHAR
STARTCHAR J2c32
ENCODING 11314
SWIDTH 960 0
DWIDTH 16 0
BBX 16 16 0 -2
BITMAP
0000
1ff0
0c18
0c18
0c18
0c18
0c18
0ff0
0c00
0c00
0c00
0c00
0c00
1e00
0000
0000
ENDCHAR
STARTCHAR J2c33
ENCODING 11315
SWIDTH 960 0
DWIDTH 16 0
BBX 16 16 0 -2
BITMAP
0000
07d0
1830
3008
6000
6000
6000
6000
6000
6000
6002
3004
1818
0fe0
0000
0000
ENDCHAR
STARTCHAR J2c34
ENCODING 11316
SWIDTH 960 0
DWIDTH 16 0
BBX 16 16 0 -2
BITMAP
0000
3ffc
2184
4182
0180
0180
0180
0180
0180
0180
0180
0180
0180
03c0
0000
0000
ENDCHAR
STARTCHAR J2c35
ENCODING 11317
SWIDTH 960 0
DWIDTH 16 0
BBX 16 16 0 -2
BITMAP
0000
3c1c
1808
0c10
0610
0620
0320
01c0
01c0
0080
0080
1900
1900
0e00
0000
0000
ENDCHAR
STARTCHAR J2c36
ENCODING 11318
SWIDTH 960 0
DWIDTH 16 0
BBX 16 16 0 -2
BITMAP
0000
03c0
0180
0ff0
1998
318c
318c
318c
318c
318c
1998
0ff0
0180
03c0
0000
0000
ENDCHAR
STARTCHAR J2c37
ENCODING 11319
SWIDTH 960 0
DWIDTH 16 0
BBX 16 16 0 -2
BITMAP
0000
3c1c
1808
0c10
0620
0340
0380
0180
01c0
0260
0460
0830
1018
383c
0000
0000
ENDCHAR
STARTCHAR J2c38
ENCODING 11320
SWIDTH 960 0
DWIDTH 16 0
BBX 16 16 0 -2
BITMAP
0000
3c3c
1818
1818
1818
1818
1818
1818
1818
1818
1818
1818
1818
3ffc
0002
0000
ENDCHAR
STARTCHAR J2c39
ENCODING 11321
SWIDTH 960 0
DWIDTH 16 0
BBX 16 16 0 -2
BITMAP
0000
3c3c
1818
1818
1818
1818
1818
1818
1838
0fd8
0018
0018
0018
003c
0000
0000
ENDCHAR
STARTCHAR J2c3a
ENCODING 11322
SWIDTH 960 0
DWIDTH 16 0
BBX 16 16 0 -2
BITMAP
0000
7bde
318c
318c
318c
318c
318c
318c
318c
318c
318c
318c
318c
7ffe
0000
0000
ENDCHAR
STARTCHAR J2c3b
ENCODING 11323
SWIDTH 960 0
DWIDTH 16 0
BBX 16 16 0 -2
BITMAP
0000
7bde
318c
318c
318c
318c
318c
318c
318c
318c
318c
318c
318c
7ffe
0001
0001
ENDCHAR
STARTCHAR J2c3c
ENCODING 11324
SWIDTH 960 0
DWIDTH 16 0
BBX 16 16 0 -2
BITMAP
0000
7fc0
8300
0300
0300
0300
03f8
030c
0306
0306
0306
0306
030c
07f8
0000
0000
ENDCHAR
STARTCHAR J2c3d
ENCODING 11325
SWIDTH 960 0
DWIDTH 16 0
BBX 16 16 0 -2
BITMAP
0000
f01e
600c
600c
600c
600c
7f0c
60cc
606c
606c
606c
606c
60cc
ff1e
0000
0000
ENDCHAR
STARTCHAR J2c3e
ENCODING 11326
SWIDTH 960 0
DWIDTH 16 0
BBX 16 16 0 -2
BITMAP
0000
1e00
0c00
0c00
0c00
0c00
0fe0
0c30
0c18
0c18
0c18
0c18
0c30
1fe0
0000
0000
ENDCHAR
STARTCHAR J2c3f
ENCODING 11327
SWIDTH 960 0
DWIDTH 16 0
BBX 16 16 0 -2
BITMAP
0000
17f0
1818
100c
000c
000c
0c3c
03cc
000c
000c
000c
300c
1018
0fe0
0000
0000
ENDCHAR
STARTCHAR J2c40
ENCODING 11328
SWIDTH 960 0
DWIDTH 16 0
BBX 16 16 0 -2
BITMAP
0000
f1f8
630c
6606
6606
6606
6606
7e06
6606
6606
6606
6606
630c
f1f8
0000
0000
ENDCHAR
STARTCHAR J2c41
ENCODING 11329
SWIDTH 960 0
DWIDTH 16 0
BBX 16 16 0 -2
BITMAP
0000
0ffc
1818
1818
1818
1818
1818
0ff8
0418
0418
0818
0818
1018
203c
0000
0000
ENDCHAR
STARTCHAR J2c51
ENCODING 11345
SWIDTH 960 0
DWIDTH 16 0
BBX 16 16 0 -2
BITMAP
0000
0000
0000
0000
0000
0000
0fc0
1020
0020
03e0
0c20
1020
1020
0fd8
0000
0000
ENDCHAR
STARTCHAR J2c52
ENCODING 11346
SWIDTH 960 0
DWIDTH 16 0
BBX 16 16 0 -2
BITMAP
0000
0000
0000
0000
0390
0460
0800
0bc0
0c20
0820
0820
0820
0820
07c0
0000
0000
ENDCHAR
STARTCHAR J2c53
ENCODING 11347
SWIDTH 960 0
DWIDTH 16 0
BBX 16 16 0 -2
BITMAP
0000
0000
0000
0000
0000
0000
0fe0
0410
0410
07e0
0410
0410
0410
0fe0
0000
0000
ENDCHAR
STARTCHAR J2c54
ENCODING 11348
SWIDTH 960 0
DWIDTH 16 0
BBX 16 16 0 -2
BITMAP
0000
0000
0000
0000
0000
0000
0fe0
0410
0400
0400
0400
0400
0400
0e00
0000
0000
ENDCHAR
STARTCHAR J2c55
ENCODING 11349
SWIDTH 960 0
DWIDTH 16 0
BBX 16 16 0 -2
BITMAP
0000
0000
0000
0000
0000
0000
07f0
0220
0220
0220
0420
0420
0420
0ff0
1000
0000
ENDCHAR
STARTCHAR J2c56
ENCODING 11350
SWIDTH 960 0
DWIDTH 16 0
BBX 16 16 0 -2
BITMAP
0000
0000
0000
0000
0000
0000
03e0
0410
0810
0ff0
0800
0808
0410
03e0
0000
0000
ENDCHAR
STARTCHAR J2c57
ENCODING 11351
SWIDTH 960 0
DWIDTH 16 0
BBX 16 16 0 -2
BITMAP
0000
0000
0000
0140
0140
0000
03e0
0410
0810
0ff0
0800
0808
0410
03e0
0000
0000
ENDCHAR
STARTCHAR J2c58
ENCODING 11352
SWIDTH 960 0
DWIDTH 16 0
BBX 16 16 0 -2
BITMAP
0000
0000
0000
0000
0000
0000
19cc
1494
02a0
03e0
02a0
0490
0490
19cc
0000
0000
ENDCHAR
STARTCHAR J2c59
ENCODING 11353
SWIDTH 960 0
DWIDTH 16 0
BBX 16 16 0 -2
BITMAP
0000
0000
0000
0000
0000
0000
03c0
0420
0020
01e0
0010
0010
0810
07e0
0000
0000
ENDCHAR
STARTCHAR J2c5a
ENCODING 11354
SWIDTH 960 0
DWIDTH 16 0
BBX 16 16 0 -2
BITMAP
0000
0000
0000
0000
0000
0000
0e70
0420
0460
04a0
0520
0620
0420
0e70
0000
0000
ENDCHAR
STARTCHAR J2c5b
ENCODING 11355
SWIDTH 960 0
DWIDTH 16 0
BBX 16 16 0 -2
BITMAP
0000
0000
0000
0000
0000
0140
0000
0e70
0420
0460
04a0
0520
0620
0420
0e70
0000
ENDCHAR
STARTCHAR J2c5c
ENCODING 11356
SWIDTH 960 0
DWIDTH 16 0
BBX 16 16 0 -2
BITMAP
0000
0000
0000
0000
0000
0000
0e30
0458
0480
0780
0580
04c0
0460
0e70
0000
0000
ENDCHAR
STARTCHAR J2c5d
ENCODING 11357
SWIDTH 960 0
DWIDTH 16 0
BBX 16 16 0 -2
BITMAP
0000
0000
0000
0000
0000
0000
07f0
0220
0220
0220
0220
0220
1a20
0c70
0000
0000
ENDCHAR
STARTCHAR J2c5e
ENCODING 11358
SWIDTH 960 0
DWIDTH 16 0
BBX 16 16 0 -2
BITMAP
0000
0000
0000
0000
0000
0000
1830
0c20
0c60
0a60
0aa0
0aa0
0920
1d70
0000
0000
ENDCHAR
STARTCHAR J2c5f
ENCODING 11359
SWIDTH 960 0
DWIDTH 16 0
BBX 16 16 0 -2
BITMAP
0000
0000
0000
0000
0000
0000
0e38
0410
0410
07f0
0410
0410
0410
0e38
0000
0000
ENDCHAR
STARTCHAR J2c60
ENCODING 11360
SWIDTH 960 0
DWIDTH 16 0
BBX 16 16 0 -2
BITMAP
0000
0000
0000
0000
0000
0000
03c0
0420
0810
0810
0810
0810
0420
03c0
0000
0000
ENDCHAR
STARTCHAR J2c61
ENCODING 11361
SWIDTH 960 0
DWIDTH 16 0
BBX 16 16 0 -2
BITMAP
0000
0000
0000
0000
0000
0000
0ff0
0420
0420
0420
0420
0420
0420
0e70
0000
0000
ENDCHAR
STARTCHAR J2c62
ENCODING 11362
SWIDTH 960 0
DWIDTH 16 0
BBX 16 16 0 -2
BITMAP
0000
0000
0000
0000
0000
0000
0dc0
0620
0410
0410
0410
0620
05c0
0400
0400
0e00
ENDCHAR
STARTCHAR J2c63
ENCODING 11363
SWIDTH 960 0
DWIDTH 16 0
BBX 16 16 0 -2
BITMAP
0000
0000
0000
0000
0000
0000
03c0
0420
0800
0800
0800
0800
0430
03c0
0000
0000
ENDCHAR
STARTCHAR J2c64
ENCODING 11364
SWIDTH 960 0
DWIDTH 16 0
BBX 16 16 0 -2
BITMAP
0000
0000
0000
0000
0000
0000
0fe0
1110
0100
0100
0100
0100
0100
0380
0000
0000
ENDCHAR
STARTCHAR J2c65
ENCODING 11365
SWIDTH 960 0
DWIDTH 16 0
BBX 16 16 0 -2
BITMAP
0000
0000
0000
0000
0000
0000
1c70
0820
0440
0440
0280
0280
0100
0100
1a00
0c00
ENDCHAR
STARTCHAR J2c66
ENCODING 11366
SWIDTH 960 0
DWIDTH 16 0
BBX 16 16 0 -2
BITMAP
0000
0000
0000
0000
0000
0000
0380
1d70
2388
2108
2108
2388
1d70
0380
0000
0000
ENDCHAR
STARTCHAR J2c67
ENCODING 11367
SWIDTH 960 0
DWIDTH 16 0
BBX 16 16 0 -2
BITMAP
0000
0000
0000
0000
0000
0000
0e70
0420
0240
0180
0180
0240
0420
0e70
0000
0000
ENDCHAR
STARTCHAR J2c68
ENCODING 11368
SWIDTH 960 0
DWIDTH 16 0
BBX 16 16 0 -2
BITMAP
0000
0000
0000
0000
0000
0000
0e70
0420
0420
0420
0420
0420
0420
0ff0
0008
0000
ENDCHAR
STARTCHAR J2c69
ENCODING 11369
SWIDTH 960 0
DWIDTH 16 0
BBX 16 16 0 -2
BITMAP
0000
0000
0000
0000
0000
0000
0e70
0420
0420
0420
0420
03e0
0020
0070
0000
0000
ENDCHAR
STARTCHAR J2c6a
ENCODING 11370
SWIDTH 960 0
DWIDTH 16 0
BBX 16 16 0 -2
BITMAP
0000
0000
0000
0000
0000
0000
739c
2108
2108
2108
2108
2108
2108
7ffc
0000
0000
ENDCHAR
STARTCHAR J2c6b
ENCODING 11371
SWIDTH 960 0
DWIDTH 16 0
BBX 16 16 0 -2
BITMAP
0000
0000
0000
0000
0000
0000
739c
2108
2108
2108
2108
2108
2108
7ffc
0002
0002
ENDCHAR
STARTCHAR J2c6c
ENCODING 11372
SWIDTH 960 0
DWIDTH 16 0
BBX 16 16 0 -2
BITMAP
0000
0000
0000
0000
0000
0000
1f80
2100
0100
01f8
0104
0104
0104
03f8
0000
0000
ENDCHAR
STARTCHAR J2c6d
ENCODING 11373
SWIDTH 960 0
DWIDTH 16 0
BBX 16 16 0 -2
BITMAP
0000
0000
0000
0000
0000
0000
381c
1008
1008
1f88
1048
1048
1048
3f9c
0000
0000
ENDCHAR
STARTCHAR J2c6e
ENCODING 11374
SWIDTH 960 0
DWIDTH 16 0
BBX 16 16 0 -2
BITMAP
0000
0000
0000
0000
0000
0000
0e00
0400
0400
07e0
0410
0410
0410
0fe0
0000
0000
ENDCHAR
STARTCHAR J2c6f
ENCODING 11375
SWIDTH 960 0
DWIDTH 16 0
BBX 16 16 0 -2
BITMAP
0000
0000
0000
0000
0000
0000
03e0
0410
0010
0330
00d0
0010
0410
03e0
0000
0000
ENDCHAR
STARTCHAR J2c70
ENCODING 11376
SWIDTH 960 0
DWIDTH 16 0
BBX 16 16 0 -2
BITMAP
0000
0000
0000
0000
0000
0000
38f0
1108
1204
1e04
1204
1204
1108
38f0
0000
0000
ENDCHAR
STARTCHAR J2c71
ENCODING 11377
SWIDTH 960 0
DWIDTH 16 0
BBX 16 16 0 -2
BITMAP
0000
0000
0000
0000
0000
0000
03f0
0420
0420
0420
03e0
0220
0420
0c70
0000
0000
ENDCHAR
STARTCHAR J3021
ENCODING 12321
SWIDTH 960 0
DWIDTH 16 0
BBX 16 16 0 -2
BITMAP
0020
0010
0010
4110
3f90
0110
0212
041f
0810
1010
2010
4010
0010
0010
0010
0000
ENDCHAR
STARTCHAR J3022
ENCODING 12322
SWIDTH 960 0
DWIDTH 16 0
BBX 16 16 0 -2
BITMAP
0020
4110
3f90
0212
041f
0810
1010
2010
4010
1ff0
0810
0010
0010
0010
0010
0000
ENDCHAR
STARTCHAR J3023
ENCODING 12323
SWIDTH 960 0
DWIDTH 16 0
BBX 16 16 0 -2
BITMAP
0020
0010
4210
3f10
0212
041f
0810
1010
2010
4010
0010
1800
0400
0410
03f8
0000
ENDCHAR
STARTCHAR J3024
ENCODING 12324
SWIDTH 960 0
DWIDTH 16 0
BBX 16 16 0 -2
BITMAP
0020
4110
3f90
0212
041f
0810
1010
2010
4010
1810
07f8
0400
0400
0410
03f8
0000
ENDCHAR
STARTCHAR J3025
ENCODING 12325
SWIDTH 960 0
DWIDTH 16 0
BBX 16 16 0 -2
BITMAP
0020
4110
3f90
0212
041f
0810
1010
2010
4010
0ff8
0010
0ff8
0400
0410
03f8
0000
ENDCHAR
STARTCHAR J3026
ENCODING 12326
SWIDTH 960 0
DWIDTH 16 0
BBX 16 16 0 -2
BITMAP
0020
4110
3f90
0212
041f
0810
1010
2010
4210
3ff8
0210
3f10
1010
1310
0c10
0000
ENDCHAR
STARTCHAR J3027
ENCODING 12327
SWIDTH 960 0
DWIDTH 16 0
BBX 16 16 0 -2
BITMAP
0020
4110
3f90
0212
041f
0810
1010
2010
4290
3ff8
0290
3f90
1090
1390
0cf8
0000
ENDCHAR
STARTCHAR J3028
ENCODING 12328
SWIDTH 960 0
DWIDTH 16 0
BBX 16 16 0 -2
BITMAP
0020
4110
3f90
0212
041f
0810
1010
2010
4010
1c10
07f8
0410
0410
0410
07f8
0000
ENDCHAR
STARTCHAR J3029
ENCODING 12329
SWIDTH 960 0
DWIDTH 16 0
BBX 16 16 0 -2
BITMAP
0020
4110
3f90
0212
041f
0810
1010
2010
4020
0810
0410
07f0
0410
0410
07f0
0000
ENDCHAR
STARTCHAR J302a
ENCODING 12330
SWIDTH 960 0
DWIDTH 16 0
BBX 16 16 0 -2
BITMAP
0020
4110
3f90
0212
041f
0810
1010
2010
4010
2220
1120
1f20
1150
1150
1f88
0000
ENDCHAR
STARTCHAR J302b
ENCODING 12331
SWIDTH 960 0
DWIDTH 16 0
BBX 16 16 0 -2
BITMAP
0020
4110
3f90
0212
041f
0810
1010
2010
4010
0190
0040
0080
0140
0220
0c18
0000
ENDCHAR
STARTCHAR J302c
ENCODING 12332
SWIDTH 960 0
DWIDTH 16 0
BBX 16 16 0 -2
BITMAP
0020
4110
3f90
0212
041f
0810
1010
2010
4010
0840
0420
0420
0a50
1190
2108
0000
ENDCHAR
STARTCHAR J302d
ENCODING 12333
SWIDTH 960 0
DWIDTH 16 0
BBX 16 16 0 -2
BITMAP
0020
4110
3f90
0212
041f
0810
1010
2010
4010
01d0
0220
0410
0410
0220
01c0
0000
ENDCHAR
STARTCHAR J302e
ENCODING 12334
SWIDTH 960 0
DWIDTH 16 0
BBX 16 16 0 -2
BITMAP
0020
4110
3f90
0212
041f
0810
1010
2010
4010
1010
0ff8
0080
0140
0220
0c18
0000
ENDCHAR
STARTCHAR J302f
ENCODING 12335
SWIDTH 960 0
DWIDTH 16 0
BBX 16 16 0 -2
BITMAP
0020
4110
3f90
0212
041f
0810
1010
2010
4210
01c0
1000
0ff8
0180
0240
0c30
0000
ENDCHAR
STARTCHAR J3030
ENCODING 12336
SWIDTH 960 0
DWIDTH 16 0
BBX 16 16 0 -2
BITMAP
0020
4110
3f90
0212
041f
0810
1010
2010
4010
1ff8
0400
07f8
0400
0410
03f8
0000
ENDCHAR
STARTCHAR J3031
ENCODING 12337
SWIDTH 960 0
DWIDTH 16 0
BBX 16 16 0 -2
BITMAP
0020
4110
3f90
0212
041f
0810
1010
2010
4010
1010
0ff0
0420
0240
1250
0ff8
0000
ENDCHAR
STARTCHAR J3032
ENCODING 12338
SWIDTH 960 0
DWIDTH 16 0
BBX 16 16 0 -2
BITMAP
0020
4110
3f90
0212
041f
0810
1010
2210
41c0
1010
0ff8
01c0
0220
0220
01c0
0000
ENDCHAR
STARTCHAR J3033
ENCODING 12339
SWIDTH 960 0
DWIDTH 16 0
BBX 16 16 0 -2
BITMAP
0020
0018
0048
4228
3f28
0228
0438
0428
0828
1028
2028
4028
0028
0028
0008
0000
ENDCHAR
STARTCHAR J3034
ENCODING 12340
SWIDTH 960 0
DWIDTH 16 0
BBX 16 16 0 -2
BITMAP
0020
4298
3f68
0228
0438
0828
1028
2028
4028
1ffc
0808
0008
0008
0008
0008
0000
ENDCHAR
STARTCHAR J3035
ENCODING 12341
SWIDTH 960 0
DWIDTH 16 0
BBX 16 16 0 -2
BITMAP
0020
0018
4248
3f28
0228
0438
0828
1028
2028
4028
0028
0c08
0200
0208
01fc
0000
ENDCHAR
STARTCHAR J3036
ENCODING 12342
SWIDTH 960 0
DWIDTH 16 0
BBX 16 16 0 -2
BITMAP
0020
4298
3f68
0228
0438
0828
1028
2028
4828
07fc
0008
07fc
0200
0208
01fc
0000
ENDCHAR
STARTCHAR J3037
ENCODING 12343
SWIDTH 960 0
DWIDTH 16 0
BBX 16 16 0 -2
BITMAP
0020
4298
3f68
0228
0438
0828
1028
2028
4028
0008
0ffc
0208
0208
0208
03fc
0000
ENDCHAR
STARTCHAR J3038
ENCODING 12344
SWIDTH 960 0
DWIDTH 16 0
BBX 16 16 0 -2
BITMAP
0020
4298
3f68
0228
0438
0828
1028
2028
4028
0818
0608
03f8
0208
0208
03f8
0000
ENDCHAR
STARTCHAR J3039
ENCODING 12345
SWIDTH 960 0
DWIDTH 16 0
BBX 16 16 0 -2
BITMAP
0020
4298
3f68
0228
0438
0828
1028
2028
4028
00c8
0048
00c0
0120
0210
0c0c
0000
ENDCHAR
STARTCHAR J303a
ENCODING 12346
SWIDTH 960 0
DWIDTH 16 0
BBX 16 16 0 -2
BITMAP
0020
4298
3f68
0228
0438
0828
1028
2028
4028
0008
0630
0210
0630
0948
1084
0000
ENDCHAR
STARTCHAR J303b
ENCODING 12347
SWIDTH 960 0
DWIDTH 16 0
BBX 16 16 0 -2
BITMAP
0020
4298
3f68
0228
0438
0828
1028
2028
4028
00e8
0110
0208
0208
0110
00e0
0000
ENDCHAR
STARTCHAR J303c
ENCODING 12348
SWIDTH 960 0
DWIDTH 16 0
BBX 16 16 0 -2
BITMAP
0020
0010
0010
4110
3f92
011f
0210
0410
0812
101f
2010
4010
0010
0010
0010
0000
ENDCHAR
STARTCHAR J303d
ENCODING 12349
SWIDTH 960 0
DWIDTH 16 0
BBX 16 16 0 -2
BITMAP
0020
4110
3f92
021f
0410
0812
101f
2010
4010
1ff0
0810
0010
0010
0010
0010
0000
ENDCHAR
STARTCHAR J303e
ENCODING 12350
SWIDTH 960 0
DWIDTH 16 0
BBX 16 16 0 -2
BITMAP
0020
0010
4210
3f12
021f
0410
0812
101f
2010
4010
0010
1800
0400
0410
03f8
0000
ENDCHAR
STARTCHAR J303f
ENCODING 12351
SWIDTH 960 0
DWIDTH 16 0
BBX 16 16 0 -2
BITMAP
0020
4110
3f92
021f
0410
0812
101f
2010
5010
0ff8
0010
1ff8
0400
0410
03f8
0000
ENDCHAR
STARTCHAR J3040
ENCODING 12352
SWIDTH 960 0
DWIDTH 16 0
BBX 16 16 0 -2
BITMAP
0020
4110
3f92
021f
0410
0812
101f
2010
4010
0110
0080
0180
0240
0420
1818
0000
ENDCHAR
STARTCHAR J3041
ENCODING 12353
SWIDTH 960 0
DWIDTH 16 0
BBX 16 16 0 -2
BITMAP
0020
4110
3f92
021f
0410
0812
101f
2010
4010
01d0
0220
0410
0410
0220
01c0
0000
ENDCHAR
STARTCHAR J3042
ENCODING 12354
SWIDTH 960 0
DWIDTH 16 0
BBX 16 16 0 -2
BITMAP
0020
0098
0068
4228
3f28
0238
0428
0428
0838
1028
2028
4028
0028
0028
0008
0000
ENDCHAR
STARTCHAR J3043
ENCODING 12355
SWIDTH 960 0
DWIDTH 16 0
BBX 16 16 0 -2
BITMAP
0020
0098
4268
3f28
0238
0428
0838
1028
2028
4028
0028
0e08
0200
0208
01fc
0000
ENDCHAR
STARTCHAR J3044
ENCODING 12356
SWIDTH 960 0
DWIDTH 16 0
BBX 16 16 0 -2
BITMAP
0020
0098
4268
3f28
0238
0428
0838
1028
2828
47fc
0008
0ffc
0200
0208
01fc
0000
ENDCHAR
STARTCHAR J3045
ENCODING 12357
SWIDTH 960 0
DWIDTH 16 0
BBX 16 16 0 -2
BITMAP
0020
0018
0008
4108
3f88
0108
0208
05f8
0888
1008
2008
4008
0008
0008
0008
0000
ENDCHAR
STARTCHAR J3046
ENCODING 12358
SWIDTH 960 0
DWIDTH 16 0
BBX 16 16 0 -2
BITMAP
0020
4118
3f88
0208
05f8
0888
1008
2008
4008
1ffc
0808
0008
0008
0008
0008
0000
ENDCHAR
STARTCHAR J3047
ENCODING 12359
SWIDTH 960 0
DWIDTH 16 0
BBX 16 16 0 -2
BITMAP
0020
0018
4108
3f88
0208
05f8
0888
1008
2008
4008
0008
0c00
0200
0208
01fc
0000
ENDCHAR
STARTCHAR J3048
ENCODING 12360
SWIDTH 960 0
DWIDTH 16 0
BBX 16 16 0 -2
BITMAP
0020
4118
3f88
0208
05f8
0888
1008
2008
4000
0e08
03fc
0200
0200
0208
01fc
0000
ENDCHAR
STARTCHAR J3049
ENCODING 12361
SWIDTH 960 0
DWIDTH 16 0
BBX 16 16 0 -2
BITMAP
0020
4118
3f88
0208
05f8
0888
1008
2008
4808
07fc
0008
0ffc
0200
0208
01fc
0000
ENDCHAR
STARTCHAR J304a
ENCODING 12362
SWIDTH 960 0
DWIDTH 16 0
BBX 16 16 0 -2
BITMAP
0020
4118
3f88
0208
05f8
0888
1008
2008
4048
1ffc
0148
1fc8
0848
09c8
067c
0000
ENDCHAR
STARTCHAR J304b
ENCODING 12363
SWIDTH 960 0
DWIDTH 16 0
BBX 16 16 0 -2
BITMAP
0020
4118
3f88
0208
05f8
0888
1008
2008
4008
0008
0ffc
0208
0208
0208
03fc
0000
ENDCHAR
STARTCHAR J304c
ENCODING 12364
SWIDTH 960 0
DWIDTH 16 0
BBX 16 16 0 -2
BITMAP
0020
4118
3f88
0208
05f8
0888
1008
2008
4020
1018
0c08
07f8
0408
0408
07f8
0000
ENDCHAR
STARTCHAR J304d
ENCODING 12365
SWIDTH 960 0
DWIDTH 16 0
BBX 16 16 0 -2
BITMAP
0020
4118
3f88
0208
05f8
0888
1008
2008
4008
00c8
0040
00c0
0120
0210
0c0c
0000
ENDCHAR
STARTCHAR J304e
ENCODING 12366
SWIDTH 960 0
DWIDTH 16 0
BBX 16 16 0 -2
BITMAP
0020
4118
3f88
0208
05f8
0888
1008
2008
4008
0420
0210
0210
0528
08c8
1084
0000
ENDCHAR
STARTCHAR J304f
ENCODING 12367
SWIDTH 960 0
DWIDTH 16 0
BBX 16 16 0 -2
BITMAP
0020
4118
3f88
0208
05f8
0888
1008
2008
4008
00e8
0110
0208
0208
0110
00e0
0000
ENDCHAR
STARTCHAR J3050
ENCODING 12368
SWIDTH 960 0
DWIDTH 16 0
BBX 16 16 0 -2
BITMAP
0020
4118
3f88
0208
05f8
0888
1008
2008
4008
0808
07fc
0040
00a0
0110
060c
0000
ENDCHAR
STARTCHAR J3051
ENCODING 12369
SWIDTH 960 0
DWIDTH 16 0
BBX 16 16 0 -2
BITMAP
0020
4118
3f88
0208
05f8
0888
1008
2008
4008
0ffc
0200
03fc
0200
0208
01fc
0000
ENDCHAR
STARTCHAR J3052
ENCODING 12370
SWIDTH 960 0
DWIDTH 16 0
BBX 16 16 0 -2
BITMAP
0020
4118
3f88
0208
05f8
0888
1008
2008
4008
0808
07fc
0210
0110
0928
07fc
0000
ENDCHAR
STARTCHAR J3053
ENCODING 12371
SWIDTH 960 0
DWIDTH 16 0
BBX 16 16 0 -2
BITMAP
0020
4118
3f88
0208
05f8
0888
1008
2108
40e0
0808
07fc
00e0
0110
0110
00e0
0000
ENDCHAR
STARTCHAR J3054
ENCODING 12372
SWIDTH 960 0
DWIDTH 16 0
BBX 16 16 0 -2
BITMAP
0020
0098
0068
4228
3f28
0228
07e8
0828
0828
1028
2028
4028
0028
0028
0008
0000
ENDCHAR
STARTCHAR J3055
ENCODING 12373
SWIDTH 960 0
DWIDTH 16 0
BBX 16 16 0 -2
BITMAP
0020
0098
4268
3f28
0228
07e8
0a28
1028
2028
4028
0008
0e00
0200
0208
01fc
0000
ENDCHAR
STARTCHAR J3056
ENCODING 12374
SWIDTH 960 0
DWIDTH 16 0
BBX 16 16 0 -2
BITMAP
0010
4248
3f28
0228
07e8
0a28
1028
2028
4808
07fc
0008
07fc
0200
0208
01fc
0000
ENDCHAR
STARTCHAR J3057
ENCODING 12375
SWIDTH 960 0
DWIDTH 16 0
BBX 16 16 0 -2
BITMAP
0010
4248
3f28
0228
07e8
0a28
1028
2028
4008
0008
0ffc
0208
0208
0208
03fc
0000
ENDCHAR
STARTCHAR J3058
ENCODING 12376
SWIDTH 960 0
DWIDTH 16 0
BBX 16 16 0 -2
BITMAP
0010
4248
3f28
0228
07e8
0a28
1028
2028
4028
0810
0608
03f8
0208
0208
03f8
0000
ENDCHAR
STARTCHAR J3059
ENCODING 12377
SWIDTH 960 0
DWIDTH 16 0
BBX 16 16 0 -2
BITMAP
0010
4248
3f28
0228
07e8
0a28
1028
2028
4028
00c8
0040
00c0
0120
0210
0c0c
0000
ENDCHAR
STARTCHAR J305a
ENCODING 12378
SWIDTH 960 0
DWIDTH 16 0
BBX 16 16 0 -2
BITMAP
0010
4248
3f28
0228
07e8
0a28
1028
2028
4028
0008
0630
0210
0530
08c8
1084
0000
ENDCHAR
STARTCHAR J305b
ENCODING 12379
SWIDTH 960 0
DWIDTH 16 0
BBX 16 16 0 -2
BITMAP
0010
4248
3f28
0228
07e8
0a28
1028
2028
4028
00e8
0110
0208
0208
0110
00e0
0000
ENDCHAR
STARTCHAR J305c
ENCODING 12380
SWIDTH 960 0
DWIDTH 16 0
BBX 16 16 0 -2
BITMAP
0020
0018
4108
3f88
0108
03f8
0488
0808
13f8
2088
4008
0008
0008
0008
0008
0000
ENDCHAR
STARTCHAR J305d
ENCODING 12381
SWIDTH 960 0
DWIDTH 16 0
BBX 16 16 0 -2
BITMAP
0020
4118
3f08
03f8
0488
0808
11f8
2088
4008
1ffc
0808
0008
0008
0008
0008
0000
ENDCHAR
STARTCHAR J305e
ENCODING 12382
SWIDTH 960 0
DWIDTH 16 0
BBX 16 16 0 -2
BITMAP
0020
4218
3f08
03f8
0488
0808
13f8
2008
5088
0ffc
0488
0088
0088
0088
0088
0000
ENDCHAR
STARTCHAR J305f
ENCODING 12383
SWIDTH 960 0
DWIDTH 16 0
BBX 16 16 0 -2
BITMAP
0020
0018
4208
3f08
03f8
0488
0808
13f8
2088
4008
0008
0e08
0200
0208
01fc
0000
ENDCHAR
STARTCHAR J3060
ENCODING 12384
SWIDTH 960 0
DWIDTH 16 0
BBX 16 16 0 -2
BITMAP
0020
4218
3f08
03f8
0408
0808
13f8
2108
4008
0008
0ffc
0200
0200
0208
01fc
0000
ENDCHAR
STARTCHAR J3061
ENCODING 12385
SWIDTH 960 0
DWIDTH 16 0
BBX 16 16 0 -2
BITMAP
0020
4218
3f08
03f8
0488
0808
13f8
2108
4808
07fc
0008
0ffc
0200
0208
01fc
0000
ENDCHAR
STARTCHAR J3062
ENCODING 12386
SWIDTH 960 0
DWIDTH 16 0
BBX 16 16 0 -2
BITMAP
0020
4218
3f08
03f8
0488
0808
13f8
2088
4008
1c08
07fc
0408
0408
0408
07fc
0000
ENDCHAR
STARTCHAR J3063
ENCODING 12387
SWIDTH 960 0
DWIDTH 16 0
BBX 16 16 0 -2
BITMAP
0020
4218
3f08
03f8
0488
0808
13f8
2088
4028
0818
0408
07f8
0408
0408
07f8
0000
ENDCHAR
STARTCHAR J3064
ENCODING 12388
SWIDTH 960 0
DWIDTH 16 0
BBX 16 16 0 -2
BITMAP
0020
4218
3f08
03f8
0488
0808
13f8
2108
4008
0088
0040
00c0
0120
0210
0c0c
0000
ENDCHAR
STARTCHAR J3065
ENCODING 12389
SWIDTH 960 0
DWIDTH 16 0
BBX 16 16 0 -2
BITMAP
0020
4218
3f08
03f8
0488
0808
13f8
2108
4008
0428
0210
0210
0530
08c8
3184
0000
ENDCHAR
STARTCHAR J3066
ENCODING 12390
SWIDTH 960 0
DWIDTH 16 0
BBX 16 16 0 -2
BITMAP
0020
4218
3f08
03f8
0488
0808
13f8
2108
4008
00e8
0110
0208
0208
0110
00e0
0000
ENDCHAR
STARTCHAR J3067
ENCODING 12391
SWIDTH 960 0
DWIDTH 16 0
BBX 16 16 0 -2
BITMAP
0020
4218
3f08
03f8
0488
0808
13f8
2108
4008
0ffc
0200
03fc
0200
0208
01fc
0000
ENDCHAR
STARTCHAR J3068
ENCODING 12392
SWIDTH 960 0
DWIDTH 16 0
BBX 16 16 0 -2
BITMAP
0020
0098
0068
4228
3f28
03e8
0228
0428
0be8
1028
2028
4028
0028
0028
0008
0000
ENDCHAR
STARTCHAR J3069
ENCODING 12393
SWIDTH 960 0
DWIDTH 16 0
BBX 16 16 0 -2
BITMAP
0020
0098
4268
3f28
03e8
0428
0828
13e8
2028
4028
0028
0e08
0200
0208
01fc
0000
ENDCHAR
STARTCHAR J306a
ENCODING 12394
SWIDTH 960 0
DWIDTH 16 0
BBX 16 16 0 -2
BITMAP
0020
0098
4268
3f28
03e8
0428
0be8
1028
2028
47fc
0008
07fc
0200
0208
01fc
0000
ENDCHAR
STARTCHAR J306b
ENCODING 12395
SWIDTH 960 0
DWIDTH 16 0
BBX 16 16 0 -2
BITMAP
0020
0098
4268
3f28
03e8
0428
0be8
1028
2028
4418
0208
03f8
0208
0208
03f8
0000
ENDCHAR
STARTCHAR J306c
ENCODING 12396
SWIDTH 960 0
DWIDTH 16 0
BBX 16 16 0 -2
BITMAP
0020
0098
4268
3f28
03e8
0428
0be8
1028
2028
40c8
0048
00c0
0120
0210
0c0c
0000
ENDCHAR
STARTCHAR J306d
ENCODING 12397
SWIDTH 960 0
DWIDTH 16 0
BBX 16 16 0 -2
BITMAP
0000
0000
1008
0ffc
0008
0008
0208
0108
0110
0110
4112
3fff
1000
0000
0000
0000
ENDCHAR
STARTCHAR J306e
ENCODING 12398
SWIDTH 960 0
DWIDTH 16 0
BBX 16 16 0 -2
BITMAP
0808
07fc
0008
0108
0090
4092
3fff
1000
0008
0ffc
0408
0008
0008
0008
0008
0000
ENDCHAR
STARTCHAR J306f
ENCODING 12399
SWIDTH 960 0
DWIDTH 16 0
BBX 16 16 0 -2
BITMAP
1008
0ffc
0008
0108
0088
0090
4092
3fff
1000
0000
0000
0c00
0200
0208
01fc
0000
ENDCHAR
STARTCHAR J3070
ENCODING 12400
SWIDTH 960 0
DWIDTH 16 0
BBX 16 16 0 -2
BITMAP
0808
07fc
0008
0108
0090
4092
3fff
1000
0000
0e08
03fc
0200
0200
0208
01fc
0000
ENDCHAR
STARTCHAR J3071
ENCODING 12401
SWIDTH 960 0
DWIDTH 16 0
BBX 16 16 0 -2
BITMAP
0808
07fc
0008
0108
0090
4092
3fff
1000
0008
07fc
0008
07fc
0200
0208
01fc
0000
ENDCHAR
STARTCHAR J3072
ENCODING 12402
SWIDTH 960 0
DWIDTH 16 0
BBX 16 16 0 -2
BITMAP
0808
07fc
0008
0108
0090
4092
3fff
1000
1148
0ffc
0148
1fc8
0848
0948
07fc
0000
ENDCHAR
STARTCHAR J3073
ENCODING 12403
SWIDTH 960 0
DWIDTH 16 0
BBX 16 16 0 -2
BITMAP
0808
07fc
0008
0108
0090
4092
3fff
1000
10a0
0fd0
0090
0fd0
0428
04c4
0382
0000
ENDCHAR
STARTCHAR J3074
ENCODING 12404
SWIDTH 960 0
DWIDTH 16 0
BBX 16 16 0 -2
BITMAP
0808
07fc
0008
0108
0090
4092
3fff
1000
1140
0fb8
0104
1ffe
0838
09c4
0638
0000
ENDCHAR
STARTCHAR J3075
ENCODING 12405
SWIDTH 960 0
DWIDTH 16 0
BBX 16 16 0 -2
BITMAP
0808
07fc
0008
0108
0090
4092
3fff
1000
0000
0c08
07fc
0408
0408
0408
07fc
0000
ENDCHAR
STARTCHAR J3076
ENCODING 12406
SWIDTH 960 0
DWIDTH 16 0
BBX 16 16 0 -2
BITMAP
0808
07fc
0008
0108
0090
4092
3fff
1000
0010
0808
0408
07f8
0408
0408
07f8
0000
ENDCHAR
STARTCHAR J3077
ENCODING 12407
SWIDTH 960 0
DWIDTH 16 0
BBX 16 16 0 -2
BITMAP
0808
07fc
0008
0108
0090
4092
3fff
1000
0000
00c0
0040
00c0
0120
0210
0c0c
0000
ENDCHAR
STARTCHAR J3078
ENCODING 12408
SWIDTH 960 0
DWIDTH 16 0
BBX 16 16 0 -2
BITMAP
0808
07fc
0008
0108
0090
4092
3fff
1000
0000
01e0
0210
0408
0408
0210
01e0
0000
ENDCHAR
STARTCHAR J3079
ENCODING 12409
SWIDTH 960 0
DWIDTH 16 0
BBX 16 16 0 -2
BITMAP
0808
07fc
0008
0108
0090
4092
3fff
1000
0000
1008
0ffc
0080
0140
0220
0c18
0000
ENDCHAR
STARTCHAR J307a
ENCODING 12410
SWIDTH 960 0
DWIDTH 16 0
BBX 16 16 0 -2
BITMAP
0040
0030
2090
1fd0
0890
0090
1092
091f
0910
4bf0
3c10
0010
0010
0010
0010
0000
ENDCHAR
STARTCHAR J307b
ENCODING 12411
SWIDTH 960 0
DWIDTH 16 0
BBX 16 16 0 -2
BITMAP
0040
20b0
1fd0
0090
0c92
051f
45f0
3f10
1010
1ff8
0810
0010
0010
0010
0010
0000
ENDCHAR
STARTCHAR J307c
ENCODING 12412
SWIDTH 960 0
DWIDTH 16 0
BBX 16 16 0 -2
BITMAP
0040
0030
2090
1fd0
0090
0c92
051f
45f0
3f10
1010
0010
0c10
0200
0210
01f8
0000
ENDCHAR
STARTCHAR J307d
ENCODING 12413
SWIDTH 960 0
DWIDTH 16 0
BBX 16 16 0 -2
BITMAP
0040
20b0
1fd0
0090
0c92
051f
45f0
3f10
1010
0ff8
0010
0ff8
0200
0210
01f8
0000
ENDCHAR
STARTCHAR J307e
ENCODING 12414
SWIDTH 960 0
DWIDTH 16 0
BBX 16 16 0 -2
BITMAP
0040
20b0
1fd0
0090
0c92
051f
45f0
3f10
1210
1ff8
0290
1f90
0890
0990
06f8
0000
ENDCHAR
STARTCHAR J3121
ENCODING 12577
SWIDTH 960 0
DWIDTH 16 0
BBX 16 16 0 -2
BITMAP
0040
20b0
1fd0
0090
0c92
051f
45f0
3f10
1010
0010
1ff8
0410
0410
0410
07f8
0000
ENDCHAR
STARTCHAR J3122
ENCODING 12578
SWIDTH 960 0
DWIDTH 16 0
BBX 16 16 0 -2
BITMAP
0040
20b0
1fd0
0090
0c92
051f
45f0
3f10
1050
0830
0410
07f0
0410
0410
07f0
0000
ENDCHAR
STARTCHAR J3123
ENCODING 12579
SWIDTH 960 0
DWIDTH 16 0
BBX 16 16 0 -2
BITMAP
0040
20b0
1fd0
0090
0c92
051f
45f0
3f10
1010
00d0
0040
00c0
0120
0210
0c0c
0000
ENDCHAR
STARTCHAR J3124
ENCODING 12580
SWIDTH 960 0
DWIDTH 16 0
BBX 16 16 0 -2
BITMAP
0040
20b0
1fd0
0090
0c92
051f
45f0
3f10
1010
01d0
0220
0410
0410
0220
01c0
0000
ENDCHAR
STARTCHAR J3125
ENCODING 12581
SWIDTH 960 0
DWIDTH 16 0
BBX 16 16 0 -2
BITMAP
0020
0098
2168
1fa8
0128
0128
1938
0928
49e8
3e28
1028
0028
0028
0028
0008
0000
ENDCHAR
STARTCHAR J3126
ENCODING 12582
SWIDTH 960 0
DWIDTH 16 0
BBX 16 16 0 -2
BITMAP
0020
0098
2168
1fa8
0128
1928
0938
49e8
3e28
1028
0028
0608
0200
0208
01fc
0000
ENDCHAR
STARTCHAR J3127
ENCODING 12583
SWIDTH 960 0
DWIDTH 16 0
BBX 16 16 0 -2
BITMAP
0020
0098
2168
1fa8
0128
1938
0928
49e8
3e28
1008
07fc
0008
07fc
0100
0108
00fc
ENDCHAR
STARTCHAR J3128
ENCODING 12584
SWIDTH 960 0
DWIDTH 16 0
BBX 16 16 0 -2
BITMAP
0020
0098
2168
1fa8
0128
1938
0928
49e8
3e28
1018
0c08
07f8
0408
0408
07f8
0000
ENDCHAR
STARTCHAR J3129
ENCODING 12585
SWIDTH 960 0
DWIDTH 16 0
BBX 16 16 0 -2
BITMAP
0020
0098
2168
1fa8
0128
1938
0928
49e8
3e28
1008
0330
0110
0328
04c8
1884
0000
ENDCHAR
STARTCHAR J312a
ENCODING 12586
SWIDTH 960 0
DWIDTH 16 0
BBX 16 16 0 -2
BITMAP
0020
0098
2168
1fa8
0128
1938
0928
49e8
3e28
00e8
0110
0208
0208
0110
00e0
0000
ENDCHAR
STARTCHAR J312b
ENCODING 12587
SWIDTH 960 0
DWIDTH 16 0
BBX 16 16 0 -2
BITMAP
0020
0018
2088
1fc8
0088
0088
0888
0488
44f8
3f08
1008
0008
0008
0008
0008
0000
ENDCHAR
STARTCHAR J312c
ENCODING 12588
SWIDTH 960 0
DWIDTH 16 0
BBX 16 16 0 -2
BITMAP
0020
2098
1fc8
0088
0c88
0488
44f8
3f08
1008
0ffc
0408
0008
0008
0008
0008
0000
ENDCHAR
STARTCHAR J312d
ENCODING 12589
SWIDTH 960 0
DWIDTH 16 0
BBX 16 16 0 -2
BITMAP
0020
0018
2088
1fc8
0088
0c88
0488
44f8
3f08
0008
0008
0e08
0200
0208
01fc
0000
ENDCHAR
STARTCHAR J312e
ENCODING 12590
SWIDTH 960 0
DWIDTH 16 0
BBX 16 16 0 -2
BITMAP
0020
2098
1fc8
0088
0c88
0488
44f8
3f08
1008
07fc
0008
07fc
0200
0208
01fc
0000
ENDCHAR
STARTCHAR J312f
ENCODING 12591
SWIDTH 960 0
DWIDTH 16 0
BBX 16 16 0 -2
BITMAP
0020
2098
1fc8
0088
0c88
0488
44f8
3f08
1008
0c08
07fc
0408
0408
0408
07fc
0000
ENDCHAR
STARTCHAR J3130
ENCODING 12592
SWIDTH 960 0
DWIDTH 16 0
BBX 16 16 0 -2
BITMAP
0020
2098
1fc8
0088
0c88
0488
44f8
3f08
1028
0c18
0408
07f8
0408
0408
07f8
0000
ENDCHAR
STARTCHAR J3131
ENCODING 12593
SWIDTH 960 0
DWIDTH 16 0
BBX 16 16 0 -2
BITMAP
0020
2098
1fc8
0088
0c88
0488
44f8
3f08
1008
0068
0028
0040
00a0
0110
060c
0000
ENDCHAR
STARTCHAR J3132
ENCODING 12594
SWIDTH 960 0
DWIDTH 16 0
BBX 16 16 0 -2
BITMAP
0020
2098
1fc8
0088
0c88
0488
44f8
3f08
1008
00e8
0110
0208
0208
0110
00e0
0000
ENDCHAR
STARTCHAR J3133
ENCODING 12595
SWIDTH 960 0
DWIDTH 16 0
BBX 16 16 0 -2
BITMAP
0000
0000
1008
0ffc
0408
0008
0088
0048
0450
0250
4252
3fff
1000
0000
0000
0000
ENDCHAR
STARTCHAR J3134
ENCODING 12596
SWIDTH 960 0
DWIDTH 16 0
BBX 16 16 0 -2
BITMAP
0808
07fc
0008
0088
0448
0250
4252
3fff
1000
0000
0000
0e00
0200
0208
01fc
0000
ENDCHAR
STARTCHAR J3135
ENCODING 12597
SWIDTH 960 0
DWIDTH 16 0
BBX 16 16 0 -2
BITMAP
0808
07fc
0008
0088
0450
4252
3fff
1000
0408
03fc
0008
07fc
0100
0108
00fc
0000
ENDCHAR
STARTCHAR J3136
ENCODING 12598
SWIDTH 960 0
DWIDTH 16 0
BBX 16 16 0 -2
BITMAP
0808
07fc
0008
0088
0448
0250
4252
3fff
1018
0408
0208
03f8
0208
0208
03f8
0000
ENDCHAR
STARTCHAR J3137
ENCODING 12599
SWIDTH 960 0
DWIDTH 16 0
BBX 16 16 0 -2
BITMAP
0808
07fc
0008
0088
0448
0250
4252
3fff
1000
00c0
0040
00c0
0120
0210
0c0c
0000
ENDCHAR
STARTCHAR J3138
ENCODING 12600
SWIDTH 960 0
DWIDTH 16 0
BBX 16 16 0 -2
BITMAP
1010
0ff8
0010
0010
0010
0020
4022
3fff
1080
0080
0080
0080
0080
0080
0080
0000
ENDCHAR
STARTCHAR J3139
ENCODING 12601
SWIDTH 960 0
DWIDTH 16 0
BBX 16 16 0 -2
BITMAP
0808
07fc
0008
0008
0010
4012
3fff
1080
0088
0ffc
0408
0008
0008
0008
0008
0008
ENDCHAR
STARTCHAR J313a
ENCODING 12602
SWIDTH 960 0
DWIDTH 16 0
BBX 16 16 0 -2
BITMAP
0808
07fc
0008
0008
0010
4012
3fff
1080
0080
0080
0080
0c00
0400
0408
03fc
0000
ENDCHAR
STARTCHAR J313b
ENCODING 12603
SWIDTH 960 0
DWIDTH 16 0
BBX 16 16 0 -2
BITMAP
0808
07fc
0008
0008
0010
4012
3fff
1080
0080
0090
1ff8
0400
0400
0408
03fc
0000
ENDCHAR
STARTCHAR J313c
ENCODING 12604
SWIDTH 960 0
DWIDTH 16 0
BBX 16 16 0 -2
BITMAP
0808
07fc
0008
0008
0010
4012
3fff
1080
0888
07fc
0008
07fc
0200
0208
01fc
0000
ENDCHAR
STARTCHAR J313d
ENCODING 12605
SWIDTH 960 0
DWIDTH 16 0
BBX 16 16 0 -2
BITMAP
0808
07fc
0008
0008
0010
4012
3fff
1080
0088
0ffc
0088
0fc8
0408
04c8
0308
0000
ENDCHAR
STARTCHAR J313e
ENCODING 12606
SWIDTH 960 0
DWIDTH 16 0
BBX 16 16 0 -2
BITMAP
0808
07fc
0008
0008
0010
4012
3fff
1080
0088
1ffc
0148
1fc8
0848
09c8
067c
0000
ENDCHAR
STARTCHAR J313f
ENCODING 12607
SWIDTH 960 0
DWIDTH 16 0
BBX 16 16 0 -2
BITMAP
0808
07fc
0008
0008
0010
4012
3fff
1080
0080
0ff8
0084
0ffe
0430
04c8
0330
0000
ENDCHAR
STARTCHAR J3140
ENCODING 12608
SWIDTH 960 0
DWIDTH 16 0
BBX 16 16 0 -2
BITMAP
0808
07fc
0008
0008
0010
4012
3fff
1080
0080
0c88
07fc
0408
0408
0408
07fc
0000
ENDCHAR
STARTCHAR J3141
ENCODING 12609
SWIDTH 960 0
DWIDTH 16 0
BBX 16 16 0 -2
BITMAP
0808
07fc
0008
0008
0010
4012
3fff
1080
0090
0888
0408
07f8
0408
0408
07f8
0000
ENDCHAR
STARTCHAR J3142
ENCODING 12610
SWIDTH 960 0
DWIDTH 16 0
BBX 16 16 0 -2
BITMAP
0808
07fc
0008
0008
0010
4012
3fff
1080
0080
0080
0180
0080
0140
0220
0c18
0000
ENDCHAR
STARTCHAR J3143
ENCODING 12611
SWIDTH 960 0
DWIDTH 16 0
BBX 16 16 0 -2
BITMAP
0808
07fc
0008
0008
0010
4012
3fff
1080
0080
01c0
0220
0410
0410
0220
01c0
0000
ENDCHAR
STARTCHAR J3144
ENCODING 12612
SWIDTH 960 0
DWIDTH 16 0
BBX 16 16 0 -2
BITMAP
0808
07fc
0008
0008
0010
4012
3fff
1080
0080
1088
0ffc
0080
0140
0220
0c18
0000
ENDCHAR
STARTCHAR J3145
ENCODING 12613
SWIDTH 960 0
DWIDTH 16 0
BBX 16 16 0 -2
BITMAP
0020
2098
1fc8
0088
0088
0108
41f8
3f08
1408
05f8
0488
0408
0408
0408
0008
0000
ENDCHAR
STARTCHAR J3146
ENCODING 12614
SWIDTH 960 0
DWIDTH 16 0
BBX 16 16 0 -2
BITMAP
0020
2098
1fc8
0088
0088
4178
3f88
14f8
0408
1008
0ffc
0408
0008
0008
0008
0000
ENDCHAR
STARTCHAR J3147
ENCODING 12615
SWIDTH 960 0
DWIDTH 16 0
BBX 16 16 0 -2
BITMAP
0020
0018
2088
1fc8
0088
0088
4178
3f88
1408
04f8
0008
0608
0200
0208
01fc
0000
ENDCHAR
STARTCHAR J3148
ENCODING 12616
SWIDTH 960 0
DWIDTH 16 0
BBX 16 16 0 -2
BITMAP
0020
2098
1fc8
0088
0088
4178
3f88
14f8
0408
07fc
0008
07fc
0200
0208
01fc
0000
ENDCHAR
STARTCHAR J3149
ENCODING 12617
SWIDTH 960 0
DWIDTH 16 0
BBX 16 16 0 -2
BITMAP
0020
2098
1fc8
0088
0088
4178
3f88
14f8
0408
0408
0638
0210
0630
0948
1084
0000
ENDCHAR
STARTCHAR J314a
ENCODING 12618
SWIDTH 960 0
DWIDTH 16 0
BBX 16 16 0 -2
BITMAP
0020
2098
1fc8
0088
0088
4178
3f88
14f8
0408
04e8
0110
0208
0208
0110
00e0
0000
ENDCHAR
STARTCHAR J314b
ENCODING 12619
SWIDTH 960 0
DWIDTH 16 0
BBX 16 16 0 -2
BITMAP
0020
0058
2128
1fa8
0128
0128
0228
43e8
3e28
1428
07e8
0428
0428
0428
0008
0000
ENDCHAR
STARTCHAR J314c
ENCODING 12620
SWIDTH 960 0
DWIDTH 16 0
BBX 16 16 0 -2
BITMAP
0020
0058
2128
1fa8
0128
0228
43e8
3e28
15e8
0428
04e8
0068
0090
0108
0604
0000
ENDCHAR
STARTCHAR J314d
ENCODING 12621
SWIDTH 960 0
DWIDTH 16 0
BBX 16 16 0 -2
BITMAP
0020
0018
2088
1fc8
0088
0088
0108
4178
3f88
1408
0408
0408
0408
0408
0008
0000
ENDCHAR
STARTCHAR J314e
ENCODING 12622
SWIDTH 960 0
DWIDTH 16 0
BBX 16 16 0 -2
BITMAP
0020
2098
1fc8
0088
0088
4138
3fc8
1408
0408
0ffc
0408
0008
0008
0008
0008
0000
ENDCHAR
STARTCHAR J314f
ENCODING 12623
SWIDTH 960 0
DWIDTH 16 0
BBX 16 16 0 -2
BITMAP
0020
0018
2088
1fc8
0088
0088
4138
3fc8
1408
0408
0008
0e08
0200
0208
01fc
0000
ENDCHAR
STARTCHAR J3150
ENCODING 12624
SWIDTH 960 0
DWIDTH 16 0
BBX 16 16 0 -2
BITMAP
0020
2098
1fc8
0088
0088
4138
3fc8
1408
0408
07fc
0008
07fc
0200
0208
01fc
0000
ENDCHAR
STARTCHAR J3151
ENCODING 12625
SWIDTH 960 0
DWIDTH 16 0
BBX 16 16 0 -2
BITMAP
0020
2098
1fc8
0088
0088
4138
3fc8
1408
0408
0008
0ffc
0208
0208
0208
03fc
0000
ENDCHAR
STARTCHAR J3152
ENCODING 12626
SWIDTH 960 0
DWIDTH 16 0
BBX 16 16 0 -2
BITMAP
0020
2098
1fc8
0088
0088
4138
3fc8
1408
0410
0808
0608
03f8
0208
0208
03f8
0000
ENDCHAR
STARTCHAR J3153
ENCODING 12627
SWIDTH 960 0
DWIDTH 16 0
BBX 16 16 0 -2
BITMAP
0020
2098
1fc8
0088
0088
4138
3fc8
1408
0408
0408
00c8
0040
00a0
0110
060c
0000
ENDCHAR
STARTCHAR J3154
ENCODING 12628
SWIDTH 960 0
DWIDTH 16 0
BBX 16 16 0 -2
BITMAP
1008
0ffc
0408
0008
0008
0010
4012
3fff
1220
0220
0220
0220
0220
0220
0220
0000
ENDCHAR
STARTCHAR J3155
ENCODING 12629
SWIDTH 960 0
DWIDTH 16 0
BBX 16 16 0 -2
BITMAP
0808
07fc
0008
0008
0010
4012
3fff
1220
0220
0220
0220
0c00
0200
0208
01fc
0000
ENDCHAR
STARTCHAR J3156
ENCODING 12630
SWIDTH 960 0
DWIDTH 16 0
BBX 16 16 0 -2
BITMAP
0808
07fc
0008
0008
0010
4012
3fff
1120
0128
07fc
0008
07fc
0200
0208
01fc
0000
ENDCHAR
STARTCHAR J3157
ENCODING 12631
SWIDTH 960 0
DWIDTH 16 0
BBX 16 16 0 -2
BITMAP
0000
0000
1008
0ffc
0008
0008
0008
0008
0010
0010
4012
3fff
1000
0000
0000
0000
ENDCHAR
STARTCHAR J3158
ENCODING 12632
SWIDTH 960 0
DWIDTH 16 0
BBX 16 16 0 -2
BITMAP
0808
07fc
0208
0008
0010
4012
3fff
1000
0008
0ffc
0408
0008
0008
0008
0008
0000
ENDCHAR
STARTCHAR J3159
ENCODING 12633
SWIDTH 960 0
DWIDTH 16 0
BBX 16 16 0 -2
BITMAP
0808
07fc
0208
0008
0008
0010
4012
3fff
1000
0000
0000
0e00
0200
0208
01fc
0000
ENDCHAR
STARTCHAR J315a
ENCODING 12634
SWIDTH 960 0
DWIDTH 16 0
BBX 16 16 0 -2
BITMAP
0808
07fc
0208
0008
0010
4012
3fff
1000
0000
0008
0ffc
0200
0200
0208
01fc
0000
ENDCHAR
STARTCHAR J315b
ENCODING 12635
SWIDTH 960 0
DWIDTH 16 0
BBX 16 16 0 -2
BITMAP
0808
07fc
0208
0008
0010
4012
3fff
1000
0808
07fc
0008
07fc
0200
0208
01fc
0000
ENDCHAR
STARTCHAR J315c
ENCODING 12636
SWIDTH 960 0
DWIDTH 16 0
BBX 16 16 0 -2
BITMAP
0808
07fc
0208
0008
0010
4012
3fff
1000
0108
0ffc
0108
0f88
0408
04c8
0308
0000
ENDCHAR
STARTCHAR J315d
ENCODING 12637
SWIDTH 960 0
DWIDTH 16 0
BBX 16 16 0 -2
BITMAP
0808
07fc
0208
0008
0010
4012
3fff
1000
0000
0e08
03fc
0208
0208
0208
03fc
0000
ENDCHAR
STARTCHAR J315e
ENCODING 12638
SWIDTH 960 0
DWIDTH 16 0
BBX 16 16 0 -2
BITMAP
0808
07fc
0208
0008
0010
4012
3fff
1000
0010
0408
0208
03f8
0208
0208
03f8
0000
ENDCHAR
STARTCHAR J315f
ENCODING 12639
SWIDTH 960 0
DWIDTH 16 0
BBX 16 16 0 -2
BITMAP
0808
07fc
0208
0008
0010
4012
3fff
1000
0000
00c0
0040
00c0
0120
0210
0c0c
0000
ENDCHAR
STARTCHAR J3160
ENCODING 12640
SWIDTH 960 0
DWIDTH 16 0
BBX 16 16 0 -2
BITMAP
0808
07fc
0208
0008
0010
4012
3fff
1000
0000
01e0
0210
0408
0408
0210
01e0
0000
ENDCHAR
STARTCHAR J3161
ENCODING 12641
SWIDTH 960 0
DWIDTH 16 0
BBX 16 16 0 -2
BITMAP
0020
0018
2048
1fe8
0848
0048
0088
0088
40f8
3f08
1008
0008
0008
0008
0008
0000
ENDCHAR
STARTCHAR J3162
ENCODING 12642
SWIDTH 960 0
DWIDTH 16 0
BBX 16 16 0 -2
BITMAP
0020
0018
0008
4108
3f88
0108
0208
0408
0808
1008
2008
4008
0008
0008
0008
0000
ENDCHAR
STARTCHAR J3163
ENCODING 12643
SWIDTH 960 0
DWIDTH 16 0
BBX 16 16 0 -2
BITMAP
0020
4118
3f88
0208
0408
0808
1008
2008
4008
1ffc
0808
0008
0008
0008
0008
0000
ENDCHAR
STARTCHAR J3164
ENCODING 12644
SWIDTH 960 0
DWIDTH 16 0
BBX 16 16 0 -2
BITMAP
0020
0018
4108
3f88
0208
0408
0808
1008
2008
4008
0008
0e00
0200
0208
01fc
0000
ENDCHAR
STARTCHAR J3165
ENCODING 12645
SWIDTH 960 0
DWIDTH 16 0
BBX 16 16 0 -2
BITMAP
0020
4118
3f88
0208
0408
0808
1008
2008
4008
0008
0ffc
0200
0200
0208
01fc
0000
ENDCHAR
STARTCHAR J3166
ENCODING 12646
SWIDTH 960 0
DWIDTH 16 0
BBX 16 16 0 -2
BITMAP
0020
4118
3f88
0208
0408
0808
1008
2008
4008
0ffc
0008
0ffc
0200
0208
01fc
0000
ENDCHAR
STARTCHAR J3167
ENCODING 12647
SWIDTH 960 0
DWIDTH 16 0
BBX 16 16 0 -2
BITMAP
0020
4118
3f88
0208
0408
0808
1008
2008
4108
1ffc
0148
1fc8
0848
09c8
067c
0000
ENDCHAR
STARTCHAR J3168
ENCODING 12648
SWIDTH 960 0
DWIDTH 16 0
BBX 16 16 0 -2
BITMAP
0020
4118
3f88
0208
0408
0808
1008
2008
4000
0008
0ffc
0208
0208
0208
03fc
0000
ENDCHAR
STARTCHAR J3169
ENCODING 12649
SWIDTH 960 0
DWIDTH 16 0
BBX 16 16 0 -2
BITMAP
0020
4118
3f88
0208
0408
0808
1008
2008
4010
0808
0608
03f8
0208
0208
03f8
0000
ENDCHAR
STARTCHAR J316a
ENCODING 12650
SWIDTH 960 0
DWIDTH 16 0
BBX 16 16 0 -2
BITMAP
0020
4118
3f88
0208
0408
0808
1008
2008
4008
00c8
0040
00c0
0120
0210
0c0c
0000
ENDCHAR
STARTCHAR J316b
ENCODING 12651
SWIDTH 960 0
DWIDTH 16 0
BBX 16 16 0 -2
BITMAP
0020
4118
3f88
0208
0408
0808
1008
2008
4008
00e0
0110
0208
0208
0110
00e0
0000
ENDCHAR
STARTCHAR J316c
ENCODING 12652
SWIDTH 960 0
DWIDTH 16 0
BBX 16 16 0 -2
BITMAP
0020
4118
3f88
0208
0408
0808
1008
2008
4000
1008
0ffc
04c0
0120
0210
0c0c
0000
ENDCHAR
STARTCHAR J316d
ENCODING 12653
SWIDTH 960 0
DWIDTH 16 0
BBX 16 16 0 -2
BITMAP
0020
4118
3f88
0208
0408
0808
1008
2008
4008
1008
0ffc
0210
0120
1128
0ffc
0000
ENDCHAR
STARTCHAR J316e
ENCODING 12654
SWIDTH 960 0
DWIDTH 16 0
BBX 16 16 0 -2
BITMAP
0040
0030
0010
4490
3fd0
0492
089f
0910
1110
2210
4410
0810
0010
0010
0010
0000
ENDCHAR
STARTCHAR J316f
ENCODING 12655
SWIDTH 960 0
DWIDTH 16 0
BBX 16 16 0 -2
BITMAP
0040
44b0
3fd0
0492
091f
1110
2210
4410
0810
3ff8
1010
0010
0010
0010
0010
0000
ENDCHAR
STARTCHAR J3170
ENCODING 12656
SWIDTH 960 0
DWIDTH 16 0
BBX 16 16 0 -2
BITMAP
0040
44b0
3fd0
0492
091f
1110
2210
4410
0810
3ff8
1110
0110
0110
0110
0110
0000
ENDCHAR
STARTCHAR J3171
ENCODING 12657
SWIDTH 960 0
DWIDTH 16 0
BBX 16 16 0 -2
BITMAP
0040
0030
4490
3fd0
0492
091f
1110
2210
4410
0810
0010
0c00
0400
0410
03f8
0000
ENDCHAR
STARTCHAR J3172
ENCODING 12658
SWIDTH 960 0
DWIDTH 16 0
BBX 16 16 0 -2
BITMAP
0040
44b0
3fd0
0492
091f
1110
2210
4410
0810
0ff8
0010
0ff8
0400
0410
03f8
0000
ENDCHAR
STARTCHAR J3173
ENCODING 12659
SWIDTH 960 0
DWIDTH 16 0
BBX 16 16 0 -2
BITMAP
0040
44b0
3fd0
0492
091f
1110
2210
4410
0a10
3ff8
0290
3f90
1090
1390
0cf8
0000
ENDCHAR
STARTCHAR J3174
ENCODING 12660
SWIDTH 960 0
DWIDTH 16 0
BBX 16 16 0 -2
BITMAP
0040
44b0
3fd0
0492
091f
1110
2210
4410
0810
0010
1ff8
0410
0410
0410
07f8
0000
ENDCHAR
STARTCHAR J3175
ENCODING 12661
SWIDTH 960 0
DWIDTH 16 0
BBX 16 16 0 -2
BITMAP
0040
44b0
3fd0
0492
091f
1110
2210
4410
0850
0030
0810
07f0
0410
0410
07f0
0000
ENDCHAR
STARTCHAR J3176
ENCODING 12662
SWIDTH 960 0
DWIDTH 16 0
BBX 16 16 0 -2
BITMAP
0040
44b0
3fd0
0492
091f
1110
2210
4410
0810
00d0
0040
00c0
0120
0210
0c0c
0000
ENDCHAR
STARTCHAR J3177
ENCODING 12663
SWIDTH 960 0
DWIDTH 16 0
BBX 16 16 0 -2
BITMAP
0040
44b0
3fd0
0492
091f
1110
2210
4410
0810
0000
0630
0210
0530
08c8
3184
0000
ENDCHAR
STARTCHAR J3178
ENCODING 12664
SWIDTH 960 0
DWIDTH 16 0
BBX 16 16 0 -2
BITMAP
0040
44b0
3fd0
0492
091f
1110
2210
4410
0810
01d0
0220
0410
0410
0220
01c0
0000
ENDCHAR
STARTCHAR J3179
ENCODING 12665
SWIDTH 960 0
DWIDTH 16 0
BBX 16 16 0 -2
BITMAP
0040
44b0
3fd0
0492
091f
1110
2210
4410
0810
1ff8
0400
07f8
0400
0410
03f8
0000
ENDCHAR
STARTCHAR J317a
ENCODING 12666
SWIDTH 960 0
DWIDTH 16 0
BBX 16 16 0 -2
BITMAP
0020
0098
0068
4928
3fa8
0928
0938
1228
1228
2428
4428
0828
0028
0028
0008
0000
ENDCHAR
STARTCHAR J317b
ENCODING 12667
SWIDTH 960 0
DWIDTH 16 0
BBX 16 16 0 -2
BITMAP
0020
0058
0528
3fa8
0928
0a38
1228
2428
4828
1008
1ffc
0808
0008
0008
0008
0000
ENDCHAR
STARTCHAR J317c
ENCODING 12668
SWIDTH 960 0
DWIDTH 16 0
BBX 16 16 0 -2
BITMAP
0020
0018
0948
3fa8
0928
0a38
1228
2428
4828
1028
0028
0608
0200
0208
01fc
0000
ENDCHAR
STARTCHAR J317d
ENCODING 12669
SWIDTH 960 0
DWIDTH 16 0
BBX 16 16 0 -2
BITMAP
0020
0058
0528
3fa8
0928
0a38
1228
2428
4828
17fc
0008
07fc
0200
0208
01fc
0000
ENDCHAR
STARTCHAR J317e
ENCODING 12670
SWIDTH 960 0
DWIDTH 16 0
BBX 16 16 0 -2
BITMAP
0020
0058
0528
3fa8
0928
0a38
1228
2428
4828
1008
0ffc
0208
0208
0208
03fc
0000
ENDCHAR
STARTCHAR J3221
ENCODING 12833
SWIDTH 960 0
DWIDTH 16 0
BBX 16 16 0 -2
BITMAP
0020
0058
0528
3fa8
0928
0a38
1228
2428
4828
1018
0408
03f8
0208
0208
03f8
0000
ENDCHAR
STARTCHAR J3222
ENCODING 12834
SWIDTH 960 0
DWIDTH 16 0
BBX 16 16 0 -2
BITMAP
0020
0058
0528
3fa8
0928
0a38
1228
2428
4828
10c8
0048
00c0
0120
0210
0c0c
0000
ENDCHAR
STARTCHAR J3223
ENCODING 12835
SWIDTH 960 0
DWIDTH 16 0
BBX 16 16 0 -2
BITMAP
0020
0058
0528
3fa8
0928
0a38
1228
2428
4828
1008
0630
0210
0630
0948
1084
0000
ENDCHAR
STARTCHAR J3224
ENCODING 12836
SWIDTH 960 0
DWIDTH 16 0
BBX 16 16 0 -2
BITMAP
0020
0058
0528
3fa8
0928
0a38
1228
2428
4828
10e8
0110
0208
0208
0110
00e0
0000
ENDCHAR
STARTCHAR J3225
ENCODING 12837
SWIDTH 960 0
DWIDTH 16 0
BBX 16 16 0 -2
BITMAP
0040
0030
0010
4490
3fd2
089f
0910
1112
121f
2210
4410
0810
0010
0010
0010
0000
ENDCHAR
STARTCHAR J3226
ENCODING 12838
SWIDTH 960 0
DWIDTH 16 0
BBX 16 16 0 -2
BITMAP
0040
44b0
3fd2
049f
0910
1212
241f
4810
0010
3ff8
1010
0010
0010
0010
0010
0000
ENDCHAR
STARTCHAR J3227
ENCODING 12839
SWIDTH 960 0
DWIDTH 16 0
BBX 16 16 0 -2
BITMAP
0040
44b0
3fd2
049f
0910
1212
241f
4810
1010
0ff8
0010
0ff8
0400
0410
03f8
0000
ENDCHAR
STARTCHAR J3228
ENCODING 12840
SWIDTH 960 0
DWIDTH 16 0
BBX 16 16 0 -2
BITMAP
0020
0018
0008
2248
1fe8
0448
0488
08f8
1108
2208
4408
0808
0008
0008
0008
0000
ENDCHAR
STARTCHAR J3229
ENCODING 12841
SWIDTH 960 0
DWIDTH 16 0
BBX 16 16 0 -2
BITMAP
0020
4498
3fc8
0488
09f8
1208
2408
4808
0008
1ffc
0808
0008
0008
0008
0008
0000
ENDCHAR
STARTCHAR J322a
ENCODING 12842
SWIDTH 960 0
DWIDTH 16 0
BBX 16 16 0 -2
BITMAP
0020
4498
3fc8
0488
09f8
1208
2408
4808
0088
1ffc
0888
0088
0088
0088
0088
0000
ENDCHAR
STARTCHAR J322b
ENCODING 12843
SWIDTH 960 0
DWIDTH 16 0
BBX 16 16 0 -2
BITMAP
0020
0018
4488
3fc8
0488
09f8
1208
2408
4808
1008
0008
0600
0200
0208
01fc
0000
ENDCHAR
STARTCHAR J322c
ENCODING 12844
SWIDTH 960 0
DWIDTH 16 0
BBX 16 16 0 -2
BITMAP
0020
4498
3fc8
0488
09f8
1208
2408
4808
0008
0ffc
0008
0ffc
0200
0208
01fc
0000
ENDCHAR
STARTCHAR J322d
ENCODING 12845
SWIDTH 960 0
DWIDTH 16 0
BBX 16 16 0 -2
BITMAP
0020
4498
3fc8
0488
09f8
1208
2408
4808
0008
1c08
07fc
0408
0408
0408
07fc
0000
ENDCHAR
STARTCHAR J322e
ENCODING 12846
SWIDTH 960 0
DWIDTH 16 0
BBX 16 16 0 -2
BITMAP
0020
4498
3fc8
0488
09f8
1208
2408
4808
0028
0818
0408
07f8
0408
0408
07f8
0000
ENDCHAR
STARTCHAR J322f
ENCODING 12847
SWIDTH 960 0
DWIDTH 16 0
BBX 16 16 0 -2
BITMAP
0020
4498
3fc8
0488
09f8
1208
2408
4808
0008
00c8
0040
00c0
0120
0210
0c0c
0000
ENDCHAR
STARTCHAR J3230
ENCODING 12848
SWIDTH 960 0
DWIDTH 16 0
BBX 16 16 0 -2
BITMAP
0020
4498
3fc8
0488
09f8
1208
2408
4808
0008
0008
0630
0210
0628
0948
1084
0000
ENDCHAR
STARTCHAR J3231
ENCODING 12849
SWIDTH 960 0
DWIDTH 16 0
BBX 16 16 0 -2
BITMAP
0020
4498
3fc8
0488
09f8
1208
2408
4808
0008
00e0
0110
0208
0208
0110
00e0
0000
ENDCHAR
STARTCHAR J3232
ENCODING 12850
SWIDTH 960 0
DWIDTH 16 0
BBX 16 16 0 -2
BITMAP
0020
0018
0048
4928
3fa8
0928
09e8
1228
1228
2428
4428
0828
0028
0028
0008
0000
ENDCHAR
STARTCHAR J3233
ENCODING 12851
SWIDTH 960 0
DWIDTH 16 0
BBX 16 16 0 -2
BITMAP
0020
0058
2528
1fa8
0928
13e8
2428
4828
1028
1ffc
0808
0008
0008
0008
0008
0000
ENDCHAR
STARTCHAR J3234
ENCODING 12852
SWIDTH 960 0
DWIDTH 16 0
BBX 16 16 0 -2
BITMAP
0020
0058
2528
1fa8
0928
0be8
1228
2428
4828
1028
0028
0e08
0200
0208
01fc
0000
ENDCHAR
STARTCHAR J3235
ENCODING 12853
SWIDTH 960 0
DWIDTH 16 0
BBX 16 16 0 -2
BITMAP
0020
0058
2528
1fa8
0928
13e8
2428
4828
1028
0008
0ffc
0208
0208
0208
03fc
0000
ENDCHAR
STARTCHAR J3236
ENCODING 12854
SWIDTH 960 0
DWIDTH 16 0
BBX 16 16 0 -2
BITMAP
0020
0058
2528
1fa8
0928
13e8
2428
4828
1028
00c8
0048
00c0
0120
0210
0c0c
0000
ENDCHAR
STARTCHAR J3237
ENCODING 12855
SWIDTH 960 0
DWIDTH 16 0
BBX 16 16 0 -2
BITMAP
0020
0058
2528
1fa8
0928
13e8
2428
4828
1028
00e8
0110
0208
0208
0110
00e0
0000
ENDCHAR
STARTCHAR J3238
ENCODING 12856
SWIDTH 960 0
DWIDTH 16 0
BBX 16 16 0 -2
BITMAP
0020
0018
0008
4488
3fc8
08f8
0908
1108
12f8
2208
4408
0808
0008
0008
0008
0000
ENDCHAR
STARTCHAR J3239
ENCODING 12857
SWIDTH 960 0
DWIDTH 16 0
BBX 16 16 0 -2
BITMAP
0020
0018
4488
3fc8
04f8
0908
1108
22f8
4408
0808
0008
0e08
0200
0208
01fc
0000
ENDCHAR
STARTCHAR J323a
ENCODING 12858
SWIDTH 960 0
DWIDTH 16 0
BBX 16 16 0 -2
BITMAP
0020
4498
3fc8
04f8
0908
13f8
2488
4808
1008
07fc
0008
07fc
0200
0208
01fc
0000
ENDCHAR
STARTCHAR J323b
ENCODING 12859
SWIDTH 960 0
DWIDTH 16 0
BBX 16 16 0 -2
BITMAP
0020
4498
3fc8
04f8
0908
13f8
2488
4808
1008
00c8
0040
00c0
0120
0210
0c0c
0000
ENDCHAR
STARTCHAR J323c
ENCODING 12860
SWIDTH 960 0
DWIDTH 16 0
BBX 16 16 0 -2
BITMAP
0020
4498
3fc8
04f8
0908
13f8
2488
4808
1008
0008
0630
0210
0630
0948
1184
0000
ENDCHAR
STARTCHAR J323d
ENCODING 12861
SWIDTH 960 0
DWIDTH 16 0
BBX 16 16 0 -2
BITMAP
0020
4498
3fc8
04f8
0908
13f8
2488
4808
1008
1ff8
0400
07f8
0400
0408
03fc
0000
ENDCHAR
STARTCHAR J323e
ENCODING 12862
SWIDTH 960 0
DWIDTH 16 0
BBX 16 16 0 -2
BITMAP
0020
0018
0048
4928
3fa8
09e8
0928
1228
13e8
2428
4428
0828
0028
0028
0008
0000
ENDCHAR
ENDFONT
